<?xml version="1.0" encoding="UTF-8"?><svg id="a" xmlns="http://www.w3.org/2000/svg" viewBox="0 0 368.67 382.67"><defs><style>.b{fill:#364755;}.c{fill:#123b5b;}.d{fill:#eacd84;}.e{fill:#1f547f;}.f{fill:#ab884d;}.g{fill:#0b1b25;}.h{fill:#d3ae5e;}.i{fill:#daaf4e;}</style></defs><path class="g" d="M312.1,116.67c.66,1.92.98,4.18.52,6.19-.53,2.34-3.4,3.22-3.21,5.42,2.94,5.21,6.6,10.01,9.45,15.27,1.49,2.75,6.69,11.94,5.55,14.43-.54,1.18-2.88,1.93-2.96,3.64,2.63,10.67,5.41,21.64,5.97,32.68.12,2.27.39,11.1-.12,12.6-.63,1.87-3.23.48-3.98,1.49-.45.61-3.97,13.45-3.97,14.61,0,4.52,5.05,11.44,6.83,15.88,4.11,10.28,4.16,20.3.57,30.81-1.1,3.24-3.56,6.34-4.5,9.5-2.17,7.3-1.47,14.42-6.49,20.83-3.9,4.98-10.81,8.73-14.34,12.97s-4.87,12.63-9.61,17.7c-4.16,4.46-11.15,6.83-15.98,9.99-6.59,4.31-11.08,10.75-19.17,14.12-2.46,1.03-6.03,1.28-8.27,2.38-1.83.9-3.97,3.51-5.95,4.71-4.82,2.92-12.45,4.63-18.05,5.31-1.61.2-2.86-.71-4.31-.44-2.19.4-6.92,5-9.99,6.05-10.79,3.69-19.08-1.84-28.05-.76-8.6,1.04-13.74,3.27-23,.27-3.79-1.23-6.75-5.55-9.15-6.16-5.76-1.47-12.91-.09-19.73-2.9-3.92-1.61-6.64-6.35-9.23-7.44-2.01-.85-2.91.13-4.52-.11-3.53-.51-16.85-9.95-19.95-12.69-2.67-2.36-4.3-7.27-6.95-9.03-2.04-1.35-4.75-1.34-7-2.32-5.49-2.41-12.57-10.62-15.45-15.86-.99-1.81-.71-4.14-2.51-6.15-1.16-1.29-3.31-2.02-4.67-3.32-5.67-5.36-9.45-12.23-12.78-19.19-1.21-2.54-1.11-6.82-2.03-9.26-1.23-3.24-3.97-6.62-5.17-10.19-3.26-9.73-2.73-18.16,2.34-27.04,2.1-3.67,7.89-8.71,8.31-12.39.2-1.73-4.49-20.26-5.37-20.89l-3.52.58-.98-1.06c-.43-9.61.36-19.57,2.09-29.03.56-3.04,4.59-16.14,3.65-17.73-.43-.73-3.47-1-3.09-3.63.31-2.14,4.47-9.92,5.78-12.28,2.96-5.35,6.74-10.15,10.12-15.22-3.63-4.91-5.69-4.96-4.02-11.67,7.61-1.58,15.3-.81,22.95-1.34,26.61-1.84,52.29-5.24,78.87.33,3.16.66,6.2,2.25,9.14,2.85,22.75,4.62,40.19-4.7,61.7-5.87,24.93-1.35,49.24,1.59,73.9,3.36,3.13.22,7.29.62,10.31,0ZM103.15,140.67l17.96-18.34c.28-1.53-.67-.9-1.66-.98-10.76-.89-21.03-1.92-31.86-.59-3.81.47-7.08,1.97-10.63,3.19-2.35,4.5-2,9.02-1.19,13.85.21,1.25-.55,2.6,1.42,2.21-.02.89,0,1.78,0,2.67,0,.45-.04.62,0,1.33.1,1.87.3,3.51.67,5.33.2,1.01.65,1.26.67,1.33,1.24,5.38,3.05,10.57,4,16,2.51,2.35,8.22-10.72,9.34-12.31,3.27-4.66,7.99-8.57,11.29-13.69ZM244.22,121.34c-.64-.91-9.89-.77-11.68-.71-2.82.09-7.08.44-9.87.78-6.05.74-18.54,2.63-17.79,10.95.11,1.25,1.34.9,1.43,1.41.23,1.29-.79,2.95-.71,4.53.17,3.47,2.93,21.25,5.34,22.71.62.38,2.02.59,2.6.23,4.39-9.61,11.92-18.46,18.94-26.35,2.97-3.33,7.76-6.92,10.41-10.57.66-.91,1.41-1.76,1.34-2.99ZM308.77,199.33l5.32,10c1.2-10.63.9-21.42-.66-31.99,1.77-.37,1.15.45,1.65,1.31,1.92,3.27,3.02,8.51,6.33,10.02v-9.67c0-3.12-3.06-14.36-4.34-17.65-1.67-4.27-6.63-10.25-7.62-13.7-.66-2.29,3.41.24,4.2.46,1.23.34,2.48.64,3.77.55.18-.16-.38-1.94-.57-2.4-.99-2.41-6.21-9.8-8.1-11.91-.67-.75-2.61-3.14-3.55-2.97l-8.45,7.75c-2.57,21.26-9.46,44.82-33.66,48.78-9.82,1.61-19.66.33-29.52.09,2.75,5.93,6.63,11.24,8.84,17.47,7.49,21.12,4.97,42.88-5.25,62.45-2.84,5.44-6.92,10.07-10.11,15.2-.5.8-2.74,4.2-2.12,4.87l11.29-7.04,13.01-12.95c1.57-.22.89.42.73,1.4-.36,2.18-1.65,3.77-1.77,6.23-.04.8-.4,2.93,1.02,2.36,2.98-4.79,7.34-7.65,11.01-11.64,5.18-5.65,10.94-12.43,15.18-18.79,1.08-1.62,2.45-4.27,2.78-6.23,1.83-.38,1.51.81,1.17,2.18-1.38,5.64-5.37,12.45-6.48,17.52-.29,1.34-.24,1.92,1.3,1.64,3.65-7.19,9.05-12.86,12.56-20.43,2.96-6.4,3.64-12.87,6.14-19.05.28-.69,2.37-2.39,1.95-4.52,1.76-.17,1.08-.03,1.31,1,1.12,4.98,1.53,8.86,2.2,13.82.09.65.2,2.66,1.14,2.51,3.52-7.6,8.03-12.84,8.69-21.63.42-5.68-.62-10.31-1.35-15.69l1.99.66ZM129.77,195.33c.81-1.57,4.35-6.3,3.99-7.63l-1.1-.93c-12.71.44-22.54,2.72-34.99-1.61-23.24-8.07-21.19-28.28-28.44-48.17-1.9-1.48-4.64-5.34-7.03-3.71-1.28.87-7.97,12.07-8.29,13.71-.2.99.03,1.18,1,1l7-4.66c-.32,1.62-.73,2.05-1.33,3.33-2.34,5.02-6.23,9.44-8.32,14.67-3.09,7.72-3.99,16.46-4.99,24.66,1.54.39,1.88-1.41,2.5-2.47.95-1.59,1.46-3.7,2.15-4.86.51-.85,1.72-2.22,2.66-2.67-1.04,5.75-1.35,11.5-1.32,17.33.02,5.35.29,10.73,1.34,16,.47.35,4.81-6.1,5.36-6.98s.53-2.23.62-2.35c.07-.1.27.36,1.33-1.33,2.02-.37,1.28,1.02,1.33,2.3.51,12.86-1.58,24.49,7.13,35.52.42.53-.02,1.23,1.52.85l2.01-16c.18-.19.83.35,1,.66,1.1,1.97,2.15,9.39,3.35,12.64,3.72,10.07,10.44,19.8,17.94,27.36-.39-6.82-2.55-13.49-2.99-20.34-.08-1.32-.74-4.27,1.31-3.66,2.51,7.52,5.66,16.89,10.35,23.32.63.87,1.74,1.09,2.31,1.86,3.5,4.78,6.99,10.22,11.3,14.15l-.33-6,8.16,7.31,12.8,8.02c.95-1.04-4.99-10.93-6.01-12.83-5.75-10.62-10.18-18.54-11.95-31.17-2.48-17.69.62-31.72,8.65-47.33ZM285.48,132.67v12.33c0,4.52-4.65,16.08-7.43,19.89-10.37,14.16-33.58,15.33-49.14,10.79-3.55-1.03-6.43-3-9.97-3.67,4.26,5.27,10.61,7.04,17.05,7.91,9.96,1.34,23.05.82,32.55-2.56,9.19-3.26,12.88-9.55,15.42-18.55,2.33-8.25,2.66-16.06,3.48-24.53l-1.96-1.61ZM163.04,168c-1.51.45-12.84,8.92-15.31,10.67-15.28,10.81-22.9,48.78-17.64,66,2.53,8.29,7.42,13.52,16.53,13.08,3.26-.16,21.96-8.47,25.97-10.51,8.32-4.24,14.71-13.1,3.09-17.91-7.82-3.23-15.51-4.02-19.85-13.11-2.23-4.66-3.26-17.67-1.07-22.19,1.24-2.56,8.09-7.8,10.95-8.7,10.21-3.21,22.32-3.36,32.74-1.14,4.73,1.01,8.37,2.32,11.84,5.8,7.18,14.02,4.54,30.55-11.14,37.17-1.38.58-6.18,1.16-6.16,2.83h-.67c-.41.07-1-.11-1.33,0-4.75,1.55-5.7,8.26-2.94,11.94,2.41,3.22,21.14,11.76,25.78,13.51,3.61,1.36,8.1,2.62,11.96,1.74,2.41-.55,7.71-5.37,8.99-7.65,8.39-14.98.64-57.37-13.18-68.2-3.73-2.93-9.56-5.32-12.57-7.74-1.27-1.02-2.99-4.52-4.73-4.93-5.8-9.51-7.51-20.03-10.36-30.62-3.06-5.19-15.59-5.46-19.89-1.36-2.25,8.45-4.38,17.2-8.22,25.09-.92,1.89-3.83,4.08-2.78,6.21ZM147.73,170.67c-.76-.77-5.72,2.84-6.97,3.35-13.46,5.47-30.4,5.9-43.4.79-2.8-1.1-5.97-3.93-8.85-3.15,10.13,9.78,30.97,9.92,43.95,7.37,1.55-.3,18.21-5.4,15.27-8.36ZM208.73,217.11c3.01-3.64,2.22-12.25,1.47-16.69-.64-3.81-.8-6.22-4.63-8.03-9.69-4.58-32.87-4.16-42.54.61-5.63,2.77-5.77,5.64-5.31,11.67,1.92.36,1.08-.51,1.49-1.47.61-1.42.9-3.15,2.06-4.3,3.27-3.28,18.2-3.67,19.08,1.47.44,2.58-1.72,9.82-2.96,12.34-2.75,5.57-8.82,7.9-14.26,4.22-2.85-1.93-2.62-4.04-4.73-6.25-.1,3.09,1.07,7.48,4.15,8.84,2.29,1.01,10.23,1.02,12.46.14,4.54-1.8,8.46-9.66,9.36-14.3h1.97c-.46,3.65,1.82,12.74,5.35,14.31,4.13,1.83,14.02,1.13,17.06-2.54ZM314.1,238.67c-.21.67-.45,1.33-.67,2-.41,1.3-.41,2.54-.67,3.33-.03.09-1.33.48-1.33,1.33,0,1.48,2.67,7.62,2.72,11,.03,2.57-2.16,8.1-1.74,9.32.63,1.8,4.46,4.78,4.35,7.67,1.45,1.06,3.32-5.37,3.67-6.65,2.84-10.38,2.53-21.32-4.34-30.02-.19-.24-.44-.45-.67-.67-.03-.03.08-.78-.66-.67-.4,1.02-.38,2.41-.67,3.33ZM49.91,270c.67.98,1.19,1.76,2,2.67,3.78,4.26,6.97,6.84,13.2,5.88.61-1.48,2.17-4.27,1.31-5.75-.28-.48-7.68-4.6-9.18-6.13-.42-.43-.99-1.42-1.33-2-.1-.16.09-.49,0-.67-1.01-1.88-2.31-4.27-2.6-6.39-.46-3.35.81-13.86-.72-15.61-4.04-4.59-7.68,5.69-7.98,9.01-.65,7.15,1.4,13.28,5.31,18.99ZM307.44,255.34l.66-7.34-5.98,6.34,5.32,1ZM71.2,253.33c-.55-.43-5.77-2.91-5.99-2.66l.09,4.57c.92.65,2.36.44,3.24.76,1.97.71,3.81,1.69,5.65,2.67,1.13-.91-.96-2.42-1.66-2.67v-.67c-.26-.81-.66-1.46-1.33-2ZM177.01,254c-5.79-.15-8.69,1.27-13.97,2.67-2.02.53-3.98,1.42-5.99,2-3.08.89-6.46,1.01-9.39,2.44-.77,1.1.63,5.41,1.2,6.77,1.86,4.43,9.21,8.02,13.5,10.47s7.16,3.72,11.17,6.33c3.29,2.14,6.54,4.36,9.81,6.54l9.46-5.65c8.03-8.88,26.9-9.83,26.12-24.88-.19-.19-4.44-.46-5.31-.68-1.51-.38-3.17-.87-4.66-1.33-4.81-1.5-8.9-3.58-13.97-4.67s-13.17-2.8-17.97,0ZM290.14,266.67c-.11,1.49.33,3.69.01,4.9-.2.74-1.67-.11-1.35,1.43,1.34.49,1.57,1.61,2.01,3,.24.77.39,1.73.67,2.67.43,1.44-.58,2.03,1.35,3.65,1.05.88,6.74,3.23,7.3,1.69-.13-1.72.69-3.3.72-5,.08-4.39-1.53-9.89-1.43-14.01.06-2.59.86-6.37,1.38-8.98l-10.03,6.28c-1.05,1.31-.51,2.92-.62,4.38ZM65.88,259.33c-.4-.06-.88-.77-2.26-.72-1.78.06-3.32,1.17-5.06,1.39-.82,1.16,4.9,6.32,5.99,7.33,2.32,2.13,6.06,4.24,7.99,6.67,1.67,2.11,2.77,5.28,3.96,7.7l8.01.97c-.68-5.21-3-10.38-5.99-14.66-.91-1.3-2.85-2.88-3.99-4-.09-.08.11-.82-.2-1.11-2.82-2.61-4.83-2.97-8.45-3.55ZM303.45,269.33c1.87,7.58,3.51,15.26,0,22.67-.72,1.52-3.02,3.49-3.31,5.01-.46,2.41.3,5.77-.01,8.32l1.96-.51c0-.27.09-.56.04-.82,1.21.32,1.76-.24,2.66-.67,3.46-1.66,6.21-6.09,5.99-10,3.89-6.34,4.06-20.04-.67-26-2.52-3.18-4.21-1.8-7.98-2-.49.44,1.17,3.34,1.33,4ZM286.15,289.33c4.16-3.64,4.19-9.36,1.27-13.95-3.92-.46-4.5,3.06-6.13,5.09-.93,1.15-1.2.79-2.46,2.86-2.21,3.63-2.79,5.33-3.33,9.33-.58,4.32-2.41,9.48,3.33,10.67-.11.56-.15,2.15.11,2.55l2.9,1.36c1.99-1.3,1.37-3.45,1.65-5.24.4-2.52.86-4.85,1.33-7.33.35-1.85,1.4-3.79,1.33-5.33ZM65.22,302c3.2,2.25,5.71,4.13,9.98,4l-.09,1.23-3.24.78c-.43,1.05.52,1.58.66,1.99,1.05,3.13,4.18,10.8,6.21,13.11.46.52,10.74,6.64,11.76,6.89,4.73,1.15,11.8.81,15.97-2,2.16-1.46,2.05-2.3,2.66-4.67.03-.12.96-.54.66-1.33-.65,0-1.21-.37-1.83-.5-1.95-.38-8.72-.88-10.81-.84-2.09-.93-5.41-1.23-7.32-2-.36-.14-1.19-.96-2-1.33-.92-.43-1.12-.86-2.66-1.33-.79-2.45-.63-.75-1.33-1.33-.08-.07-.08-1.13-.61-1.69-1.73-1.83-3.63-2.39-4.05-5.64.22-.08,2.54-1.25,2.66-1.33,1.62-1.18,3.6-4.01,2.36-6.01-.77-1.24-7.23-2.63-9.02-3.32-2.67-1.04-3.93-1.82-5.99-3.33-3.37-2.49-5.23-4.57-7.62-8.04-.76-1.11-.88-2.89-1.72-3.61-.3-.26-7.03-3.31-7.3-3.01,1.15,9.39,4.83,17.83,12.64,23.33ZM78.52,293.33c3.11,1.52,5.28,2.13,8.65,4,.65.36,2.16.33,2.66.67,1.54,1.03,6.01,6.56,6.46,6.68,1.96.53,5.47-.18,7.52-.68.87-1.23-6.18-11.3-7.99-12.66-.99-.74-3.38-1.95-4.66-2.67-.32-.18-.77-1.08-1.97-1.67-4.94-2.41-13.59-3.77-16.49,2.02.05.76,4.89,3.87,5.82,4.32ZM289.48,292c-2.34,5.12-.37,8.05-1.33,13.33-.72,3.95-1.85,6.03-3.99,9.33-1.23,1.89-3.75,3.63-4.47,5.85-.35,1.08-1.81,9.74-1.51,10.15,9.97-5.7,17.18-15.09,18.63-26.67.44-3.52.06-6.5.36-9.99-1.88-2.16-4.7-3.82-7.62-3.27-.25.39.05,1.02-.06,1.25ZM257.53,305.33c-1.21,2.87-1.31,3.79-2,6.67-.12.51-.5.98-.67,2-.03.18-.6.71-.69,1.61-.54,4.98-.2,12.99,6.57,10.9.39-.53-.01-1.4.12-1.84.95-3.23,2.22-6.91,3.74-9.92,3.48-6.86,9.21-10.47,7.58-19.09-.22-1.18-2.08-2.58-3.17-2.85-4.85-1.21-9.91,8.8-11.47,12.52ZM99.15,307.33c-2.79.46-6.38,3.06-8.6,4.72-.33,2.57,2.32,2.14,3.27,2.62,6.97,3.45,13.22,2.47,19.96,4.67,1.82.59,6.06,3.76,7.09,3.86,1.36.13,6.41-2.89,8.88-2.19-.54-3.01-2.5-2.75-3.95-4.04-4.63-4.15-6.33-6.44-12.68-8.3-4.17-1.22-9.65-2.04-13.97-1.33ZM236.24,321.33c-1.36,1.75-1.22,2.49-2,4-.08.15-.88.41-1.18,1.13-1.41,3.41-5.41,16.86.84,16.89,1.49,0,6.18-6.69,7.05-8.3.73-1.36.32-2.33.63-3.25.24-.72,1.15-.24,1.32-.81.46-1.53-.87-.79-1.34-1,.78-.56,1.39-1.26,2-2,1.77-2.14,3.26-4.5,4.97-6.68,2.18-2.78,5.41-3.21,2.92-8.55-6.13-.57-13.54,2.05-15.21,8.57ZM266.85,325.33c-.37.96-2.63,4.48-3.33,5.33-1.9,2.32-5.12,4.36-7.21,7.11-2.58,3.4-4.41,7.39-5.43,11.55,6.27-1.48,12.34-4.84,16.89-9.4,1.18-1.19,1.76-3.14,2.4-3.93,1.07-1.3,1.84-.99,3.33-4,1.05-2.13,1.71-2.62,1.98-5.68.55-6.21.83-12.14-6.64-12.99-.71,3.59-.71,8.66-2,12ZM124.44,325.33c-3.56,1.45-9.26,4.54-4.93,8.55,3.47-1.4,6.69-.07,9.93.11,4.96.28,9.44.18,14.48.83,2.37.3,3.73,2.23,6.48-.15.05.96-.33,2.41-.67,3.33-1.03.29-1.55-.2-2.7.96-2.23,2.25-3.24,7.77,1.37,7.71,1.59.42,2.88-.93,3.99-1.33,5.75-2.11,10.5-3.24,16.64-4,6.05.57,7.85-.84,11.96-5,0-2.2-11-6.02-13.16-6.22-1.76-.16-4.28,1.26-6.12,1.88s-3.65,1.52-5.32,2c-1.87.54-3.29.98-5.33.66v-1.33c1.43-.3,2.34-.06,3.32-1.67,0-.44-5.29-4.78-6.15-5.16-2.21-.96-5.77.06-5.15-3.18l-2.34,1.34c-.45.07.25-1.11-1.65-1.34-5.22-.63-9.85.05-14.64,2ZM223.6,334.67c.95-.23,4.32-1.24,4.72-1.77.98-1.29,2.02-6.43,1.93-8.23-1.09-.29-.31,1.16-1.09,1.35-1.85.46-3.84-.87-5.13-.71-.39.05-5.28,2.71-6.42,3.36-2.57,1.46-3.56,1.86-5.99,4-4.73,4.16-9.63,10.12-7.32,16.67.45,1.26,1.58,3.94,3.32,3.04l15.98-17.71ZM188.99,334.67c-2.69,1.59-4.24,2.76-6.65,4.67-3.99,3.14-8.01,4.08-7.26,10.27,1.15,9.36,10.21-1.58,13.24-3.6,1.06-.71,4.06-2.17,5.32-2.67,2.91-1.15,4.86-1.4,8-1.65l4.65-7.33c-3.88-3.88-11.8-3.24-16.23-.92-.62.33-.88,1.12-1.07,1.24ZM244.89,338c-.15.33-3.58,5.47-3.99,6-1.44,1.86-6.95,6.96-9.05,7.93-1.77.81-3.99.85-5.54,1.78-.39.23-4.39,5.58-4.04,1.96.26-2.59,2.2-2.39,2.55-3.42,1.07-3.23-.97-8.15-4.56-8.63-.93,1.69-2.74,3.24-3.77,4.6-.46.6-.09,1.64-.2,1.78-.63.79-5.23,5.53-5.99,6-.5.31-2.43.93-3.33,1.33-4.39,1.97-7.94,2.24-11.98,4-2.58,1.12-4.12,2.53-6.65,3.34l.38,1.36c1.18.54,2.35.55,3.61.63,4.43,2.53,9.42,1.27,13.97,0,5.61-1.57,6.28-2.53,10.65-6,1.53-1.22,3.53-1.8,4.66-4,.93,1.32,1.61,2.57,2.38,3.96,1.85-.95,3.6.06,4.94.04,5.17-.06,10.27-3.66,13.97-7.33,2.46-2.44,2.81-3.2,4.66-6,2.84-4.31,6.88-8.22,3.33-13.33-1.2-1.72-2.38-2.83-4.65-2.67-.26.22-.92,5.75-1.34,6.67ZM122.45,348c.44,0,.9.05,1.33,0,6.72-.76,12.89-2.48,11.32-10.67-4.09-.83-8.34,1.51-11.98,2-1.39.19-3.17-.03-4.66,0-2.03-1.01-4.25-.86-6.49-1.81-.54-.23-3.33-2.43-3.99-2.83-.83-.5-3.75-2.54-3.98-2.6-.81-.22-8.83.72-8.82,1.57,5.77,7.8,13.1,13.69,23.03,14.92,1.25.15,3.37.58,4.24-.58ZM161.04,347.33c-1.46,1.08-2.86,2.2-4.66,2.67-2.95.77-5.17,1.15-7.99,2-5.65,1.7-11.06-2.38-14.94-2.57-1.71-.08-4.86,1.02-6.77,1.18-1.28.11-3.2-1.58-2.93.4.62,4.54,16,10.79,20.29,11.05,3.16.19,3.74-.93,5.68-1.39,2.87-.68,3.84-.89,6.65-2,1.97-.78,2.67-.54,4.88-2.12,5-3.56,4.1-5.1,2.44-10.55-1.98-.57-2.03.87-2.65,1.33ZM185.66,354c-2.78,1.97-5.96,3.32-9.32,4-4.31.87-7.82.11-11.6.71-1.58.25-4.84,1.93-7.03,2.63-.86.27-1.63.83-2.66.67,7.71,6.31,16.74,6.5,25.95,3.33,2.83-.98,3.38-1.26,5.99-2.67,6.41-3.46,11.83-6.55,4.89-13.95-.92-.15-4.91,4.35-6.23,5.28Z"/><path class="c" d="M308.77,199.33l-1.99-.66c.74,5.38,1.78,10.01,1.35,15.69-.65,8.79-5.17,14.03-8.69,21.63-.94.15-1.05-1.86-1.14-2.51-.67-4.96-1.08-8.84-2.2-13.82-.23-1.03.46-1.17-1.31-1,.42,2.13-1.68,3.83-1.95,4.52-2.5,6.18-3.17,12.66-6.14,19.05-3.5,7.57-8.91,13.23-12.56,20.43-1.53.29-1.59-.3-1.3-1.64,1.11-5.06,5.1-11.88,6.48-17.52.34-1.37.66-2.56-1.17-2.18-.33,1.95-1.7,4.61-2.78,6.23-4.24,6.37-10,13.15-15.18,18.79-3.66,3.99-8.02,6.85-11.01,11.64-1.42.57-1.06-1.56-1.02-2.36.12-2.46,1.42-4.05,1.77-6.23.16-.98.83-1.62-.73-1.4l-13.01,12.95-11.29,7.04c-.62-.66,1.63-4.07,2.12-4.87,3.2-5.13,7.27-9.77,10.11-15.2,10.22-19.57,12.75-41.33,5.25-62.45-2.21-6.23-6.09-11.54-8.84-17.47,9.86.24,19.7,1.51,29.52-.09,24.2-3.96,31.09-27.52,33.66-48.78l8.45-7.75c.94-.16,2.88,2.23,3.55,2.97,1.9,2.11,7.11,9.5,8.1,11.91.19.45.75,2.23.57,2.4-1.29.09-2.54-.21-3.77-.55-.8-.22-4.86-2.75-4.2-.46.99,3.45,5.95,9.43,7.62,13.7,1.28,3.29,4.34,14.53,4.34,17.65v9.67c-3.31-1.5-4.41-6.75-6.33-10.02-.51-.86.12-1.68-1.65-1.31,1.56,10.58,1.85,21.37.66,31.99l-5.32-10c.98.03.61-.96.68-1.66,1.52-16.45-.32-32.39-5.29-47.51-.53-1.63-.42-3.98-1.32-5.89-.35-.76.33-1.22-1.39-.94-3.15,16.24-10.26,39.56-26.17,47.46-9.26,4.59-20.99,4.91-31.07,3.88-.73.75,4.41,14.35,5.01,16.65.81,3.12.26,7.66,2.3,9.14l.68,20.87c1.56.43,1.12-.41,1.52-.85,6.67-7.51,10.03-18.88,12.51-28.43h1.89c2.18,5.93,2.17,12.35,2.05,18.62.92.04,1.27.2,2.02-.45,6.02-5.26,10.51-16.58,13.11-24.06.54-1.56-.34-4.81,3.17-4.81,1.17,0,2.73,2.57,3.99.66,2.08-3.14-.24-14.63,2.3-16.4,6.9.56,10.92,8.25,14,13.73Z"/><path class="e" d="M61.89,143.33c.55-2.75-.64-7.26,3.77-3.14,5.14,14.74,4.96,33.72,18.04,43.77,2.92,2.25,11.34,7.5,14.63,8.52,8.09,2.51,19.9.01,28.45.84,1.18.11,3.39.17,2.99,2-8.03,15.62-11.13,29.65-8.65,47.33l-4.12-4.87c-3.46-6.83-5.32-15.45-12.17-19.8-2.89.68-4.86,20.94-4.34,24.33l-1.32.32c-3.58-5.06-4.1-13.62-7.76-18.49-1.24-1.65-4.39-3.18-5.58-4.66-1.31-1.63-3.75-7.93-4.35-10.12s-1.35-10.4-1.94-11.39c-1.23-2.04-1.65.26-2.21.61-1.05.67-6.22,4.58-6.78,4.07-1.58-3.81,2.48-10.26-2.34-12.02-2.35.02-5.18,6.19-6.32,8.02-1.06,1.7-1.26,1.24-1.33,1.33-1.37.12-2.07.19-3.34-.47-2.21-1.15-1.38-5.91-3.98-6.2-.02-5.83.28-11.58,1.32-17.33-.93.44-2.15,1.81-2.66,2.67-1.15-.73-1.2-1.54-1.17-2.8.1-3.35,4.56-13.55,6.22-17.14,1.14-2.47,6.26-8.2,4.92-11.4l-1.33-.66c.6-1.28,1.01-1.72,1.33-3.33Z"/><path class="c" d="M61.89,198.67c1.14-1.83,3.97-8,6.32-8.02,4.81,1.76.75,8.21,2.34,12.02.57.52,5.73-3.39,6.78-4.07.56-.36.97-2.66,2.21-.61.59.98,1.36,9.24,1.94,11.39s3.04,8.5,4.35,10.12c1.19,1.48,4.34,3.01,5.58,4.66,3.66,4.87,4.18,13.43,7.76,18.49l1.32-.32c-.52-3.4,1.45-23.65,4.34-24.33,6.85,4.35,8.71,12.97,12.17,19.8l4.12,4.87c1.77,12.63,6.2,20.55,11.95,31.17,1.03,1.9,6.96,11.79,6.01,12.83l-12.8-8.02-8.16-7.31.33,6c-4.31-3.93-7.8-9.37-11.3-14.15-.57-.77-1.68-1-2.31-1.86-4.69-6.44-7.84-15.8-10.35-23.32-2.06-.61-1.4,2.34-1.31,3.66.44,6.85,2.6,13.52,2.99,20.34-7.5-7.56-14.22-17.3-17.94-27.36-1.2-3.25-2.25-10.68-3.35-12.64-.17-.31-.82-.85-1-.66l-2.01,16c-1.54.38-1.1-.31-1.52-.85-8.71-11.03-6.62-22.66-7.13-35.52-.05-1.28.68-2.67-1.33-2.3Z"/><path class="c" d="M61.89,143.33l-7,4.66c-.97.18-1.2-.01-1-1,.32-1.64,7.01-12.83,8.29-13.71,2.39-1.63,5.13,2.23,7.03,3.71,7.26,19.89,5.2,40.1,28.44,48.17,12.46,4.33,22.28,2.05,34.99,1.61l1.1.93c.36,1.33-3.18,6.05-3.99,7.63.4-1.83-1.81-1.89-2.99-2-8.54-.83-20.36,1.67-28.45-.84-3.29-1.02-11.71-6.27-14.63-8.52-13.08-10.06-12.9-29.03-18.04-43.77-4.4-4.12-3.22.39-3.77,3.14Z"/><path class="c" d="M60.56,146.67l1.33.66c1.34,3.2-3.78,8.93-4.92,11.4-1.66,3.59-6.12,13.78-6.22,17.14-.04,1.25.02,2.06,1.17,2.8-.69,1.16-1.2,3.27-2.15,4.86-.63,1.06-.96,2.86-2.5,2.47.99-8.2,1.9-16.95,4.99-24.66,2.09-5.23,5.98-9.65,8.32-14.67Z"/><path class="c" d="M53.24,193.33c2.6.28,1.77,5.05,3.98,6.2,1.26.65,1.97.59,3.34.47-.09.12-.08,1.49-.62,2.35s-4.89,7.33-5.36,6.98c-1.05-5.27-1.32-10.65-1.34-16Z"/><path class="g" d="M310.77,114.67c-26.89-2.19-54.49-5.47-81.55-4.03-17.8.95-32.04,7.63-50.58,7.39-9.26-.12-18.13-3.23-27.1-4.85-24.62-4.43-54.91-2.44-80,.16-5.17.54-10.56,1.58-15.64,2.66,1.26-3.14,3.12-4.15,3.92-6.87-10.04-9.07-15.73-25.93-12.26-39.16,4.96-18.97,27.87-30.04,46.25-24.28,3.67,1.15,10.76,4.04,14.25,5.72,2.31,1.11,6.99,5.29,8.72,5.31,16.72-6.71,34.22-12.61,52.58-11.39,4.6.31,9.4,2.04,13.98,2.03,4.21-.01,8.97-1.72,13.32-2.03,18.85-1.35,36.94,3.98,54.51,9.99,1.88-.11,8.72-6.37,11.69-7.66,31.84-13.86,68.08,10.54,55.55,45.65-2.26,6.33-6.69,11.32-11.33,15.96-.34,1.6,2.68,3.89,3.7,5.39ZM255.54,66c-3.61-.71-6.87-4.12-10.05-5.6-5.25-2.44-15.14-5.34-20.87-5.76-3.59-.26-11.33-.46-14.7-.02-.13.02-2.22,1.27-2.29,1.38l-.66-4c-1.41.04-2.86-.13-4.28.06-2.92.4-9.64,1.86-12.55,2.64-.59.16-.22,1.2-1.43,1.36-4.1.54-7.25-.46-11.03-1.39-2.8-.69-7.2-2.5-10.37-2.61-1.55-.05-3.25.93-4.93.61l.67,2.66c-15.4-1.92-29.49-.56-43.08,7.21-.86.49-1.2,1.27-1.5,1.47-2.26,1.45-6.08,2.33-6.67,5.33h-.98c-5.44-7.31-10.83-12.77-19.79-15.52-10.65-3.26-21.94-3.16-29.8,4.85-.06.06-.88-.12-1.34.47-9.65,12.27-8.03,34.33,5.05,43.49.99.41,3.67-3.71,3.67-4.97,0-1.84-2.43-4.12-3.22-6.17-1.64-4.24-1.92-9.85-.52-14.18.33-1.01,3.75-7.71,4.33-8.33,2.39-2.6,10.93-4.08,14.34-3.67,3.87.47,6.62,4.06,10.3,4.68l10.65,7.01c.57,2.29-8.93,2.7-10.65,2.99-.61.1-1.35-.07-1.99,0,.12,3.18,3.51,2.38,1.33,6.66-.21.04-.45-.03-.67,0-3.52.53-1.34.77-2,1.33-.13.11-1.31-.16-1.96.34-6.13,4.78-8.65,11.18-12.68,17.66-4.37.5-11.42,1.08-14.64,3.99l42.89-3.35c19.35-1.44,37.96,1.47,56.77,4.51,20.79,3.36,33.23.35,53.15-2.39,25.79-3.55,50.85-2.15,76.5.5,4.04.42,8.18.72,12.24.73-.87-1.5-3.73-1.91-5.33-2.32-2.27-.58-3.77-.7-5.98-1.01-1.06-4.62-4.85-8.65-7.99-12-.7-1.43-2.64-3.59-3.86-4.66-2.04-1.77-9.24-4.73-7.82-7.36.92-1.7,3.46-.47,3.03-2.65l-7.32-2.01c-.08-.36-.31-.58-.67-.67s-.9.06-1.33,0c-1.21-.6-1.61-1.29-1.33-2.67.2-.06.45.05.67,0,1.08-.24,1.57.64,1.33-1.33h.67c4.96.14,9.84-7.14,14.34-7.97,3.68-.68,10.75-.06,14.09,1.83,6.17,3.49,8.52,15.96,7.36,22.32-.53,2.92-4.03,6.44-3.53,9.16,1.01,5.55,4.82,1.38,7.03-1.02.51-.56.47-1.43.64-1.66.04-.06.95.18,1.35-.45,4.8-7.48,5.51-19.99,2.64-28.21-1.09-3.12-2.87-5.34-4.17-8.49-.42-.42-1.95-.92-2.49-.84v-.67l-.67-.67c-7.01-9.51-29.91-6.17-39.19-.92-2.85,1.61-8.68,6.93-8.73,10.26Z"/><path class="e" d="M303.45,56.67c.19.25.43.46.67.67v.67c-1.25.19-5.13,5.02-7.02,5.34-2.64.45-5.09-1.71-7.95-2.01-6.51-.68-11.9,2.74-16.91,6.4-1.77,1.29-4.72,3.41-5.39,5.6h-1.99s0,1.33,0,1.33c-.21.05-.46-.06-.67,0-1.43.39-2.79.86-2.66,2.66,1.04.61,3.76-.03,3.99,0,.43.06.96-.09,1.33,0l.67.67,7.32,2.01c.42,2.18-2.12.95-3.03,2.65-1.42,2.62,5.78,5.58,7.82,7.36,1.22,1.06,3.16,3.22,3.86,4.66,1.54,3.13,2.23,7.18,2,10.67-2.34-.71-7.73.67-10.21.01-.71-.19-.37-1.34-.44-1.34h-42.59v.67h10.65v.67h-23.29c-.07,0,.28,1.16-.43,1.34-1.02.27-3.58.03-4.89-.01-2.18-.07-5.23.52-6.34-2.03s2.81-4.7,1.35-7.3c-1.3,1.05-1.87,3.32-2.98,4.35-.93.87-2.18.91-2.97,1.69-1.38,1.35-2.51,3.77-4.4,4.93-2.04,1.26-3.56.58-5.29,1.7-8.81.72-16.51.81-25.29,0l-9.66-11.33c-2.71.06.53,3.17.74,3.97.26,1-.42,1.73-.38,2.29.01.21,3.71,2.7-.02,3.07-23.98-2.45-51-4.06-75.86-2.67-.23-4.04,2.83-10.37,5.08-13.84.8-1.24,2.78-1.31,2.24-3.49h2s0-1.33,0-1.33c.22-.03.45.04.67,0,2.33-.46,1.4-1.68,2.95-2.71,1.14-.75,2.76-.44,3.7-1.64l-5.98-2.32c1.72-.29,11.22-.7,10.65-2.99l-10.65-7.01c.56-2.51-.71-1.64-1.43-2.21-3.43-2.72-9.35-5.87-13.73-6.31-5.64-.57-16.08,7.39-17.44-2.81,7.86-8.01,19.15-8.12,29.8-4.85,8.96,2.74,14.35,8.21,19.79,15.52h.98c.58-3,4.41-3.87,6.67-5.33,2.16.14,4.41-.5,6.39-1.24,15.38-5.7,19.78-3.88,35.84-3.4,2.02.06,11.34.53,11.66-1.07.4-2.01-2.43-1.88-1.98-3.62h7.32c3.77.93,6.92,1.92,11.03,1.38,1.21-.16.84-1.2,1.43-1.36,2.91-.78,9.63-2.25,12.55-2.64,1.41-.19,2.86-.02,4.28-.06l.66,4c-.19.3-.81,2.52-.66,2.66,4.19-1.15,7.93-1.67,12.33-1.35,13.65.97,23.68,4.91,35.12,12.02.42.26.49.86.47,1.33l1.33-.33c.14-1.48-.7-2.87-.67-4.33.05-3.33,5.87-8.64,8.73-10.26,9.28-5.25,32.18-8.58,39.19.92Z"/><path class="c" d="M61.22,58.67c1.36,10.2,11.81,2.24,17.44,2.81,4.38.44,10.3,3.59,13.73,6.31.73.58,1.99-.29,1.43,2.21-3.67-.62-6.43-4.21-10.3-4.68-3.41-.41-11.95,1.07-14.34,3.67-.57.62-4,7.32-4.33,8.33-1.4,4.33-1.12,9.94.52,14.18.79,2.05,3.23,4.33,3.22,6.17,0,1.25-2.69,5.38-3.67,4.97-13.07-9.16-14.7-31.22-5.05-43.49.46-.59,1.28-.4,1.34-.47Z"/><path class="b" d="M214.28,106.67c1.31.04,3.87.28,4.89.01.71-.19.36-1.34.43-1.34h23.29v-.67h-10.65v-.67h42.59c.07,0-.28,1.15.44,1.34,2.48.66,7.87-.72,10.21-.01,2.73.82,2.73.87,5.99,1.33,2.21.32,3.71.44,5.98,1.01,1.6.41,4.46.82,5.33,2.32-4.06,0-8.21-.31-12.24-.73-25.65-2.66-50.71-4.05-76.5-.5-19.92,2.74-32.36,5.75-53.15,2.39-18.82-3.04-37.42-5.95-56.77-4.51l-42.89,3.35c3.22-2.91,10.27-3.49,14.64-3.99,1.54-.18,5.62-.57,7.32-.67,24.86-1.39,51.89.22,75.86,2.67.02,2.06,7,1.79,9.32,2,8.78.81,16.47.72,25.29,0,6.1-.5,11.63-1.44,17.65-1.98,1.18-.11,2.29-.23,2.98-1.35ZM253.54,104.67v.67h10.65v-.67h-10.65Z"/><path class="c" d="M304.12,58c.54-.08,2.06.42,2.49.84,1.29,3.15,3.08,5.37,4.17,8.49-.25,1.75-2.66,7.98-2.66,9v11.33c0,1.67-3.44,5.53-1.33,8.33-.18.23-.13,1.1-.64,1.66-2.21,2.4-6.02,6.57-7.03,1.02-.5-2.72,3-6.24,3.53-9.16,1.16-6.36-1.19-18.83-7.36-22.32-3.34-1.89-10.4-2.51-14.09-1.83-4.5.83-9.38,8.11-14.34,7.97.66-2.19,3.62-4.31,5.39-5.6,5.01-3.66,10.4-7.08,16.91-6.4,2.86.3,5.31,2.45,7.95,2.01,1.89-.32,5.77-5.15,7.02-5.34Z"/><path class="c" d="M177.68,54.67h-7.32c-.45,1.75,2.39,1.62,1.98,3.63-.32,1.59-9.65,1.13-11.66,1.07-16.06-.48-20.46-2.29-35.84,3.4-1.99.74-4.24,1.38-6.39,1.24.3-.19.64-.97,1.5-1.47,13.59-7.77,27.68-9.13,43.08-7.21l-.67-2.66c1.68.32,3.38-.66,4.93-.61,3.17.11,7.57,1.92,10.37,2.61Z"/><path class="c" d="M255.54,66c-.02,1.45.81,2.84.67,4.33l-1.33.33c.02-.47-.05-1.07-.47-1.33-11.45-7.11-21.48-11.04-35.12-12.02-4.4-.31-8.14.2-12.33,1.35-.15-.14.47-2.37.66-2.66.07-.11,2.16-1.37,2.29-1.38,3.38-.44,11.12-.24,14.7.02,5.73.42,15.62,3.32,20.87,5.76,3.18,1.48,6.44,4.89,10.05,5.6Z"/><path class="e" d="M310.77,67.33c2.87,8.22,2.16,20.73-2.64,28.21-.4.63-1.31.4-1.35.45-2.11-2.8,1.33-6.66,1.33-8.33v-11.33c0-1.02,2.41-7.25,2.66-9Z"/><path class="c" d="M92.5,86.67v1.33s-2,0-2,0c.55,2.18-1.43,2.26-2.24,3.49-2.25,3.47-5.32,9.8-5.08,13.84-1.7.1-5.78.49-7.32.67,4.03-6.48,6.55-12.88,12.68-17.66.64-.5,1.83-.24,1.96-.34.66-.56-1.52-.81,2-1.33Z"/><path class="c" d="M283.49,94.67c3.13,3.35,6.92,7.38,7.99,12-3.26-.46-3.26-.51-5.99-1.33.23-3.48-.46-7.53-2-10.67Z"/><path class="c" d="M93.83,80l5.98,2.32c-.94,1.19-2.55.88-3.7,1.64-1.55,1.02-.62,2.25-2.95,2.71,2.18-4.28-1.2-3.48-1.33-6.66.64-.08,1.38.1,1.99,0Z"/><path class="c" d="M264.19,74.67c-.28,1.38.12,2.06,1.33,2.67-.23-.03-2.94.61-3.99,0-.13-1.81,1.23-2.27,2.66-2.66Z"/><path class="c" d="M266.19,73.33c.24,1.97-.25,1.09-1.33,1.33v-1.33s1.33,0,1.33,0Z"/><path class="c" d="M267.52,78l-.67-.67c.36.09.58.3.67.67Z"/><path class="c" d="M304.12,57.33c-.24-.2-.48-.41-.67-.67l.67.67Z"/><path class="c" d="M214.28,106.67c-.69,1.12-1.8,1.25-2.98,1.35-6.02.54-11.55,1.49-17.65,1.98,1.73-1.12,3.25-.44,5.29-1.7,1.88-1.16,3.02-3.58,4.4-4.93.79-.78,2.04-.82,2.97-1.69,1.11-1.03,1.68-3.3,2.98-4.35,1.45,2.6-2.43,4.84-1.35,7.3s4.17,1.96,6.34,2.03Z"/><path class="c" d="M168.36,110c-2.31-.21-9.29.06-9.32-2,3.72-.37.03-2.86.02-3.07-.04-.56.64-1.29.38-2.29-.21-.8-3.45-3.91-.74-3.97l9.66,11.33Z"/><rect class="e" x="253.54" y="104.67" width="10.65" height=".67"/><path class="b" d="M310.77,114.67c.47.69.99,1,1.33,2-3.02.61-7.18.22-10.31,0-24.66-1.76-48.96-4.71-73.9-3.36-21.51,1.17-38.95,10.49-61.7,5.87-2.94-.6-5.97-2.18-9.14-2.85-26.58-5.57-52.26-2.17-78.87-.33-7.65.53-15.35-.24-22.95,1.34.18-.72.52-.97.67-1.33,5.08-1.08,10.47-2.12,15.64-2.66,25.09-2.6,55.38-4.59,80-.16,8.97,1.61,17.84,4.72,27.1,4.85,18.53.24,32.78-6.43,50.58-7.39,27.05-1.45,54.65,1.84,81.55,4.03Z"/><path class="b" d="M77.19,140c0-.08.68-.58.65-1.55-.14-4.42-4.09-9.63,1.33-13.47,2.77-1.97,3.78-1.02,6.2-1.67.55-.15.44-1.17.93-1.29,2.85-.69,15.1.1,18.48.68,1.6.27,3.32,2.16,5.69,1.31.33.31-.75,5.11-1.06,5.94-.99,2.61-3.37,4.19-4.52,6.14-.78,1.32-1.42,4.08-1.74,4.59-3.29,5.12-8.02,9.03-11.29,13.69-1.12,1.59-6.83,14.67-9.34,12.31-.95-5.44-2.76-10.63-4-16l.66-1.33h-1.33c-.37-1.83-.57-3.47-.67-5.34l.66-.99-.66-.34c0-.89-.02-1.78,0-2.67Z"/><path class="b" d="M244.22,121.34c.08,1.22-.68,2.08-1.34,2.99-2.65,3.65-7.44,7.24-10.41,10.57-7.02,7.88-14.55,16.74-18.94,26.35-.58.36-1.97.15-2.6-.23-2.4-1.46-5.16-19.24-5.34-22.71-.08-1.58.94-3.23.71-4.53-.09-.51-1.31-.16-1.43-1.41-.76-8.32,11.73-10.21,17.79-10.95,2.79-.34,7.05-.69,9.87-.78,1.79-.06,11.04-.2,11.68.71Z"/><path class="c" d="M204.3,168.67c-1.51-.35-3.96.24-5.63.05l-.4-1.97c-1.75.28-3.18-.49-4.62-.74l5.32-.33c-2.97-4.79-4.23-10.83-5.69-16.3-.33-1.22-.04-3.2-.44-3.9-.18-.31-1.61-.66-2.21-1.43-1.75-2.23-1.89-4.9-5.15-4.02-.5.14-.47,1.09-1,1.25-1.57.47-3.67.33-4.96.78-3.66,1.26-4.79,12.5-6.03,16.09-.71,2.05-2.58,6.55-4.4,7.3-.18.41.59.44.6.56.05.43-.02.89,0,1.33-.31.23-5.65.37-6.66.67-1.05-2.13,1.86-4.32,2.78-6.21,3.84-7.89,5.97-16.65,8.22-25.09,4.31-4.1,16.83-3.83,19.89,1.36,2.85,10.59,4.56,21.11,10.36,30.62Z"/><path class="b" d="M285.48,132.67l1.96,1.61c-.82,8.47-1.15,16.28-3.48,24.53-2.55,9-6.23,15.29-15.42,18.55-9.5,3.37-22.59,3.89-32.55,2.56-6.44-.86-12.79-2.64-17.05-7.91,3.54.67,6.42,2.63,9.97,3.67,15.56,4.54,38.77,3.37,49.14-10.79,2.79-3.81,7.43-15.36,7.43-19.89v-12.33Z"/><path class="c" d="M77.19,140c-1.98.39-1.21-.96-1.42-2.21-.81-4.84-1.17-9.35,1.19-13.85,3.56-1.22,6.82-2.72,10.63-3.19,10.83-1.33,21.1-.29,31.86.59.98.08,1.93-.54,1.66.98l-17.96,18.34c.33-.51.96-3.27,1.74-4.59,1.15-1.94,3.53-3.52,4.52-6.14.31-.83,1.4-5.62,1.06-5.94-2.37.85-4.09-1.03-5.69-1.31-3.38-.58-15.63-1.37-18.48-.68-.49.12-.39,1.14-.93,1.29-2.43.65-3.43-.3-6.2,1.67-5.41,3.84-1.47,9.06-1.33,13.47.03.98-.64,1.47-.65,1.55Z"/><path class="b" d="M147.73,170.67c2.94,2.96-13.72,8.06-15.27,8.36-12.98,2.55-33.82,2.41-43.95-7.37,2.88-.78,6.05,2.05,8.85,3.15,13.01,5.11,29.95,4.68,43.4-.79,1.24-.51,6.2-4.12,6.97-3.35Z"/><path class="c" d="M77.19,144c-.04-.72,0-.88,0-1.33l.66.34-.66.99Z"/><path class="c" d="M77.86,149.33h1.33s-.66,1.33-.66,1.33c-.02-.07-.46-.32-.67-1.33Z"/><path class="e" d="M169.69,166c-.01-.12-.78-.15-.6-.56,1.82-.74,3.69-5.25,4.4-7.3,1.24-3.59,2.37-14.82,6.03-16.09,1.28-.44,3.39-.31,4.96-.78.52-.16.5-1.11,1-1.25,3.27-.89,3.4,1.78,5.15,4.02.6.77,2.03,1.12,2.21,1.43.4.7.11,2.68.44,3.9,1.46,5.47,2.73,11.51,5.69,16.3l-5.32.33c-1.76-.31-4.73-.27-6.18-.7-.6-.18-.21-1.18-1.43-1.35-2.16-.31-8.43,1.65-11.7,2.05-.61-1.19-2.54-.86-3.33,0-.31-.12-.92.08-1.33,0Z"/><path class="e" d="M308.77,199.33c-3.08-5.48-7.09-13.17-14-13.73-2.54,1.77-.22,13.25-2.3,16.4-1.26,1.9-2.82-.66-3.99-.66-3.51,0-2.63,3.26-3.17,4.81-2.61,7.48-7.09,18.8-13.11,24.06-.75.65-1.1.5-2.02.45.12-6.27.13-12.7-2.05-18.62h-1.89c-2.48,9.56-5.84,20.92-12.51,28.43-.39.44.04,1.28-1.52.85l-.68-20.87c-2.04-1.48-1.49-6.02-2.3-9.14-.59-2.29-5.74-15.9-5.01-16.65,10.08,1.03,21.81.71,31.07-3.88,15.91-7.89,23.02-31.22,26.17-47.46,1.72-.28,1.03.18,1.39.94.89,1.91.78,4.26,1.32,5.89,4.96,15.12,6.81,31.06,5.29,47.51-.06.7.3,1.68-.68,1.66Z"/><path class="h" d="M174.35,166c3.27-.4,9.53-2.36,11.7-2.05,1.22.18.83,1.17,1.43,1.35,1.44.43,4.42.39,6.18.7,1.44.25,2.87,1.02,4.62.74l.4,1.97c1.66.19,4.12-.4,5.63-.05,1.74.41,3.46,3.91,4.73,4.93,3.01,2.42,8.84,4.81,12.57,7.74-1.41,1.11-1.45.13-.79,1.77,7.06,17.56,10.86,35.35,8.78,54.57-.36,3.29-3.64,11.27-6.67,12.65-4.85,2.21-26.49-5.39-29.5-9.82-1.98-2.91-.82-6.53-1.1-9.83.44.03.9,0,1.34-.01.04-.42-.67-.59-.67-.65-.02-1.66,4.78-2.24,6.16-2.83,15.68-6.62,18.32-23.15,11.14-37.17-1.5-2.93-1.26-3.42-4.66-5-10.15-4.72-28.28-3.77-39.03-1.09-1.44.36-2.14-.51-.9,1.43-2.86.9-9.7,6.14-10.95,8.7-2.19,4.51-1.16,17.53,1.07,22.19,4.35,9.09,12.03,9.88,19.85,13.11-2.76,1.26.13,1.57.53,3.13,1.5,5.95-2.01,8.47-6.31,11.41-6.6,4.51-15.8,7.49-23.86,6.81-7.33-.62-9.34-5.8-10.23-12.41-1.5-11.14.71-28.88,4.27-39.61,2.13-6.43,7-13.17,7.65-20,2.46-1.74,13.79-10.22,15.31-10.67,1-.3,6.35-.44,6.66-.67-.02-.44.04-.9,0-1.33.41.08,1.02-.12,1.33,0,2.78,1.04,1.9.18,3.33,0Z"/><path class="h" d="M192.32,230v.67c-.57-.04-1.14-.01-1.33-.67.34-.11.92.07,1.33,0Z"/><path class="f" d="M190.99,230c.19.65.76.62,1.33.67.28,3.3-.88,6.92,1.1,9.83,3.01,4.43,24.65,12.03,29.5,9.82,3.03-1.38,6.31-9.36,6.67-12.65,2.08-19.22-1.72-37.01-8.78-54.57-.66-1.63-.62-.66.79-1.77,13.82,10.84,21.57,53.22,13.18,68.2-1.28,2.29-6.58,7.1-8.99,7.65-3.86.88-8.35-.38-11.96-1.74-4.63-1.75-23.36-10.29-25.78-13.51-2.77-3.69-1.82-10.4,2.94-11.94Z"/><path class="f" d="M192.98,230c0,.06.72.23.67.65-.44,0-.9.05-1.34.01v-.67h.67Z"/><path class="f" d="M157.05,258.67c1.22,4.51,1.58,7.25,5.47,10.17,8.37,6.27,22.04,8.96,31.95,5.65,3.01-1.01,12.98-6.32,14.51-8.8,1.61-2.6.22-4.77,4.64-5.69.87.22,5.12.49,5.31.68.78,15.05-18.09,16-26.12,24.88l-9.46,5.65c-3.27-2.18-6.52-4.39-9.81-6.54-4-2.6-6.99-3.94-11.17-6.33s-11.65-6.04-13.5-10.47c-.57-1.35-1.97-5.66-1.2-6.77,2.93-1.43,6.31-1.55,9.39-2.44Z"/><path class="f" d="M147.73,178.67c-.65,6.83-5.52,13.57-7.65,20-3.56,10.73-5.77,28.47-4.27,39.61.89,6.62,2.9,11.79,10.23,12.41,8.06.68,17.26-2.3,23.86-6.81,4.3-2.94,7.81-5.46,6.31-11.41-.39-1.57-3.29-1.88-.53-3.13,11.62,4.8,5.23,13.66-3.09,17.91-4,2.04-22.7,10.35-25.97,10.51-9.11.44-13.99-4.79-16.53-13.08-5.27-17.23,2.36-55.19,17.64-66Z"/><path class="b" d="M208.73,217.11c-3.03,3.67-12.92,4.37-17.06,2.54-3.53-1.57-5.81-10.65-5.35-14.32h-1.97c-.9,4.65-4.82,12.51-9.36,14.31-2.22.88-10.16.87-12.46-.14-3.07-1.35-4.25-5.75-4.15-8.84,2.11,2.21,1.88,4.32,4.73,6.25,5.45,3.68,11.52,1.36,14.26-4.22,1.24-2.52,3.4-9.76,2.96-12.34-.88-5.14-15.81-4.75-19.08-1.47-1.15,1.16-1.45,2.88-2.06,4.3-.41.96.43,1.82-1.49,1.47-.46-6.03-.31-8.9,5.31-11.67,9.67-4.77,32.85-5.19,42.54-.61,3.83,1.81,3.99,4.22,4.63,8.03.74,4.44,1.54,13.05-1.47,16.69ZM205.43,198.87c-3.48-2.74-11.83-2.69-15.59-.41-5.77,3.49.78,18.11,5.83,19.84,3.39,1.17,10.68-.93,12.11-4.47s.83-12.45-2.35-14.96Z"/><path class="d" d="M177.01,254c5.6.15,12.35,1.82,17.97,0,5.08,1.09,9.17,3.17,13.97,4.67-2.31,2.32-4.56,5.36-7.83,6.49-4.68,1.61-19.92,1.98-25.14,1.53-6.11-.52-10.6-2.26-13.62-7.69l2-.33-1.34-2c5.29-1.39,8.19-2.82,13.97-2.67Z"/><path class="h" d="M163.04,256.67l1.34,2-2,.33c3.01,5.44,7.5,7.18,13.62,7.69,5.22.44,20.45.08,25.14-1.53,3.27-1.13,5.52-4.17,7.83-6.49,1.49.46,3.15.96,4.66,1.33-4.42.92-3.02,3.08-4.64,5.69s-11.5,7.79-14.51,8.8c-9.91,3.31-23.58.62-31.95-5.65-3.89-2.92-4.25-5.66-5.47-10.17,2.01-.58,3.97-1.47,5.99-2Z"/><path class="d" d="M210.29,190c-3.47-3.48-7.11-4.79-11.84-5.8-10.42-2.23-22.53-2.07-32.74,1.14-1.25-1.93-.55-1.07.9-1.43,10.75-2.67,28.88-3.63,39.03,1.09,3.4,1.58,3.16,2.06,4.66,5Z"/><path class="h" d="M194.98,254c-5.62,1.82-12.36.15-17.97,0,4.8-2.8,12.67-1.13,17.97,0Z"/><path class="c" d="M174.35,166c-1.43.18-.54,1.04-3.33,0,.79-.86,2.71-1.19,3.33,0Z"/><path class="g" d="M205.43,198.87c3.18,2.51,3.76,11.45,2.35,14.96s-8.72,5.64-12.11,4.47c-5.05-1.73-11.6-16.35-5.83-19.84,3.77-2.28,12.11-2.33,15.59.41Z"/><path class="i" d="M260.86,324.67c-6.08-.99-6.56-5.25-5.99-10.67.17-1.02.55-1.49.67-2l.83.5.83-1.84c.56,2.44,1.24.7,2.65.8,2.75.2,3.43,1.44,5.69-1.13-1.54-3.55-4.85-3.8-8-5,1.56-3.72,6.62-13.73,11.47-12.52,1.09.27,2.95,1.67,3.17,2.85,1.64,8.62-4.1,12.23-7.58,19.09-1.53,3.01-2.8,6.68-3.74,9.92Z"/><path class="i" d="M310.77,293.33c-1.92,3.13-5.59,5.89-5.99,10-.9.43-1.46.99-2.66.67-.03-.13-1.9-.93.69-1.67-.8-1.72-1.66-2.56-1.43-4.67.15-1.41,3.84-2.34,2.07-5.66,3.51-7.41,1.87-15.09,0-22.67,2.25-1.21,5.55.42,6.65-2,4.73,5.96,4.56,19.66.67,26Z"/><path class="i" d="M216.28,350c.12-.15-.26-1.18.2-1.78,1.03-1.36,2.85-2.91,3.77-4.6,3.59.48,5.63,5.39,4.56,8.63-.34,1.03-2.29.83-2.55,3.42-.36,3.61,3.65-1.73,4.04-1.96,1.55-.93,3.77-.96,5.54-1.78,2.11-.97,7.61-6.07,9.05-7.93l4.33,4c.15.07.83-1.03.99-1.33l1.33.67c-1.85,2.8-2.2,3.56-4.66,6-3.19.57-5.98,3.47-8.86,4.79-1.61.74-5.33.42-5.12,2.54-1.33.01-3.08-.99-4.94-.04-.78-1.39-1.45-2.64-2.38-3.96-.37-.52-1.19-1.03-1.78-1.88-1.33-1.93-.78-4.07-3.55-4.79Z"/><path class="i" d="M139.08,323.33c1.9.23,1.2,1.4,1.65,1.34l2.34-1.34c-.61,3.24,2.94,2.22,5.15,3.18.86.37,6.15,4.72,6.15,5.16-.98,1.6-1.89,1.36-3.32,1.67-.39.08-.9-.06-1.33,0-.26.24.65,1,.66,1.33-2.75,2.38-4.11.45-6.48.15-5.04-.64-9.52-.55-14.48-.83-3.24-.18-6.46-1.51-9.93-.11-4.33-4.01,1.37-7.1,4.93-8.55h2.66s.8,6.54.8,6.54c3.03,1.49,5.66.03,8.79.16l1.15-5.73-1.41-1.63,2.66-1.34Z"/><path class="i" d="M296.8,304c-4.11.98-.15-4.48-3.32-4-.89,1.17.82,8.45.65,10.27-.27,3-5.09,9.64-6.94,11.76-.77.89-2.21,2.45-3.36,2.65l-1-3.34c1.56-.66,1.93,3.45,2.62.38l-1.3-3.05c-.09-.1-1.07.47-1.32.67.47-.58,2.26-4,1.33-4.67,2.14-3.3,3.27-5.38,3.99-9.33l1.33.99c.8-4.89.96-9.44,0-14.33.11-.24-.19-.86.06-1.25,2.92-.55,5.74,1.11,7.62,3.27-.29,3.48.09,6.46-.36,9.99Z"/><path class="i" d="M282.16,320c-.87,1.8-.87,5.19-.77,7.24l-2.55.75c2.07-1.85.99-5.55,1.42-6.89.4-1.26,1.69-.9,1.91-1.1Z"/><path class="i" d="M282.16,320c.08-.17.47-.51.67-.67-.19.24-.44.46-.67.67Z"/><path class="i" d="M148.4,352l1.99,1.33h-3.33c.07,2.51-.81,6.84,2.67,7.34-1.93.46-2.52,1.57-5.68,1.39-4.29-.25-19.67-6.51-20.29-11.05-.27-1.97,1.64-.29,2.93-.4,1.91-.16,5.06-1.27,6.77-1.18,3.88.19,9.28,4.28,14.94,2.57Z"/><path class="i" d="M52.57,242c.22,1.24-.56,2.53-.53,3.66.11,6.08-.17,10.94,1.79,16.78.49,1.46-.58,1.88,2.07,1.57.09.17-.1.5,0,.67-4.44.26-3.37,2.96-5.99,5.33-3.92-5.71-5.96-11.84-5.31-18.99.3-3.31,3.94-13.59,7.98-9.01Z"/><path class="i" d="M122.45,348c-.88,1.16-3,.74-4.24.58-9.92-1.23-17.26-7.12-23.03-14.92,0-.85,8-1.79,8.82-1.57.23.06,3.14,2.1,3.98,2.6.66.4,3.45,2.6,3.99,2.83,2.24.95,4.46.8,6.49,1.81-.89.02-1.78-.02-2.66,0l.09,5.58c.53,1.58,4.42,1.83,5.89,1.76l-1.32,1.32c.66.02,1.33,0,1.99,0Z"/><path class="i" d="M263.52,330.67c2.31.69,6.56,2.52,6.65,5.33-.65.79-1.22,2.74-2.4,3.93-4.55,4.56-10.62,7.92-16.89,9.4,1.02-4.16,2.85-8.15,5.43-11.55,2.09-2.75,5.31-4.8,7.21-7.11Z"/><path class="i" d="M65.22,302c-7.81-5.5-11.49-13.94-12.64-23.33.27-.29,7,2.76,7.3,3.01.84.72.95,2.5,1.72,3.61,2.38,3.46,4.24,5.55,7.62,8.04-1.96,1.68-2.73,2.44-2.78,5.26l-1.88.08.67,3.33Z"/><path class="i" d="M314.1,238.67l1.99-1.33c5.8,10.89,5.87,21.74,2,33.33-.99-.65-3.57-4.14-3.68-4.98-.43-3.29.68-9.35.36-13.36-.14-1.78-1.14-3.18-1.3-4.73-.27-2.56,1.41-4.87-.04-6.93.21-.67.45-1.33.67-2Z"/><path class="i" d="M76.53,307.33c-.56,4.81.59,2.55,2.65,3.66.94.51,1.24,1.93,2.05,2.64.86.76,2.53.92,2.62,1.03.56.7-1.12.58,1.33,1.33.09.29-.2.89.07,1.24l2.59.09c.81.38,1.64,1.19,2,1.33l-2.21,2.14c-1.32,2.64.33,5.46,2.42,7,.63.46,1.53.06,1.79.2l-1.33,2c-1.02-.25-11.3-6.37-11.76-6.89-2.02-2.31-5.16-9.98-6.21-13.11l2.68-.28c.72-.49.69-1.59.65-2.39h.67Z"/><path class="i" d="M210.29,356c.64,1.33.46,4.43,2.16,5.12,3.1,1.25,1.98-2.34,4.49-.45-4.36,3.47-5.04,4.43-10.65,6-4.63-.21-9.36.28-13.97,0-1.26-.08-2.42-.09-3.61-.63l-.38-1.36c2.53-.81,4.07-2.22,6.65-3.34,3.54-.4,10.52,0,11.98-4,.9-.4,2.83-1.02,3.33-1.33Z"/><path class="i" d="M290.14,266.67c.11-1.46-.43-3.07.62-4.38l10.03-6.28c-.52,2.61-1.31,6.4-1.38,8.98-.1,4.12,1.52,9.61,1.43,14.01-.03,1.7-.85,3.28-.72,5-.6.06-.98-.51-1.33-.67,1.09-.54.6-2.26.66-3.33l-4.66.66c-.35-.28-1.04-.39-1.33-.67-.22-.21-.43-.51-.67-.67-.4-.27-.91-.42-1.33-.67-.28-.94-.43-1.9-.67-2.67-.33-5.32,3.48-3.15,6.57-4.09l.74-6.58-5.61-1.38-2.38,2.7Z"/><path class="i" d="M169.03,341.33c-.8-.07-3.85-1.26-4.66-1.33,0-3.16.08-6.14-2.66-8,1.83-.63,4.36-2.04,6.12-1.88,2.16.2,13.17,4.01,13.16,6.22-4.11,4.16-5.91,5.57-11.96,5Z"/><path class="i" d="M193.65,343.33c-3.05-.81-1.65-2.36-2.28-4.74-.32-1.2-2.35-1.73-2.38-3.92.2-.12.45-.91,1.07-1.24,4.43-2.32,12.35-2.96,16.23.92l-4.65,7.33c-3.14.25-5.09.5-8,1.65Z"/><path class="i" d="M113.13,308.67c6.35,1.86,8.05,4.15,12.68,8.3,1.45,1.29,3.41,1.03,3.95,4.04-2.47-.7-7.52,2.32-8.88,2.19-1.03-.1-5.27-3.27-7.09-3.86l1.33-.66c-3.18.53-2.09-2.05-1.99-4.01.05-.88-.05-1.78,0-2.67.03-.5.57.16,0-2-.1-.37.06-.91,0-1.33Z"/><path class="i" d="M234.24,325.33c-.26,3.06,4.61,3.49,7.32,4.67.47.2,1.8-.53,1.34,1-.17.56-1.08.08-1.32.81-.31.92.1,1.89-.63,3.25-.87,1.61-5.55,8.31-7.05,8.3-6.25-.03-2.26-13.48-.84-16.89.3-.72,1.1-.98,1.18-1.13Z"/><path class="i" d="M176.35,358c2.96.83,2.41,3.4,2.75,5.95l1.93.06c.03.45-.65.55-.68.66-1.93-.47-3.42,1.08-5.03,1.3-6.4.84-11.6-1.05-17.59-2.64v-1.99c2.18-.69,5.44-2.38,7.02-2.63,3.78-.59,7.29.16,11.6-.71Z"/><path class="i" d="M216.28,340.67c-.41.5-.52,1.81-.67,1.99-.68.83-.41-2.35-1.97-1.31-1.22.81-.94,3.18-1.03,3.34-.21.38-1.27.56-1.66,1.14-1.15,1.69-2.56,3.62-3.32,5.49l-3.32-2c-2.31-6.54,2.59-12.51,7.32-16.67,1.02,3.13,4.9,4.36,4.66,8Z"/><path class="i" d="M182.34,339.33l5.99,6.67c-3.04,2.03-12.1,12.96-13.24,3.6-.76-6.19,3.27-7.13,7.26-10.27Z"/><path class="i" d="M57.23,266.67c1.5,1.52,8.9,5.65,9.18,6.13.87,1.49-.7,4.27-1.31,5.75-6.23.96-9.42-1.63-13.2-5.88l5.32-6Z"/><path class="i" d="M78.52,268c2.99,4.28,5.31,9.46,5.99,14.66l-8.01-.97c-1.19-2.42-2.29-5.59-3.96-7.7-.21-3.32,4.26-3.8,5.99-6Z"/><path class="i" d="M273.51,332c-.07-4.31-.53-4.61-4.38-6.62l-.93-.03c.06,2.37-.69,1.14-1.35-.02,1.29-3.34,1.29-8.41,2-12,7.47.85,7.19,6.78,6.64,12.99-.27,3.05-.93,3.55-1.98,5.68Z"/><path class="d" d="M69.21,293.33c2.05,1.51,3.31,2.3,5.99,3.33l-.6,1.61c1.68,2.56-1.49,4.2-.73,7.05,2.04.39,3.99-.32,5.86-.48,1.27-.11,2.45-.97,2.13,1.14-.12.09-2.44,1.25-2.66,1.33-1.01.37-1.54.89-2.66,0h-.67c-.03-.61.17-1.19-.67-1.33-4.28.13-6.78-1.75-9.98-4l-.67-3.33,1.88-.08c.05-2.81.82-3.58,2.78-5.26Z"/><path class="i" d="M123.11,339.33c3.65-.49,7.89-2.83,11.98-2,1.58,8.19-4.59,9.91-11.32,10.67l-.67-8.67Z"/><path class="i" d="M95.83,291.33c1.8,1.36,8.85,11.42,7.99,12.66-2.05.51-5.56,1.21-7.52.68-.45-.12-4.92-5.65-6.46-6.68,3.3-.79,5.12-3.51,5.99-6.67Z"/><path class="d" d="M139.08,323.33l-2.66,1.34,1.41,1.63-1.15,5.73c-3.12-.13-5.75,1.32-8.79-.16l-.8-6.53h-2.66c4.79-1.95,9.42-2.63,14.64-2Z"/><path class="i" d="M217.61,328.67c1.14-.65,6.04-3.31,6.42-3.36,1.29-.15,3.28,1.17,5.13.71.78-.19,0-1.64,1.09-1.35.09,1.8-.95,6.94-1.93,8.23-.4.53-3.76,1.53-4.72,1.77-.05.01-.38-.59-.86-.5-.86.18-1.81,1.54-3.13,1.16-.56-2.12-.88-4.07-3.29-4.7l1.29-1.97Z"/><path class="h" d="M315.43,236l.67.67c6.87,8.69,7.18,19.64,4.34,30.02-.35,1.28-2.22,7.71-3.67,6.65.11-2.9-3.72-5.87-4.35-7.67-.43-1.22,1.77-6.75,1.74-9.32-.04-3.39-2.71-9.52-2.72-11l1.33-1.33c.25-.79.25-2.03.67-3.33,1.44,2.05-.24,4.37.04,6.93.16,1.55,1.16,2.95,1.3,4.73.31,4.01-.8,10.07-.36,13.36.11.84,2.69,4.33,3.68,4.98,3.87-11.59,3.8-22.44-2-33.33l-1.99,1.33c.29-.92.27-2.31.67-3.33.73-.12.62.63.66.67Z"/><path class="d" d="M113.13,308.67c.06.42-.1.97,0,1.33-.82.66-.8,1.33,0,2-.05.88.05,1.78,0,2.67-2.3.02-1.35,3.14-4.28,1.32l-.4,1.33-.98.03c-.97-2.23-4.35-1.32-5.66-4.01.37-1.53.61-2.39,0-4,1.36-.14,3.12.77,2.66-1.33l-5.32-.67c4.33-.71,9.81.11,13.97,1.33Z"/><path class="i" d="M278.83,283.33c1.26-2.07,1.53-1.71,2.46-2.86,1.64-2.03,2.21-5.55,6.13-5.09,2.92,4.59,2.88,10.31-1.27,13.95-.06-1.46-2-3.83-3.36-4.33s-2.73,1.03-3.96-1.67Z"/><path class="d" d="M74.53,264c1.14,1.12,3.09,2.7,3.99,4-1.73,2.2-6.2,2.68-5.99,6-1.93-2.43-5.67-4.53-7.99-6.67.4-1.82,1.17-3.09,2-4.67,2.97-.5,4.89,2.09,7.99,1.33Z"/><path class="d" d="M278.83,283.33c1.22,2.71,2.6,1.18,3.96,1.67s3.3,2.87,3.36,4.33c.07,1.54-.98,3.49-1.33,5.33l-2.31,1.33c-3.17-.39-4.25-4.56-7.01-3.33.54-4,1.12-5.7,3.33-9.33Z"/><path class="i" d="M187,362.67c-1.03-1.96-.99-4.41-.06-6.38-2-.38-.27-1.4-1.27-2.28,1.32-.93,5.31-5.43,6.23-5.28,6.94,7.39,1.52,10.49-4.89,13.95Z"/><path class="d" d="M156.38,350c-.26.62-1.23,1.47-1.33,2-.07.34-.04.95,0,1.33.15,1.42,1.14,2.54,1.33,4,.06.43-.04.9,0,1.33-2.82,1.11-3.79,1.32-6.65,2-3.47-.5-2.6-4.83-2.67-7.34h3.33s-1.99-1.33-1.99-1.33c2.81-.85,5.04-1.23,7.99-2Z"/><path class="d" d="M216.28,350c2.76.72,2.21,2.86,3.55,4.79.59.85,1.41,1.36,1.78,1.88-1.13,2.2-3.12,2.78-4.66,4-2.51-1.89-1.39,1.71-4.49.45-1.71-.69-1.52-3.79-2.16-5.12.76-.47,5.36-5.21,5.99-6Z"/><path class="d" d="M89.84,318.67c1.91.77,5.23,1.07,7.32,2-.19,0-4.16.63-3.32,2h3.32s.67,3.34.67,3.34c-.17.62.22,1.54-.67,2-3.39-.28-3.52,1.5-4.32,1.35-.43-.08-.63-1.15-1-1.35-.25-.13-1.16.27-1.79-.2-2.1-1.54-3.74-4.37-2.42-7l2.21-2.14Z"/><path class="i" d="M78.52,293.33c1.39-1.96.2-.98-.66-1.64-1.46-1.11-3.24-1.33-2.61-3.94.75-2.23,7.8-1.96,9.28-.75.95.77-.02,3.04,2.65,2.33l-2.01,3.66,2.01,1.67c-.14.78-1.12,1.52,0,2.67-3.37-1.87-5.54-2.48-8.65-4Z"/><path class="d" d="M240.23,319.33c1.55.8,4.46,2.76,3.99,4.67-.14.16-.04,1.39-1.34,1.74l.68,2.26c-.61.74-1.22,1.44-2,2-2.71-1.18-7.58-1.6-7.32-4.67.77-1.51.63-2.25,2-4,.59-.76,1.75-1.75,2.41-2.61.64-.08,1.07.34,1.58.61Z"/><path class="i" d="M99.15,307.33l5.32.67c.46,2.1-1.3,1.2-2.66,1.33.62,1.61.37,2.46,0,4-.16.65-1.09,1.54-.67,2.67l-7.32-1.34c-.95-.47-3.6-.04-3.27-2.62,2.22-1.66,5.81-4.26,8.6-4.72Z"/><path class="i" d="M275.5,292.67c2.76-1.23,3.84,2.95,7.01,3.33l2.31-1.33c-.47,2.49-.94,4.81-1.33,7.33l-1.27-.09-.07-1.91c-1.39-1.39-3.1,2.18-3.32,3.33-5.74-1.19-3.91-6.35-3.33-10.67Z"/><path class="d" d="M185.66,354c1,.88-.73,1.91,1.27,2.28-.93,1.97-.97,4.42.06,6.38-2.61,1.4-3.16,1.69-5.99,2.67-.39.15-.72-.48-.67-.67.03-.1.71-.21.68-.66l-1.93-.06c-.34-2.55.21-5.12-2.75-5.95,3.36-.68,6.54-2.03,9.32-4Z"/><path class="d" d="M161.71,332c2.74,1.86,2.66,4.84,2.66,8-4.27-.41-4.61,1.3-5.63,1.4-2.14.21-5.4-1.27-4.94-3.65.29-1.47,3.44-1.29,2.58-3.75,1.67-.48,3.5-1.38,5.32-2Z"/><path class="i" d="M81.85,306c.32-2.11-.85-1.25-2.13-1.14-1.87.16-3.82.87-5.86.48-.76-2.85,2.41-4.49.73-7.05l.6-1.61c1.79.69,8.25,2.08,9.02,3.32,1.24,1.99-.74,4.83-2.36,6.01Z"/><path class="d" d="M188.99,334.67c.03,2.19,2.06,2.72,2.38,3.92.63,2.39-.77,3.93,2.28,4.74-1.27.5-4.26,1.96-5.32,2.67l-5.99-6.67c2.41-1.9,3.97-3.08,6.65-4.67Z"/><path class="d" d="M266.85,325.33c.66,1.16,1.41,2.39,1.35.02l.93.03c3.85,2.01,4.31,2.31,4.38,6.62-1.49,3.01-2.26,2.7-3.33,4-.1-2.81-4.35-4.64-6.65-5.33.7-.86,2.96-4.38,3.33-5.33Z"/><path class="h" d="M151.06,333.33v1.33c2.04.32,3.45-.13,5.32-.66.87,2.46-2.29,2.28-2.58,3.75-.46,2.38,2.79,3.86,4.94,3.65,1.02-.1,1.36-1.81,5.63-1.4.81.08,3.86,1.26,4.66,1.33-6.14.76-10.89,1.89-16.64,4l2.65-2.65-4.64-3.35,1.99-1.99c-.91.07-1.78.42-2.66.66-.84,2.32-4.17,3.65-3.36,6.87.03.13,1.89,1.77,2.02,1.8-4.61.06-3.6-5.46-1.37-7.71,1.15-1.16,1.66-.67,2.7-.96.33-.92.71-2.37.67-3.33-.02-.32-.93-1.08-.66-1.33.43-.07.94.08,1.33,0Z"/><path class="d" d="M118.45,339.33c1.48-.03,3.27.19,4.66,0l.67,8.67c-.43.05-.9,0-1.33,0-.66,0-1.33,0-1.99,0l1.32-1.32c-1.47.06-5.36-.18-5.89-1.76l-.09-5.58c.88-.02,1.78.02,2.66,0Z"/><path class="d" d="M290.14,266.67l2.38-2.7,5.61,1.38-.74,6.58c-3.09.94-6.9-1.24-6.57,4.09-.43-1.39-.67-2.51-2.01-3-.32-1.53,1.16-.68,1.35-1.43.32-1.21-.12-3.41-.01-4.9Z"/><path class="i" d="M97.82,326c.43-1.57.9-1.88,0-4h8.65s-1.93.72-1.93.72l-.06,2.61h2.66s2-2,2-2c-.61,2.37-.5,3.21-2.66,4.67-1.87-.93-4.43.82-7.04.74-1.23-.04-2.06-.72-2.28-.74.88-.46.5-1.38.67-2Z"/><path class="d" d="M95.83,291.33c-.87,3.16-2.69,5.87-5.99,6.67-.5-.34-2.01-.31-2.66-.67-1.12-1.15-.14-1.88,0-2.67.57-3.26.24-5.19,3.99-6,1.28.72,3.67,1.92,4.66,2.67Z"/><path class="i" d="M161.04,347.33c2.95.8,2.91,2.6,2.66,5.33-1.77-.31.72-4.03-1.99-3.32.67,1.11-.19,2.86-.03,3.56s2.02,0,1.36,1.76l-6.65,2.67c-.2-1.46-1.19-2.58-1.33-4l1.33-.34v-.99s-1.33,0-1.33,0c.11-.53,1.07-1.38,1.33-2,1.8-.47,3.2-1.59,4.66-2.67Z"/><path class="d" d="M217.61,328.67l-1.29,1.97c2.41.63,2.73,2.58,3.29,4.7.14.52.99,1.16.54,1.87-1.92.31-2.15,2.55-2.72,3.25-.32.39-1.09.13-1.15.2.24-3.64-3.64-4.87-4.66-8,2.43-2.14,3.42-2.54,5.99-4Z"/><path class="d" d="M248.88,340c1.96,2.64-.77,2.86-1.74,4.25-.5.72-.51,1.67-.93,2.41-.16.3-.84,1.4-.99,1.33l-4.33-4c.41-.53,3.84-5.67,3.99-6,1.05.5,3.35,1.13,3.99,2Z"/><path class="d" d="M257.53,305.33c3.15,1.2,6.46,1.45,8,5-2.26,2.57-2.94,1.33-5.69,1.13-1.41-.1-2.09,1.64-2.65-.8l-.83,1.84-.83-.5c.68-2.87.79-3.79,2-6.67Z"/><path class="h" d="M91.17,288.67c-3.75.81-3.43,2.74-3.99,6l-2.01-1.67,2.01-3.66c-2.67.7-1.7-1.56-2.65-2.33-1.49-1.21-8.53-1.48-9.28.75-.62,2.61,1.15,2.84,2.61,3.94.87.66,2.05-.32.66,1.64-.93-.46-5.77-3.56-5.82-4.32,2.9-5.79,11.55-4.42,16.49-2.02,1.21.59,1.65,1.49,1.97,1.67ZM88.5,288.01h-1.99v.65h1.99v-.65Z"/><path class="i" d="M149.73,338c.88-.24,1.74-.59,2.66-.66l-1.99,1.99,4.64,3.35-2.65,2.65c-1.11.41-2.4,1.76-3.99,1.33-.13-.03-1.99-1.67-2.02-1.8-.82-3.22,2.52-4.55,3.36-6.87Z"/><path class="i" d="M65.88,259.33l1.99,1.99c-1.72-.25-1.09.89-1.32,1.34-.82,1.57-1.6,2.85-2,4.67-1.09-1-6.81-6.17-5.99-7.33,1.74-.22,3.27-1.33,5.06-1.39,1.38-.05,1.86.66,2.26.72Z"/><path class="h" d="M223.6,334.67l-15.98,17.71c-1.74.9-2.87-1.78-3.32-3.04l3.32,2c.76-1.87,2.17-3.81,3.32-5.49.4-.58,1.46-.76,1.66-1.14.09-.17-.19-2.53,1.03-3.34,1.57-1.04,1.3,2.15,1.97,1.31.15-.19.27-1.5.67-1.99.06-.07.83.18,1.15-.2.58-.7.8-2.94,2.72-3.25.45-.72-.4-1.36-.54-1.87,1.32.38,2.28-.99,3.13-1.16.48-.1.81.51.86.5Z"/><path class="i" d="M250.88,334l-.51.39c.54,2.13,1.43,7.34-1.49,5.61-.64-.87-2.94-1.5-3.99-2,.42-.92,1.08-6.44,1.34-6.67,2.27-.16,3.46.94,4.65,2.67Z"/><path class="h" d="M101.82,313.33c1.31,2.69,4.69,1.78,5.66,4.01l.98-.03.4-1.33c2.93,1.83,1.97-1.3,4.28-1.32-.1,1.96-1.19,4.54,1.99,4.01l-1.33.66c-6.74-2.2-12.99-1.21-19.96-4.67l7.32,1.34c-.42-1.13.51-2.02.67-2.67Z"/><path class="h" d="M282.82,319.33c.25-.2,1.23-.77,1.32-.67l1.3,3.05c-.69,3.07-1.06-1.03-2.62-.38l1,3.34c1.15-.2,2.59-1.76,3.36-2.65,1.84-2.12,6.66-8.76,6.94-11.76.16-1.81-1.54-9.09-.65-10.27,3.17-.48-.79,4.97,3.32,4-1.45,11.58-8.65,20.97-18.63,26.67-.3-.41,1.16-9.07,1.51-10.15.72-2.23,3.25-3.96,4.47-5.85.93.67-.86,4.08-1.33,4.67-.2.16-.58.5-.67.67-.22.2-1.51-.16-1.91,1.1-.43,1.34.66,5.04-1.42,6.89l2.55-.75c-.1-2.05-.1-5.44.77-7.24.23-.2.47-.43.67-.67ZM295.64,305.99c0-.45-.37-.82-.82-.82s-.82.37-.82.82.37.82.82.82.82-.37.82-.82Z"/><path class="h" d="M236.24,321.33c1.67-6.52,9.08-9.14,15.21-8.57,2.5,5.34-.74,5.78-2.92,8.55-1.71,2.18-3.21,4.54-4.97,6.68l-.68-2.26c1.3-.34,1.2-1.58,1.34-1.74,1.41-1.58,7.98-6.01,6.36-8.67-1.52-2.49-11.4-.23-10.35,4-.51-.26-.94-.69-1.58-.61-.66.86-1.82,1.85-2.41,2.61Z"/><path class="h" d="M157.71,361.33v1.99c6,1.59,11.19,3.48,17.6,2.64,1.61-.21,3.1-1.77,5.03-1.3-.05.19.28.81.67.67-9.21,3.18-18.24,2.98-25.95-3.33,1.03.15,1.8-.4,2.66-.67Z"/><path class="d" d="M57.23,266.67l-5.32,6c-.81-.91-1.33-1.69-2-2.67,2.62-2.38,1.54-5.07,5.99-5.33.34.58.91,1.57,1.33,2Z"/><path class="h" d="M97.16,320.67c2.09-.03,8.87.46,10.81.84.62.12,1.18.5,1.83.5.3.79-.63,1.21-.66,1.33l-2,2.01h-2.66s.06-2.62.06-2.62l1.93-.72h-8.65c.89,2.12.43,2.43,0,3.99l-.67-3.34h-3.32c-.83-1.37,3.13-2,3.32-2Z"/><path class="h" d="M106.47,328c-4.17,2.81-11.25,3.15-15.97,2l1.33-2c.37.19.57,1.27,1,1.35.8.15.93-1.62,4.32-1.35.22.02,1.05.71,2.28.74,2.6.07,5.16-1.67,7.04-.74Z"/><path class="f" d="M254.87,314c-.57,5.42-.09,9.68,5.99,10.67-.13.44.27,1.31-.12,1.84-6.77,2.09-7.11-5.92-6.57-10.9.1-.91.67-1.43.69-1.61Z"/><path class="f" d="M278.83,303.33c.22-1.16,1.94-4.72,3.32-3.33l.07,1.91,1.27.09c-.28,1.79.34,3.94-1.65,5.24l-2.9-1.36c-.27-.39-.22-1.99-.11-2.55Z"/><path class="f" d="M310.11,267.33c-1.1,2.42-4.4.79-6.65,2-.16-.66-1.82-3.56-1.33-4,3.78.19,5.46-1.18,7.98,2Z"/><path class="i" d="M71.2,253.33l-.67,1.32,2,.68v.67c-.74-.27-2.62-.12-3.6-.51l-.39.51c-.88-.32-2.32-.1-3.24-.76l-.09-4.57c.22-.25,5.44,2.23,5.99,2.66Z"/><path class="h" d="M247.55,347.33l-1.33-.67c.41-.75.43-1.69.93-2.41.97-1.4,3.7-1.62,1.74-4.25,2.92,1.73,2.03-3.48,1.49-5.61l.51-.39c3.55,5.12-.48,9.03-3.33,13.33Z"/><path class="h" d="M303.45,292c1.77,3.32-1.91,4.25-2.07,5.66-.23,2.11.63,2.95,1.43,4.67-2.59.74-.72,1.54-.69,1.67.06.26-.03.55-.04.82l-1.96.51c.31-2.56-.45-5.91.01-8.32.29-1.52,2.6-3.5,3.31-5.01Z"/><polygon class="h" points="307.44 255.34 302.12 254.34 308.1 248 307.44 255.34"/><path class="h" d="M242.89,353.33c-3.71,3.67-8.81,7.28-13.97,7.33-.21-2.12,3.51-1.8,5.12-2.54,2.88-1.33,5.67-4.22,8.86-4.79Z"/><path class="h" d="M55.9,264c-2.65.31-1.58-.1-2.07-1.57-1.96-5.84-1.68-10.7-1.79-16.78-.02-1.13.75-2.41.53-3.66,1.54,1.75.26,12.26.72,15.61.29,2.12,1.6,4.51,2.6,6.39Z"/><path class="h" d="M65.88,259.33c3.62.58,5.63.95,8.45,3.55.31.29.12,1.03.2,1.11-3.09.75-5.02-1.83-7.99-1.33.24-.46-.4-1.59,1.32-1.34l-1.99-1.99Z"/><path class="h" d="M289.48,292c.96,4.89.8,9.44,0,14.33l-1.33-.99c.96-5.28-1.01-8.21,1.33-13.33Z"/><path class="f" d="M304.78,303.33c.4-4.11,4.07-6.87,5.99-10,.22,3.91-2.53,8.34-5.99,10Z"/><path class="h" d="M79.19,307.33c.42,3.25,2.31,3.81,4.05,5.64.53.56.53,1.63.61,1.69.7.59.54-1.12,1.33,1.33,1.54.47,1.74.9,2.66,1.33l-2.59-.09c-.27-.35.02-.95-.07-1.24-2.45-.75-.77-.63-1.33-1.33-.09-.11-1.76-.27-2.62-1.03-.81-.72-1.11-2.14-2.05-2.64-2.06-1.11-3.21,1.14-2.65-3.66,1.12.89,1.65.37,2.66,0Z"/><path class="h" d="M161.04,347.33c.63-.46.68-1.9,2.65-1.33,1.66,5.45,2.56,6.99-2.44,10.55-2.21,1.58-2.9,1.34-4.88,2.12-.04-.44.06-.91,0-1.33l6.65-2.67c.66-1.76-1.18-1.04-1.36-1.76s.69-2.44.03-3.56c2.71-.7.22,3.02,1.99,3.32.25-2.73.3-4.53-2.66-5.33Z"/><path class="h" d="M206.29,366.67c-4.55,1.27-9.55,2.53-13.97,0,4.62.28,9.35-.21,13.97,0Z"/><path class="h" d="M292.8,279.33v2s.66,0,.66,0v-1.33c.3.27.99.38,1.34.67.1.08-.06,1.17.66,1.65s2.25.53,3.34,1.01c.35.16.73.73,1.33.67-.56,1.54-6.25-.81-7.3-1.69-1.94-1.61-.93-2.21-1.35-3.65.42.25.93.39,1.33.67Z"/><path class="h" d="M206.96,357.33c-1.46,3.99-8.44,3.6-11.98,4,4.04-1.76,7.59-2.03,11.98-4Z"/><path class="h" d="M75.86,307.33c.04.8.07,1.9-.65,2.39l-2.68.28c-.14-.42-1.09-.94-.66-1.99l3.24-.78.09-1.23c.83.14.63.72.67,1.33Z"/><path class="h" d="M72.54,256c.69.26,2.79,1.76,1.66,2.67-1.84-.98-3.68-1.96-5.65-2.67l.39-.51c.99.39,2.86.24,3.6.51Z"/><path class="h" d="M72.54,255.33l-2-.68.67-1.32c.67.54,1.07,1.19,1.33,2Z"/><path class="i" d="M311.44,245.33c0-.85,1.3-1.24,1.33-1.33l-1.33,1.33Z"/><path class="i" d="M316.1,236.67l-.67-.67c.23.21.47.42.67.67Z"/><path class="f" d="M294.8,280.67l4.66-.66c-.07,1.07.43,2.79-.66,3.33-1.09-.48-2.63-.54-3.34-1.01s-.55-1.57-.66-1.65Z"/><path class="f" d="M293.47,280v1.33s-.66,0-.66,0v-2c.23.16.44.46.66.67Z"/><path class="h" d="M113.13,312c-.8-.67-.82-1.34,0-2,.57,2.16.03,1.5,0,2Z"/><path class="h" d="M155.05,352h1.33s0,.99,0,.99l-1.33.34c-.04-.38-.07-1,0-1.33Z"/><path class="i" d="M240.23,319.33c-1.04-4.23,8.83-6.49,10.35-4,1.62,2.65-4.95,7.09-6.36,8.67.47-1.91-2.44-3.87-3.99-4.67Z"/><rect class="d" x="86.51" y="288.01" width="1.99" height=".65"/><circle class="i" cx="294.81" cy="305.99" r=".82"/></svg>