<?xml version="1.0" encoding="UTF-8"?><svg id="a" xmlns="http://www.w3.org/2000/svg" viewBox="0 0 368.67 382.67"><defs><style>.b{fill:#fff;}.c{fill:#424242;}.d{fill:#1a1a1a;}</style></defs><path class="b" d="M74.53,258.66c-1.52.21-1.85-1.34-3.16-1.83-4.26-1.59-6.26.41-6.15-6.16,4.57,1.52,7.29,3.55,9.31,7.99Z"/><polygon class="b" points="57.23 243.34 60.47 247.56 57.23 252.67 57.23 243.34"/><path class="b" d="M57.23,266.68c3.92,3.99,11.86,4.92,7.21,11.88-5.51.82-8.47-1.53-11.87-5.22-1.76-1.92-2.05-2.59-3.33-4.67-4.15-6.72-7.36-18.48-2.01-25.68,1.46-1.95,4.97-3.26,5.9-.54s-.27,10.89.1,14.56c.16,1.5.83,3.55,1.34,5,.44,1.26,1.79,3.78,2.66,4.67Z"/><path class="b" d="M84.51,282.66l-8.62-.69c.07-2.37-1.9-6.17-3.35-7.97-1.81-2.24-5.63-4.52-7.99-6.67s-6.02-4.32-5.97-7.97c6.4-2.01,11.96.35,16.61,4.64,1.82,1.68,2.01,2.07,3.33,4,3,4.35,5.54,9.27,5.99,14.66Z"/><path class="b" d="M96.49,292c1.66,1.62,8.38,10.21,7.03,12.04-1.48.8-5.74,1.04-7.23.64-.4-.11-4.15-4.8-5.79-6.01-.69-.51-3.45-2.42-3.99-2.67-4.38-2.06-10.57-2.38-13.81-6.99,2.88-5.18,7.7-4.29,12.48-3.01s7.68,2.5,11.31,6Z"/><path class="b" d="M75.2,296.67c3.97,1.6,11.12,1.6,8.71,7.06-1.69,3.83-8.82,2.51-12.04,1.6-3.42-.96-3.88-1.43-6.65-3.33h-.01c-7.93-5.41-11.26-14.01-12.64-23.32.27-.29,7,2.75,7.3,3.01.69.58,3.14,6.22,4.68,7.98.46.52,4.25,4.05,4.66,4.33,1.5,1.03,4.25,1.97,5.99,2.67Z"/><path class="b" d="M109.8,322.01c-.91,7.03-5.95,7.73-11.98,7.99-2.88.12-4.57,0-7.32-.67h0c-8.23-2-17.09-12.1-18.64-20.32-.27-1.44-.1-.9.68-.69,1.97.54,5.25.75,6.63,1.37,2.29,1.02,6.45,7.09,10.67,8.98,1.02.46,5.49,1.78,6.65,2,4.53.86,8.9.25,13.31,1.34Z"/><path class="b" d="M129.1,321.33c-2.3-1.15-7.01,2.08-8.2,1.87s-6.72-3.9-9.1-4.53c-4.89-1.3-10.19-.93-15.31-2.67h0c-1.94-.65-3.88-1.42-5.27-3.06,1.44-5.63,8.54-5.67,13.26-5.6,3.75.05,5.12.28,8.65,1.33,6.82,2.03,12.22,6.69,15.97,12.66Z"/><path class="b" d="M154.36,331.68l-7.01,4.32c-4.41-1.29-9-1.75-13.6-1.99-.88-.05-1.78.04-2.66,0-2.86-.13-11.21.84-12.59-1.06-2.83-3.89,4.17-7.45,7.27-8.28.83-.23,2.52-.59,3.33-.67h-.01c9.27-2.41,18.96.62,25.27,7.68Z"/><path class="b" d="M135.76,337.36c.1,7.78-4.34,9.78-11.31,10.65-.42.05-.9,0-1.33,0-1.07,1.18-3.49.75-4.91.58-9.36-1.15-18.18-6.79-22.37-15.24,2.17,1.07,7.1-1.43,8.22-1.21.8.16,8.93,5.81,11.07,6.53h.01c1.2.41,3.88.43,5.32.67l13.09-2.45,2.21.47Z"/><path class="b" d="M163.61,347.09c4.44,5.93-1.66,9.5-6.56,11.57-4.54,1.92-8.53,3.11-13.31,2.67-4.48-.41-8.58-1.65-12.57-3.74-1.43-.75-9.24-5.57-7.39-7.59,3.08,1.46,6.58-.67,9.56-.45,4.26.32,7.02,2.78,13.06,2.45,1.8-.09,6.26-.82,7.99-1.33h0c2.34-.71,5.87-2.96,7.7-4.65.89-.24,1.1.51,1.52,1.07Z"/><path class="b" d="M180.99,336.33l-6.38,5.51c-3.34-.87-6.84-.24-10.24.16-2.14.25-6.13.69-7.99,1.33-2.19.75-8.59,6.01-10.99,2.01s3.62-7.76,6.34-9.34c5.66-3.29,11.97-5.4,18.63-4.67,4.18-.05,7.9,1.92,10.63,5Z"/><path class="b" d="M206.27,334.41c.07.4-4.19,6.24-4.67,6.55-1.43.92-6.21,1.38-8.61,2.38-.98.41-3.68,2.02-4.66,2.67-3.59,2.38-6.88,7.3-11.94,7.3-3.72-8.01.63-9.72,5.95-13.97,2.44-1.95,3.83-3.12,6.65-4.67,1-.55,1.4-1.44,3.03-1.97,4.4-1.43,10.97-2.12,14.25,1.71Z"/><path class="b" d="M191.88,348.71c4.28,3.55,4.05,8.13-.22,11.63-1.85,1.52-3.05,1.46-4.67,2.32-2.57,1.37-3.21,1.7-5.99,2.67-9.49,3.32-17.37,2.46-25.95-3,3.21-.13,6.26-2.93,9.13-3.52,3.91-.81,8.31.21,12.83-.81,2.07-.47,7.71-2.79,9.32-4h-.01c1.1-.84,4.1-5.53,5.56-5.29Z"/><path class="b" d="M220.6,343.36c6.85,5.94,4.61,7.06.33,12.65-2.02,2.65-2.51,3.74-5.32,6-8.35,6.71-17.82,7.22-27.95,3.99,2.71-2.25,5.75-4.86,9.17-5.81,4.38-1.21,7.74-.97,12.13-3.52,3.33-1.93,4.44-3.93,6.65-6.67,1.75-2.16,3.41-4.35,4.99-6.64Z"/><path class="b" d="M230.92,325.69c-1.1,1.53-1.88,6.57-2.81,7.49-.67.65-2.93.84-4.08,1.58-1.06.69-2.77,2.34-3.75,3.24s-2.4,2.34-3.33,3.33c-.4.42-.67,1.61-1.33,2.32-2.68,2.89-5.5,5.64-7.99,8.72-1.25.79-1.95-.62-2.55-1.48-4.43-6.39,1.93-14.02,6.54-18.22,1.62-1.48,3.46-2.83,5.32-4,.18-.11.38-.8,1.12-1.18,1.84-.95,12.38-4.24,12.86-1.8Z"/><path class="b" d="M244.44,313.88c3.18-1.23,7.88-3.11,7.79,1.79-.05,2.94-5.39,7.24-7.34,10.33-.99,1.56-1.25,2.59-2,4-1.3,2.44-6.07,14.17-9.51,13.26-5.92-1.56-1.48-13.48.2-17.26,1.41-3.14,2.3-4.7,4.66-7.33h-.01c2.17-2.43,3.03-3.56,6.21-4.79Z"/><path class="b" d="M245.55,336.68c.07-1.88.63-3.5.67-5.34,4.2.06,6.71,3.96,5.99,8-.16.94-2.03,4.18-2.66,5.33-5.64,10.37-15,17.18-27.28,15.99,1.28-1.36,2.58-5.55,3.5-6.48s5.66-2.55,7.36-3.63c1.88-1.2,6.47-4.91,7.77-6.55,1.52-1.9,2.47-5.58,4.65-7.32Z"/><path class="d" d="M321.47,161.62c4.06,14.73,6.57,29.92,5.97,45.27-.28,1.2-3.43.61-4.09,1.52-.45.62-3.98,13.44-3.98,14.59,0,4.52,5.05,11.44,6.83,15.88,4.11,10.28,4.16,20.3.57,30.81-1.1,3.24-3.56,6.34-4.5,9.5-2.14,7.18-1.56,14.5-6.49,20.83-4.1,5.26-13.64,10.7-16.14,15.83-5.32,10.9-4.85,13.64-15.95,20.69-7.21,4.59-11.62,8.14-18.36,12.94-7.09,5.06-11.11,4.6-17.59,7.71-1.76.85-2.71,2.77-4.22,3.77-5.69,3.75-12.37,5.42-19.11,6.25-1.61.2-2.86-.71-4.31-.44-2.19.4-6.92,5-9.99,6.05-10.97,3.75-19.59-2.01-28.73-.78-7.09.96-9.91,2.58-17.92,1.21-8.01-1.37-9.93-6.16-13.55-7.09-5.76-1.47-12.91-.09-19.73-2.9-3.92-1.61-6.64-6.35-9.23-7.44-2.01-.85-2.91.13-4.52-.11-2.58-.37-17.23-10.22-19.61-12.37s-4.08-6.84-6.07-8.59-6.45-2.4-9.34-3.98c-5-2.74-11.37-9.55-14.1-14.54-1.04-1.9-.93-4.29-2.45-6.21-1.24-1.57-3.48-2.29-4.97-3.69-8.87-8.33-11.54-17.79-15.26-28.71-1.15-3.38-3.58-6.54-4.72-9.94-3.21-9.6-2.76-18.28,2.33-27.05,2.2-3.78,7.85-8.32,8.33-12.37.2-1.72-4.5-20.26-5.37-20.89l-3.52.58c-1.65-.46-1.22-10.13-1.11-12.32.27-5.44,1.25-12.38,2.22-17.78.55-3.06,4.59-16.13,3.65-17.73-.43-.73-3.47-1-3.09-3.63.31-2.14,4.47-9.92,5.78-12.28,1.51-2.74,9.77-13.75,10.02-14.69.57-2.13-3.88-3.98-4.46-6.68-.5-2.35.4-4.69,1.21-6.85h0s0,.01,0,.02c1.77-1.86,3.81-1.15,5.97-1.33l-1.63,1.99h0c4.68-1.05,9.43-1.11,14.18-1.16h.01c2.16-.02,4.32-.04,6.46-.15,29.08-1.52,52.65-4.13,81.63,2.16,21.59,4.68,27.32,1.78,47.65-1.98,27.57-5.09,57.46-1.09,85.3-.21h0s14.39,1.98,14.39,1.98h0s1.58-1.97,1.58-1.97c2.58,6.02,1.31,8.17-2.44,12.99,3.47,4.93,6.99,9.92,9.88,15.22,1.49,2.75,6.69,11.94,5.55,14.43-.54,1.18-2.88,1.93-2.96,3.64ZM322.07,257.66c.57-7.99-1.6-16.66-7.3-22.32-.53,3.05-2.62,6.62-2.69,9.69-.08,3.29,2.06,8.27,2.07,11.97,0,2.24-1.55,7.46-1.23,9.25.07.35,3.03,4.73,3.77,6.13.26.5.18,2.06,1.38.95h.01c1.17-1.08,3.83-13.42,3.99-15.67ZM319.78,187.98c.84.72,1.14.87,2.3.69-.4-13.97-3.65-25.83-10.38-37.93-.23-.42-4.07-4.93-1.27-4.06,2.04.63,4.36,2.46,7,1.99h-.01c.82-.76-9.2-17.07-12.22-17.29l-8.73,8.63c-2.21,20.82-10.02,44.09-33.37,47.9-9.75,1.59-19.72.49-29.52.09,2.24,5.54,6.17,10.4,8.31,16.01,11.87,31.19,2.05,52.13-13.91,78.05-.52.84-3.02,4.58-2.38,5.27,9.49-4.42,16.06-12.42,23.63-19.32,2.22-.23.1,2.06-.17,3.17-.52,2.14-1.83,5.14.16,6.81,3.45-5.01,8.32-8.49,12.34-12.97,6.24-6.96,11.68-14.59,16.95-22.34,1.39-.22,1.12.32.71,1.38-1.66,4.22-5.49,13.06-6.35,16.98-.29,1.34-.24,1.92,1.3,1.64.87-3.4,3.97-6.27,5.89-9.11,7.27-10.77,11.57-22.32,14.76-34.89,1.76-.17,1.07-.03,1.31.99.57,2.46,1.45,5.81,1.85,8.16.17.99-.29,8.47,1.49,7.19,8.14-11.14,10.82-22.72,7.32-36.34,1.72-.4,1.16.51,1.71,1.26,1.86,2.53,2.69,4.67,4.12,7.21.42.73-.07,1.15,1.48.86,1.38-10.15.77-20.55-.66-30.67,1.92-.37,1.06.56,1.5,1.46.81,1.67,3.94,8.41,4.84,9.18ZM311.44,292.67c2.74-8.23,3.62-13.11.7-21.7-1.97-5.77-4.05-6.13-10.01-5.63,2.05,7.95,5.19,14.77,2.7,23.03-.86,2.86-4.11,6.54-4.56,8.1-.66,2.29.17,5.73-.14,8.19,2.48.08,3.78-1.59,5.32-2.66,4.98-3.46,4.15-3.83,5.99-9.33ZM307.44,255.34l.66-7.34-5.98,6.34,5.32,1ZM300.79,256.01l-9.71,5.93c-1.38,1.28-.85,3.11-.93,4.73h-.01c-.2,3.66,0,6.48.67,10,.29,1.55.57,4.32,1.62,5.38.98.99,7.16,3.36,8.06,1.98,2.48-3.81-3.43-22.4.3-28.02ZM295.1,311.31c2.52-6.92,6.15-21.74-5.63-20.64-.89,7.51.23,13.46-3.2,20.46-1.31,2.68-5.9,7.46-6.39,8.9-.99,2.92-1.5,7.5-1.71,10.64,7.4-4.82,13.84-10.85,16.93-19.36ZM289.18,284.05c.88-4.13-.17-6.19-2.69-9.36-3.13,1.67-5.14,5.02-6.99,7.98h-.01c-1.93,3.08-3.19,5.06-3.99,8.67-.85,3.8-.87,7.54-.56,11.56l6.89,4.42c1.53-.11,2.53-10.13,2.99-11.98.68-2.77,1.7-5.34,2.66-8,.3-.82,1.35-1.66,1.7-3.29ZM285.96,150.14c.12-.73,1.56-13.59-.47-10.81.04,7.4-2.01,16.34-5.45,22.88-8.77,16.69-35.76,17.96-51.8,13.46-2.54-.71-4.79-2.22-7.3-3.01h0c-1.17,1.24,4.12,4.31,4.97,4.69,11.18,5.17,39.81,4.42,49.61-3.67,6.18-5.09,9.17-15.82,10.44-23.54ZM274.84,330.34c2.33-6.65,2.99-16.12-5.97-17.02-.36.35-.95,8.61-1.33,10h-.02c-.36,1.3-3.09,6.21-3.99,7.34-1.99,2.51-5.71,4.79-7.87,7.78-2.43,3.36-3.85,7.73-5.43,11.55,8.51-2.93,15.34-6.67,20.63-14,1.04-1.44,1.78-2.35,2.66-4,.12-.23.88-.39,1.32-1.65ZM272.02,302.87c.4-1.8.51-7.22-.54-8.51-5.2-6.41-12.31,7.15-13.95,10.97-1.24,2.89-1.32,3.78-2,6.67-.16.67-1.08,1.51-1.28,3.05-.22,1.78-.36,6.95.08,8.48s5.32,5.06,6.59,3.4c1.87-2.46,2.56-9.61,3.92-12.92.24-.58,1.01-2.1,1.33-2.67,1.33-2.32,5.26-5.82,5.85-8.47ZM252.21,339.34c.72-4.04-1.79-7.94-5.99-8-.04,1.84-.6,3.46-.67,5.34-2.18,1.74-3.13,5.42-4.65,7.32-1.3,1.64-5.89,5.35-7.77,6.55-1.7,1.08-6.44,2.7-7.36,3.63s-2.22,5.12-3.5,6.48c12.28,1.19,21.64-5.62,27.28-15.99.63-1.15,2.5-4.39,2.66-5.33ZM252.23,315.67c.09-4.9-4.61-3.02-7.79-1.79s-4.04,2.36-6.21,4.78h.01c-2.36,2.64-3.25,4.2-4.66,7.34-1.68,3.78-6.12,15.7-.2,17.26,3.44.91,8.21-10.82,9.51-13.26.75-1.41,1.01-2.44,2-4,1.95-3.09,7.29-7.39,7.34-10.33ZM240.55,125.31c2.16-5.82-4.21-4.59-7.77-4.44h-.01c-6.27.26-18.04,2.21-23.63,4.98-1,.49-1.52.95-2.04,1.96-2.2,4.26-.18,32.42,4.92,33.49,1,.13,1.34-.77,1.88-1.35,3.56-3.84,7.44-11.63,11.05-16.26,3.39-4.35,14.12-14.39,15.6-18.38ZM220.6,257.33c21.12,1.83,18.55-30.03,16.1-43.46-2.05-11.28-5.98-25.16-15.11-32.53-3.82-3.08-8.31-4.78-11.92-7.72-2.07-1.68-3.41-4.28-5.38-4.94l-4.98-10.01-5.39-20.6c-2.96-5.04-15.74-5.52-19.89-1.36-2.34,10.33-5.36,19.56-10.64,28.71-.52.91-1.24,1.53-.37,2.59-1.2.4-16.29,11.23-17.95,12.66-12.29,10.59-18.41,44.13-15.88,59.58,1.67,10.18,6.58,18.57,18.15,17.03,4.18-.55,27.75-10.58,30.66-13.28,4.57-4.24,5.45-10.4-.33-14-3.71-2.31-8.6-2.26-12.57-4.41-3.17-1.71-5.82-4.52-7.79-7.88l2.71-.61c1.63,2.53,5.03,3.48,8.6,3.49,5.56.02,9.86-2.5,12.68-7.3,1.24-2.1,1.04-3.74,1.7-5.3.13-.31,1.89-1.19,1.34-2.67.73-.11,1.26.01,1.66.66.7,1.13.94,6.53,2.2,9.12.73,1.51,3.49,4.93,5.11,4.87.57-.02.84-.24.9-.59l2.17.08c-.33.75,1.92,1.22,2.92,1.24,4.14.09,8.52-2.2,10.32-6.06.27-.59.5-1.13.68-1.66l2.43.34c-1.7,4.66-4.53,8.76-8.22,11.24-3.88,2.61-9.3,3.22-13.53,5.44-1.22.64-1.96.38-2.95,2.05-2.78,4.74-1.12,8.46,2.62,11.95,2.71,2.52,26.32,13.01,29.95,13.33ZM228.11,333.18c.93-.92,1.71-5.96,2.81-7.49-.48-2.44-11.02.85-12.86,1.8-.74.38-.94,1.07-1.12,1.18-1.86,1.17-3.7,2.52-5.32,4-4.61,4.2-10.97,11.83-6.54,18.22.6.86,1.3,2.27,2.55,1.48,2.49-3.08,5.31-5.83,7.99-8.72.66-.71.93-1.9,1.33-2.32.93-.99,2.35-2.43,3.33-3.33s2.69-2.55,3.75-3.24c1.15-.74,3.41-.93,4.08-1.58ZM220.93,356.01c4.28-5.59,6.52-6.71-.33-12.65-1.58,2.29-3.24,4.48-4.99,6.64-2.21,2.74-3.32,4.74-6.65,6.67-4.39,2.55-7.75,2.31-12.13,3.52-3.42.95-6.46,3.56-9.17,5.81,10.13,3.23,19.6,2.72,27.95-3.99,2.81-2.26,3.3-3.35,5.32-6ZM196.77,282.12c8.75-5.24,22.99-8.94,22.14-21.44-2.27-.1-4.45-.8-6.63-1.36-1.08-.28-2.42-.38-3.33-.67-4.73-1.47-9.49-4.29-14.47-5.18-13.04-2.31-21.37.35-33.45,3.84v.02c-1.32.38-2.65.96-3.98,1.33-2.92.83-6.32,1.31-9.32,2,.31,13.08,14.58,17.06,24.16,22.79,3.93,2.35,7.57,5.25,11.44,7.68,4.55-2.85,8.83-6.26,13.44-9.01ZM201.6,340.96c.48-.31,4.74-6.15,4.67-6.55-3.28-3.83-9.85-3.14-14.25-1.71-1.63.53-2.03,1.42-3.03,1.97-2.82,1.55-4.21,2.72-6.65,4.67-5.32,4.25-9.67,5.96-5.95,13.97,5.06,0,8.35-4.92,11.94-7.3.98-.65,3.68-2.26,4.66-2.67,2.4-1,7.18-1.46,8.61-2.38ZM191.66,360.34c4.27-3.5,4.5-8.08.22-11.63-1.46-.24-4.46,4.45-5.56,5.28h.01c-1.61,1.22-7.25,3.54-9.32,4.01-4.52,1.02-8.92,0-12.83.81-2.87.59-5.92,3.39-9.13,3.52,8.58,5.46,16.46,6.32,25.95,3,2.78-.97,3.42-1.3,5.99-2.67,1.62-.86,2.82-.8,4.67-2.32ZM174.61,341.84l6.38-5.51c-2.73-3.08-6.45-5.05-10.63-5-6.66-.73-12.97,1.38-18.63,4.67-2.72,1.58-8.74,5.34-6.34,9.34s8.8-1.26,10.99-2.01c1.86-.64,5.85-1.08,7.99-1.33,3.4-.4,6.9-1.03,10.24-.16ZM157.05,358.66c4.9-2.07,11-5.64,6.56-11.57-.42-.56-.63-1.31-1.52-1.07-1.83,1.69-5.36,3.94-7.7,4.64h0c-1.73.52-6.19,1.25-7.99,1.34-6.04.33-8.8-2.13-13.06-2.45-2.98-.22-6.48,1.91-9.56.45-1.85,2.02,5.96,6.84,7.39,7.59,3.99,2.09,8.09,3.33,12.57,3.74,4.78.44,8.77-.75,13.31-2.67ZM147.35,336l7.01-4.32c-6.31-7.06-16-10.09-25.27-7.67h.01c-.81.07-2.5.43-3.33.66-3.1.83-10.1,4.39-7.27,8.28,1.38,1.9,9.73.93,12.59,1.06.88.04,1.78-.05,2.66,0,4.6.24,9.19.7,13.6,1.99ZM141.25,176.49c1.17-.51,11.41-6.97,9.83-8.48h-.02c-.43-.43-8.45,5.17-9.82,5.81-10.72,4.98-28.84,6-40.07,2.5-2.94-.92-6.1-3.16-8.68-3.98-1.19-.38-1.14-.35-1.96.66,1.18,1.5,2.5,2.31,4.19,3.13,11.18,5.42,35.13,5.3,46.53.36ZM139.75,286.31c.19-1.41-12.07-21.37-13.64-24.99-.98-2.26-2.14-6.07-2.81-8.52-1.23-4.45-1.86-8.99-2.85-13.48,1.05-18.86.09-26.66,9.32-44,.37-.7.95-1.31,1.33-2,1.09-1.97,3.88-4.45,1.55-6.7-10.93.33-20.67,2.5-31.5-.3-2.63-.68-9.1-3.02-11.31-4.34-1.23-.73-1.44-1.57-2-2-4.61-3.54-7.3-6.76-9.98-12v.02c-2.91-8.57-4.43-21.21-7.78-29.21-.8-1.92-5.16-6.54-7.06-6.06-1.7.44-8.14,11.24-8.78,13.28-1.13,3.61,1.78.71,2.77.1,1.41-.87,3.29-2.15,4.88-2.44-1.28,2.56-2.61,5.17-4,7.66-.08.15-.68.3-.92.75-5.85,10.66-8.71,21.05-9.72,33.25,1.46,1.47,3.73-4.87,3.99-5.33.39-.67,1.18-2.49,1.33-2.67.17-.21,1.92-1.43,1.99-1.33-.37,2.21-.45,4.45-.66,6.67-.01.14-.64.74-.69,1.61-.19,3.02.1,24.12,1.37,25.05,2.78-2.32,4.57-6.34,6.65-9.33.35-.5.47-1.05.67-1.33,2.01-.37,1.29,1.02,1.33,2.3.24,7.24-.75,14.77.86,21.83,1.2,5.26,3.96,9.86,6.47,14.53,1.73.21,1.05-.02,1.34-.96,1.3-4.22.03-9.31,1.81-13.53.4-.95.14-1.01,1.49-.84,1.35,11.47,6.77,22.81,13.7,31.94.68.9,6.59,8.45,7.59,7.39-1.06-6.74-3.29-14.13-3.35-20.98,0-.58-.26-2.34,1.01-1.68.9.47,6.47,15.83,8.07,18.59,2.06,3.58,4.68,5.5,6.9,8.42,1.65,2.18,7.26,10.9,9.01,11.64,2.6,1.1-1.96-6.47.65-5.32,1.42.62,5.36,5.02,7.05,6.27,2.93,2.17,9.3,6.95,12.24,8.42.79.39,1.52.84,1.68-.38ZM124.45,348.01c6.97-.87,11.41-2.87,11.31-10.65l-2.21-.47-13.09,2.45c-1.44-.24-4.12-.26-5.32-.67h-.01c-2.14-.72-10.27-6.37-11.07-6.53-1.12-.22-6.05,2.28-8.22,1.21,4.19,8.45,13.01,14.09,22.37,15.24,1.42.17,3.84.6,4.91-.58.43,0,.91.05,1.33,0ZM120.9,323.2c1.19.21,5.9-3.02,8.2-1.87-3.75-5.97-9.15-10.63-15.97-12.66-3.53-1.05-4.9-1.28-8.65-1.33-4.72-.07-11.82-.03-13.26,5.6,1.39,1.64,3.33,2.41,5.27,3.07h0c5.12,1.73,10.42,1.36,15.31,2.66,2.38.63,7.91,4.32,9.1,4.53ZM119.8,123.7c.53-.82.82-1.32.63-2.36l-22.29-1.33c-10.45,1.46-25.83-.75-22.9,14.92l1.93,9.07h.02c.3,4.09,1.19,8.09,2.32,12.01.79,2.71,3.15,12.85,6.36,8.83,3.21-5.97,7.61-11.19,11.28-16.84,3.78-3.66,6.84-8.05,10.39-11.92,3.18-3.47,10.04-8.92,12.26-12.38ZM97.82,330c6.03-.26,11.07-.96,11.98-7.99-4.41-1.09-8.78-.48-13.31-1.34-1.16-.22-5.63-1.54-6.65-2-4.22-1.89-8.38-7.96-10.67-8.98-1.38-.62-4.66-.83-6.63-1.37-.78-.21-.95-.75-.68.69,1.55,8.22,10.41,18.32,18.64,20.33h0c2.75.66,4.44.78,7.32.66ZM103.52,304.04c1.35-1.83-5.37-10.42-7.03-12.04-3.63-3.5-6.53-4.72-11.31-6s-9.6-2.17-12.48,3.01c3.24,4.61,9.43,4.93,13.81,6.99.54.25,3.3,2.16,3.99,2.67,1.64,1.21,5.39,5.9,5.79,6.01,1.49.4,5.75.16,7.23-.64ZM75.89,281.97l8.62.69c-.45-5.39-2.99-10.31-5.99-14.66-1.32-1.93-1.51-2.32-3.33-4-4.65-4.29-10.21-6.65-16.61-4.64-.05,3.65,3.61,5.82,5.97,7.97s6.18,4.43,7.99,6.67c1.45,1.8,3.42,5.6,3.35,7.97ZM83.91,303.73c2.41-5.46-4.74-5.46-8.71-7.06-1.74-.7-4.49-1.64-5.99-2.67-.41-.28-4.2-3.81-4.66-4.33-1.54-1.76-3.99-7.4-4.68-7.98-.3-.26-7.03-3.3-7.3-3.01,1.38,9.31,4.71,17.91,12.64,23.33h.01c2.77,1.89,3.23,2.36,6.65,3.32,3.22.91,10.35,2.23,12.04-1.6ZM71.37,256.83c1.31.49,1.64,2.04,3.16,1.83-2.02-4.44-4.74-6.47-9.31-7.99-.11,6.57,1.89,4.57,6.15,6.16ZM64.44,278.56c4.65-6.96-3.29-7.89-7.21-11.88-.87-.89-2.22-3.41-2.66-4.67-.51-1.45-1.18-3.5-1.34-5-.37-3.67.83-11.84-.1-14.56s-4.44-1.41-5.9.54c-5.35,7.2-2.14,18.96,2.01,25.68,1.28,2.08,1.57,2.75,3.33,4.67,3.4,3.69,6.36,6.04,11.87,5.22ZM60.47,247.56l-3.24-4.22v9.33l3.24-5.11Z"/><path class="b" d="M314.77,235.34c5.7,5.66,7.87,14.33,7.3,22.32-.16,2.25-2.82,14.59-3.99,15.67h-.01c-1.2,1.11-1.12-.45-1.38-.95-.74-1.4-3.7-5.78-3.77-6.13-.32-1.79,1.23-7.01,1.23-9.25-.01-3.7-2.15-8.68-2.07-11.97.07-3.07,2.16-6.64,2.69-9.69Z"/><path class="b" d="M322.08,188.67c-1.16.18-1.46.03-2.3-.69-.9-.77-4.03-7.51-4.84-9.18-.44-.9.42-1.83-1.5-1.46,1.43,10.12,2.04,20.52.66,30.67-1.55.29-1.06-.13-1.48-.86-1.43-2.54-2.26-4.68-4.12-7.21-.55-.75.01-1.66-1.71-1.26,3.5,13.62.82,25.2-7.32,36.34-1.78,1.28-1.32-6.2-1.49-7.19-.4-2.35-1.28-5.7-1.85-8.16-.24-1.02.45-1.16-1.31-.99-3.19,12.57-7.49,24.12-14.76,34.89-1.92,2.84-5.02,5.71-5.89,9.11-1.54.28-1.59-.3-1.3-1.64.86-3.92,4.69-12.76,6.35-16.98.41-1.06.68-1.6-.71-1.38-5.27,7.75-10.71,15.38-16.95,22.34-4.02,4.48-8.89,7.96-12.34,12.97-1.99-1.67-.68-4.67-.16-6.81.27-1.11,2.39-3.4.17-3.17-7.57,6.9-14.14,14.9-23.63,19.32-.64-.69,1.86-4.43,2.38-5.27,15.96-25.92,25.78-46.86,13.91-78.05-2.14-5.61-6.07-10.47-8.31-16.01,9.8.4,19.77,1.5,29.52-.09,23.35-3.81,31.16-27.08,33.37-47.9l8.73-8.63c3.02.22,13.04,16.53,12.22,17.28h.01c-2.64.48-4.96-1.35-7-1.98-2.8-.87,1.04,3.64,1.27,4.06,6.73,12.1,9.98,23.96,10.38,37.93Z"/><path class="d" d="M313.44,58.34c12.29,16.43,8.34,37.14-5.92,50.8-.31,1.18,2.35,3.9,3.26,5.53h-.01c-5.04-.96-10.21-.92-15.3-1.33h0s0-.01,0-.01c-1.09-.09-2.18-.18-3.27-.26-1.18-.1-2.36-.2-3.55-.29-2.1-.17-4.21-.35-6.32-.51-3.39-.27-6.78-.53-10.18-.77-14.31-1-28.73-1.62-42.92-.86-15.17.81-28.81,6.99-43.86,7.39-6.83.19-12.11-.54-17.04-1.58,0,0-.01,0-.02,0-6.45-1.36-12.32-3.26-20.31-4.36-1.02-.14-2.04-.27-3.06-.39l.32-2.71c5.09.59,10.28,1.31,15.63,2.18,20.84,3.37,33.18.36,53.14-2.41,19.96-2.77,42.85-2.78,63.47-1.41.1,0,.75.63,1.61.69,7.89.57,15.79.95,23.68,1.97-1.83-2.8-8.47-2.47-10.64-3.66-.6-.33-6.38-9.09-7.99-11-1.15-1.36-2.49-3.56-3.66-4.66-3.09-2.9-13.79-6.75-6.07-9.3l.09-1.38-10.31-2.68c-.66-2.65.73-2.43,1.98-3.97,5.19.71,10.61-7.15,15-7.97,6.82-1.27,16.09.55,19.07,7.5,2.02,4.71,3.45,13.26,1.82,18.09-1.25,3.68-6.28,8.79.24,10.3.86-.23,5.1-4.85,5.79-5.93,4.79-7.45,5.15-17.61,3.33-26-1.1-5.04-3.58-9.24-7.32-12.67-4.79-4.39-7.11-4.57-13.31-5.33-11.45-1.41-26.73.87-33.94,11.33h.01c-.47.69-1.02,1.01-1.33,2-1.07,1.25-.12,1.59-1.76.78-2.77-1.35-5.5-3.7-8.29-5.04-11.71-5.61-21.41-6.06-34.22-5.77-1.19.03-5.36,1.53-4.63-.61l.99-2.69c-.45-.46-5.07,1.15-5.99,1.33-4.59.89-13.58,3.36-17.64,3.39-2.59.02-4.98-1.48-7.64-2.06-4.6-.99-9.29-2.18-13.98-1.33l.67,2.66c-13.63-1.65-27.25-1.02-39.71,5.22-1.84.92-3.42,2.55-4.87,3.45-2.64,1.64-5.69,2.68-7.65,5.32-1.61-1.64-2.77-3.63-4.33-5.32-9.42-10.22-22.25-14.32-35.94-10.67-4.18,1.12-7.72,2.69-10.65,6-7.49,8.48-7.33,21.94-3.81,32.15,1.66,4.82,5.37,10.12,10.43,11.15,4.02-6.25.85-6.05-.98-10.63-2.83-7.1-1.48-15.57,3-21.68,2.71-3.7,9.29-5.34,13.67-5.03,3.73.26,8.29,3.54,11.62,5.37,2,1.1,4.29,2.28,6.2,3.45.9.55,4.63,2.68,4.44,3.54-.36,1.6-10.14,1.76-11.99,2.67-1.45.78,1.23,1.9,1.38,3.38.28,2.79-4.48,4.12-6.36,5.64-1.11.9-2.74,2.56-3.65,3.68-2.4,2.94-5.48,11.17-7.37,12.62-2.1,1.6-9.94,1.26-13.27,2.71-.86.37-1.77.68-1.98,1.53l-.68-.2c-1.38-1.64-3.34-3.02-4.63-4.68-12.73-16.32-13.23-41.97,5.34-53.96,16.72-10.79,30.94-7.45,47.67.85,2.19,1.09,5.97,4.8,7.84,4.83,16.86-6.59,34.1-12.6,52.59-11.37,4.39.29,8.93,1.87,13.29,2.02,4.8.17,9.27-1.66,14.01-2.02,18.75-1.43,37.02,4.12,54.51,9.99,1.95-.11,8.41-6.19,11.23-7.46,17.15-7.74,39.44-5.04,51.04,10.46Z"/><path class="b" d="M312.14,270.97c2.92,8.59,2.04,13.47-.7,21.7-1.84,5.5-1.01,5.87-5.99,9.33-1.54,1.07-2.84,2.74-5.32,2.66.31-2.46-.52-5.9.14-8.19.45-1.56,3.7-5.24,4.56-8.1,2.49-8.26-.65-15.08-2.7-23.03,5.96-.5,8.04-.14,10.01,5.63Z"/><path class="b" d="M311.43,69.34c1.82,8.39,1.46,18.55-3.33,26-.69,1.08-4.93,5.7-5.79,5.93-6.52-1.51-1.49-6.62-.24-10.3,1.63-4.83.2-13.38-1.82-18.09-2.98-6.95-12.25-8.77-19.07-7.5-4.39.82-9.81,8.68-15,7.97-1.25,1.54-2.64,1.32-1.98,3.97l10.31,2.68-.09,1.38c-7.72,2.55,2.98,6.4,6.07,9.3,1.17,1.1,2.51,3.3,3.66,4.66,1.61,1.91,7.39,10.67,7.99,11,2.17,1.19,8.81.86,10.64,3.66-7.89-1.02-15.79-1.4-23.68-1.97-.86-.06-1.51-.69-1.61-.69-20.62-1.37-43.51-1.36-63.47,1.41-19.96,2.77-32.3,5.78-53.14,2.41-5.35-.87-10.54-1.59-15.63-2.18-26.28-3.08-49.77-2.64-77.71.37-2.06.23-4.35.7-6.32,1.33-.05-.31-.05-.57.01-.8.21-.85,1.12-1.16,1.98-1.53,3.33-1.45,11.17-1.11,13.27-2.71,1.89-1.45,4.97-9.68,7.37-12.62.91-1.12,2.54-2.78,3.65-3.68,1.88-1.52,6.64-2.85,6.36-5.64-.15-1.48-2.83-2.6-1.38-3.38,1.85-.91,11.63-1.07,11.99-2.67.19-.86-3.54-2.99-4.44-3.54-1.91-1.17-4.2-2.35-6.2-3.45-3.33-1.83-7.89-5.11-11.62-5.37-4.38-.31-10.96,1.33-13.67,5.03-4.48,6.11-5.83,14.58-3,21.68,1.83,4.58,5,4.38.98,10.63-5.06-1.03-8.77-6.33-10.43-11.15-3.52-10.21-3.68-23.67,3.81-32.15,2.93-3.31,6.47-4.88,10.65-6,13.69-3.65,26.52.45,35.94,10.67,1.56,1.69,2.72,3.68,4.33,5.32,1.96-2.64,5.01-3.68,7.65-5.32,1.45-.9,3.03-2.53,4.87-3.45,12.46-6.24,26.08-6.87,39.71-5.22l-.67-2.66c4.69-.85,9.38.34,13.98,1.33,2.66.58,5.05,2.08,7.64,2.06,4.06-.03,13.05-2.5,17.64-3.39.92-.18,5.54-1.79,5.99-1.33l-.99,2.69c-.73,2.14,3.44.64,4.63.61,12.81-.29,22.51.16,34.22,5.77,2.79,1.34,5.52,3.69,8.29,5.04,1.64.81.69.47,1.76-.78.31-.99.86-1.31,1.33-2h-.01c7.21-10.46,22.49-12.74,33.94-11.33,6.2.76,8.52.94,13.31,5.33,3.74,3.43,6.22,7.63,7.32,12.67Z"/><path class="d" d="M310.77,114.67c.13.23.56.43.67.67l-1.58,1.96-14.39-1.97h0v-1.99c5.09.41,10.26.37,15.3,1.33Z"/><polygon class="d" points="309.86 117.3 309.86 117.31 295.47 115.34 295.47 115.33 309.86 117.3"/><polygon class="b" points="308.1 248 307.44 255.34 302.12 254.34 308.1 248"/><path class="b" d="M291.08,261.94l9.71-5.93c-3.73,5.62,2.18,24.21-.3,28.02-.9,1.38-7.08-.99-8.06-1.98-1.05-1.06-1.33-3.83-1.62-5.38-.67-3.52-.87-6.34-.67-10h.01c.08-1.62-.45-3.45.93-4.73Z"/><path class="d" d="M295.47,115.32h0c-27.84-.87-57.73-4.87-85.3.22-20.33,3.76-26.06,6.66-47.65,1.98-28.98-6.29-52.55-3.68-81.63-2.16-2.14.11-4.3.13-6.46.15,2.16-.02,4.31-.05,6.46-.16,29.08-1.52,52.65-4.13,81.63,2.16,16.48,3.57,23.72,2.73,35.26.45,3.58-.7,7.58-1.54,12.39-2.43,27.58-5.09,57.46-1.09,85.3-.21Z"/><path class="d" d="M295.47,113.34v1.98c-27.84-.88-57.72-4.88-85.3.21-4.81.89-8.81,1.73-12.39,2.43l-.25-1.33c10.51-1.99,20.7-5.39,31.69-5.98,14.19-.76,28.61-.15,42.92.85,3.4.24,6.79.5,10.18.77,2.11.17,4.21.34,6.32.51,1.19.09,2.37.19,3.55.29l3.27.27h0Z"/><path class="d" d="M295.47,113.33h0s0,.01,0,.01l-3.27-.27c1.09.08,2.18.17,3.27.26h0Z"/><path class="b" d="M289.47,290.67c11.78-1.1,8.15,13.72,5.63,20.64-3.09,8.51-9.53,14.54-16.93,19.36.21-3.14.72-7.72,1.71-10.64.49-1.44,5.08-6.22,6.39-8.9,3.43-7,2.31-12.95,3.2-20.46Z"/><path class="b" d="M286.49,274.69c2.52,3.17,3.57,5.23,2.69,9.36-.35,1.63-1.4,2.47-1.7,3.29-.96,2.66-1.98,5.23-2.66,8-.46,1.85-1.46,11.87-2.99,11.98l-6.89-4.42c-.31-4.02-.29-7.76.56-11.56.8-3.61,2.06-5.59,3.99-8.67h.01c1.85-2.96,3.86-6.31,6.99-7.98Z"/><path class="b" d="M285.49,139.33c2.03-2.78.59,10.08.47,10.81-1.27,7.72-4.26,18.45-10.44,23.54-9.8,8.09-38.43,8.84-49.61,3.67-.85-.38-6.14-3.45-4.97-4.68h0c2.51.78,4.76,2.29,7.3,3,16.04,4.5,43.03,3.23,51.8-13.46,3.44-6.54,5.49-15.48,5.45-22.88Z"/><path class="d" d="M288.64,112.78c-2.11-.17-4.21-.34-6.32-.51,2.11.16,4.22.34,6.32.51Z"/><path class="b" d="M268.87,313.32c8.96.9,8.3,10.37,5.97,17.02-.44,1.26-1.2,1.42-1.32,1.65-.88,1.65-1.62,2.56-2.66,4-5.29,7.33-12.12,11.07-20.63,14,1.58-3.82,3-8.19,5.43-11.55,2.16-2.99,5.88-5.27,7.87-7.78.9-1.13,3.63-6.04,3.99-7.33h.02c.38-1.4.97-9.66,1.33-10.01Z"/><path class="b" d="M271.48,294.36c1.05,1.29.94,6.71.54,8.51-.59,2.65-4.52,6.15-5.85,8.47-.32.57-1.09,2.09-1.33,2.67-1.36,3.31-2.05,10.46-3.92,12.92-1.27,1.66-6.15-1.87-6.59-3.4s-.3-6.7-.08-8.48c.2-1.54,1.12-2.38,1.28-3.05.68-2.89.76-3.78,2-6.67,1.64-3.82,8.75-17.38,13.95-10.97Z"/><path class="d" d="M272.14,111.5c-14.31-1-28.73-1.61-42.92-.85-10.99.59-21.18,3.99-31.69,5.98-3.99.75-8.03,1.3-12.17,1.41-6.83.18-12.11-.55-17.04-1.59,4.93,1.04,10.21,1.77,17.04,1.58,15.05-.4,28.69-6.58,43.86-7.39,14.19-.76,28.61-.14,42.92.86Z"/><path class="b" d="M232.78,120.87c3.56-.15,9.93-1.38,7.77,4.44-1.48,3.99-12.21,14.03-15.6,18.38-3.61,4.63-7.49,12.42-11.05,16.26-.54.58-.88,1.48-1.88,1.35-5.1-1.07-7.12-29.23-4.92-33.49.52-1.01,1.04-1.47,2.04-1.96,5.59-2.77,17.36-4.72,23.63-4.99h.01Z"/><path class="b" d="M236.7,213.87c2.45,13.43,5.02,45.29-16.1,43.46-3.63-.32-27.24-10.81-29.95-13.33-3.74-3.49-5.4-7.21-2.62-11.95.99-1.67,1.73-1.41,2.95-2.05,4.23-2.22,9.65-2.83,13.53-5.44,3.69-2.48,6.52-6.58,8.22-11.24,3.51-9.68,2.12-21.76-6.76-26.67-9.64-5.33-34.06-4.94-43.86.1-10.57,5.43-10.8,20.75-4.8,30.96,1.97,3.36,4.62,6.17,7.79,7.88,3.97,2.15,8.86,2.1,12.57,4.41,5.78,3.6,4.9,9.76.33,14-2.91,2.7-26.48,12.73-30.66,13.28-11.57,1.54-16.48-6.85-18.15-17.03-2.53-15.45,3.59-48.99,15.88-59.58,1.66-1.43,16.75-12.26,17.95-12.66h0s.01-.01.01-.01t-.02.01c-.87-1.06-.15-1.68.37-2.59,5.28-9.15,8.3-18.38,10.64-28.71,4.15-4.16,16.93-3.68,19.89,1.36l5.39,20.6,4.98,10.01c1.97.66,3.31,3.26,5.38,4.94,3.61,2.94,8.1,4.64,11.92,7.72,9.13,7.37,13.06,21.25,15.11,32.53Z"/><path class="b" d="M218.91,260.68c.85,12.5-13.39,16.2-22.14,21.44-4.61,2.75-8.89,6.16-13.44,9.01-3.87-2.43-7.51-5.33-11.44-7.68-9.58-5.73-23.85-9.71-24.16-22.79,3-.69,6.4-1.17,9.32-2,1.33-.37,2.66-.95,3.99-1.33v-.02c12.07-3.49,20.4-6.15,33.44-3.84,4.98.89,9.74,3.71,14.47,5.18.91.29,2.25.39,3.33.67,2.18.56,4.36,1.26,6.63,1.36Z"/><path class="d" d="M205.97,186.65c8.88,4.91,10.27,16.99,6.76,26.67l-2.43-.34c.76-2.18.78-3.96.64-6.67-.19-3.82-.92-10.76-3.98-13.01-7.39-5.42-29.27-4.7-37.93-2.33-5.42,1.49-10.73,2.72-11.32,9v.03c-.13,1.34-.2,3.44.33,4.66,2.61-4.39,2.81-7.33,8.65-8,9.06-1.03,15.3-.46,12.98,10-2.61,11.72-12.71,16.29-20.62,6-.13,1.84.24,3.3.97,4.44l-2.71.61c-6-10.21-5.77-25.53,4.8-30.96,9.8-5.04,34.22-5.43,43.86-.1Z"/><path class="b" d="M210.94,206.31c.14,2.71.12,4.49-.64,6.67-.18.53-.41,1.07-.68,1.66-1.8,3.86-6.18,6.15-10.32,6.06-1-.02-3.25-.49-2.92-1.24.08-.15.26-.32.58-.49,1.28-.69,4.48-.71,6.46-1.52,1.8-.74,2.71-1.96,4.19-2.8,2.76-9.3,1.54-17.36-9.67-18.01-13.27-.76-11.62,8.93-6.86,17.58.19.34,3.36,3.76,3.13,5.16-.06.35-.33.57-.9.59-1.62.06-4.38-3.36-5.11-4.87-1.26-2.59-1.5-7.99-2.2-9.12-.4-.65-.93-.77-1.66-.66.55,1.48-1.21,2.36-1.34,2.67-.66,1.56-.46,3.2-1.7,5.3-2.82,4.8-7.12,7.32-12.68,7.3-3.57-.01-6.97-.96-8.6-3.49-.73-1.14-1.1-2.6-.97-4.44,7.91,10.29,18.01,5.72,20.62-6,2.32-10.46-3.92-11.03-12.98-10-5.84.67-6.04,3.61-8.65,8-.53-1.22-.46-3.32-.33-4.66v-.03c.59-6.28,5.9-7.51,11.32-9,8.66-2.37,30.54-3.09,37.93,2.33,3.06,2.25,3.79,9.19,3.98,13.01Z"/><path class="d" d="M197.94,196.64c11.21.65,12.43,8.71,9.67,18.01-1.48.84-2.39,2.06-4.19,2.8-1.98.81-5.18.83-6.46,1.52-.32.17-.5.34-.58.49l-2.17-.08c.23-1.4-2.94-4.82-3.13-5.16-4.76-8.65-6.41-18.34,6.86-17.58Z"/><path class="d" d="M197.53,116.63l.25,1.33c-11.54,2.28-18.78,3.12-35.26-.45-28.98-6.29-52.55-3.68-81.63-2.16-2.15.11-4.3.14-6.46.16h-.01c-4.75.04-9.5.1-14.17,1.16l1.63-1.99h.01c9.85-.8,20.03-1.84,30.29-2.68,18.76-1.52,37.83-2.39,55.81.09,7.99,1.1,13.85,3,20.31,4.35.01,0,.02,0,.02,0,4.93,1.04,10.21,1.77,17.04,1.59,4.14-.11,8.18-.66,12.17-1.41Z"/><path class="d" d="M163.04,168v.02s-.02-.01-.02-.01t.02-.01Z"/><path class="b" d="M151.08,168.01c1.58,1.51-8.66,7.97-9.83,8.48-11.4,4.94-35.35,5.06-46.53-.36-1.69-.82-3.01-1.63-4.19-3.13.82-1.01.77-1.04,1.96-.66,2.58.82,5.74,3.06,8.68,3.98,11.23,3.5,29.35,2.48,40.07-2.5,1.37-.64,9.39-6.24,9.82-5.82h.02Z"/><path class="d" d="M168.3,116.44c-6.46-1.35-12.32-3.25-20.31-4.35-17.98-2.48-37.05-1.61-55.81-.09,17.7-1.45,35.67-2.3,52.75-.31,1.02.12,2.04.25,3.06.39,7.99,1.1,13.86,3,20.31,4.36Z"/><path class="d" d="M145.25,108.98l-.32,2.71c-17.08-1.99-35.05-1.14-52.75.31-10.26.83-20.44,1.87-30.29,2.67h0c-2.17.16-4.2-.56-5.98,1.31,1.14-3,2.21-4.16,4.64-6.3l.68.2c-.06.23-.06.49-.01.8,1.97-.63,4.26-1.1,6.32-1.33,27.94-3.01,51.43-3.45,77.71-.37Z"/><path class="b" d="M126.11,261.32c1.57,3.62,13.83,23.58,13.64,24.99-.16,1.22-.89.77-1.68.38-2.94-1.47-9.31-6.25-12.24-8.42-1.69-1.25-5.63-5.65-7.05-6.27-2.61-1.15,1.95,6.42-.65,5.32-1.75-.74-7.36-9.46-9.01-11.64-2.22-2.92-4.84-4.84-6.9-8.42-1.6-2.76-7.17-18.12-8.07-18.59-1.27-.66-1.01,1.1-1.01,1.68.06,6.85,2.29,14.24,3.35,20.98-1,1.06-6.91-6.49-7.59-7.39-6.93-9.13-12.35-20.47-13.7-31.94-1.35-.17-1.09-.11-1.49.84-1.78,4.22-.51,9.31-1.81,13.53-.29.94.39,1.17-1.34.96-2.51-4.67-5.27-9.27-6.47-14.53-1.61-7.06-.62-14.59-.86-21.83-.04-1.28.68-2.67-1.33-2.3-.2.28-.32.83-.67,1.33-2.08,2.99-3.87,7.01-6.65,9.33-1.27-.93-1.56-22.03-1.37-25.05.05-.87.68-1.47.69-1.61.21-2.22.29-4.46.66-6.67-.07-.1-1.82,1.12-1.99,1.33-.15.18-.94,2-1.33,2.67-.26.46-2.53,6.8-3.99,5.33,1.01-12.2,3.87-22.59,9.72-33.25.24-.45.84-.6.92-.75,1.39-2.49,2.72-5.1,4-7.66-1.59.29-3.47,1.57-4.88,2.44-.99.61-3.9,3.51-2.77-.1.64-2.04,7.08-12.84,8.78-13.28,1.9-.48,6.26,4.14,7.06,6.06,3.35,8,4.87,20.64,7.78,29.21-.59,4.72,4.2,6.79,3.36,11.3l6.62.7c-4.61-3.54-7.3-6.76-9.98-12v-.02c2.68,5.24,5.37,8.46,9.98,12,.56.43.77,1.27,2,2,2.21,1.32,8.68,3.66,11.31,4.34,10.83,2.8,20.57.63,31.5.3,2.33,2.25-.46,4.73-1.55,6.7-.38.69-.96,1.3-1.33,2-9.23,17.34-8.27,25.14-9.32,44,.99,4.49,1.62,9.03,2.85,13.48.67,2.45,1.83,6.26,2.81,8.52Z"/><path class="b" d="M120.43,121.34c.19,1.04-.1,1.54-.63,2.36-2.22,3.46-9.08,8.91-12.26,12.38-3.55,3.87-6.61,8.26-10.39,11.92-3.67,5.65-8.07,10.87-11.28,16.84-3.21,4.02-5.57-6.12-6.36-8.83-1.13-3.92-2.02-7.92-2.32-12.01h-.02l-1.93-9.07c-2.93-15.67,12.45-13.46,22.9-14.92l22.29,1.33Z"/><path class="c" d="M87.84,180l-6.62-.7c.84-4.51-3.95-6.58-3.36-11.3,2.68,5.24,5.37,8.46,9.98,12Z"/><path class="d" d="M74.42,115.51c-4.75.05-9.5.11-14.18,1.17h0s.01-.01.01-.01c4.67-1.06,9.42-1.12,14.17-1.16Z"/><path class="d" d="M61.89,114.67c9.85-.8,20.03-1.84,30.29-2.67-10.26.84-20.44,1.88-30.29,2.68h0Z"/><path class="d" d="M61.89,114.66h0s-.01.02-.01.02h-.01c-2.16.18-4.2-.53-5.97,1.33,0-.01,0-.02,0-.03,1.78-1.87,3.81-1.15,5.98-1.32Z"/><polygon class="d" points="61.89 114.67 61.89 114.68 61.88 114.68 61.89 114.67"/></svg>