<?xml version="1.0" encoding="UTF-8"?><svg id="a" xmlns="http://www.w3.org/2000/svg" viewBox="0 0 368.67 382.67"><defs><style>.b{fill:#424242;}.c{fill:#1a1a1a;}</style></defs><path class="c" d="M295.47,115.33l14.39,1.97,1.58-1.97c2.58,6.03,1.31,8.18-2.44,13,3.47,4.93,6.99,9.92,9.88,15.22,1.49,2.75,6.69,11.94,5.55,14.43-.54,1.18-2.88,1.93-2.96,3.64,4.06,14.73,6.57,29.92,5.97,45.27-.28,1.2-3.43.61-4.09,1.52-.45.62-3.98,13.44-3.98,14.59,0,4.52,5.05,11.44,6.83,15.88,4.11,10.28,4.16,20.3.57,30.81-1.1,3.24-3.56,6.34-4.5,9.5-2.14,7.18-1.56,14.5-6.49,20.83-4.1,5.26-13.64,10.7-16.14,15.83-5.32,10.9-4.85,13.64-15.95,20.69-7.21,4.59-11.62,8.14-18.36,12.94-7.09,5.06-11.11,4.6-17.59,7.71-1.76.85-2.71,2.77-4.22,3.77-5.69,3.75-12.37,5.42-19.11,6.25-1.61.2-2.86-.71-4.31-.44-2.19.4-6.92,5-9.99,6.05-10.97,3.75-19.59-2.01-28.73-.78-7.09.96-9.91,2.58-17.92,1.21s-9.93-6.16-13.55-7.09c-5.76-1.47-12.91-.09-19.73-2.9-3.92-1.61-6.64-6.35-9.23-7.44-2.01-.85-2.91.13-4.52-.11-2.58-.37-17.23-10.22-19.61-12.37s-4.08-6.84-6.07-8.59-6.45-2.4-9.34-3.98c-5-2.74-11.37-9.55-14.1-14.54-1.04-1.9-.93-4.29-2.45-6.21-1.24-1.57-3.48-2.29-4.97-3.69-8.87-8.33-11.54-17.79-15.26-28.71-1.15-3.38-3.58-6.54-4.72-9.94-3.21-9.6-2.76-18.28,2.33-27.05,2.2-3.78,7.85-8.32,8.33-12.37.2-1.72-4.5-20.26-5.37-20.89l-3.52.58c-1.65-.46-1.22-10.13-1.11-12.32.27-5.44,1.25-12.38,2.22-17.78.55-3.06,4.59-16.13,3.65-17.73-.43-.73-3.47-1-3.09-3.63.31-2.14,4.47-9.92,5.78-12.28,1.51-2.74,9.77-13.75,10.02-14.69.57-2.13-3.88-3.98-4.46-6.68-.5-2.35.4-4.69,1.21-6.85,1.78-1.88,3.82-1.16,5.99-1.33l-1.65,2.01c6.8-1.54,13.77-.96,20.65-1.32,29.08-1.52,52.65-4.13,81.63,2.16,21.59,4.68,27.31,1.78,47.65-1.98,27.58-5.09,57.46-1.09,85.3-.21ZM77.19,144c.3,4.09,1.19,8.09,2.32,12.01.79,2.71,3.15,12.85,6.36,8.83,3.21-5.97,7.61-11.19,11.28-16.84,3.78-3.66,6.84-8.05,10.39-11.92,3.18-3.47,10.04-8.92,12.26-12.38.53-.82.82-1.32.63-2.36l-22.29-1.33c-10.45,1.46-25.83-.75-22.9,14.92l1.93,9.07ZM232.77,120.86c-6.27.27-18.04,2.22-23.63,4.99-1,.49-1.52.95-2.04,1.96-2.2,4.26-.18,32.42,4.92,33.49,1,.13,1.34-.77,1.88-1.35,3.56-3.84,7.44-11.63,11.05-16.26,3.39-4.35,14.12-14.39,15.6-18.38,2.16-5.82-4.21-4.59-7.77-4.44ZM317.42,148.66c.82-.75-9.2-17.06-12.22-17.28l-8.73,8.63c-2.21,20.82-10.02,44.09-33.37,47.9-9.75,1.59-19.72.49-29.52.09,2.24,5.54,6.17,10.4,8.31,16.01,11.87,31.19,2.05,52.13-13.91,78.05-.52.84-3.02,4.58-2.38,5.27,9.49-4.42,16.06-12.42,23.63-19.32,2.22-.23.1,2.06-.17,3.17-.52,2.14-1.83,5.14.16,6.81,3.45-5.01,8.32-8.49,12.34-12.97,6.24-6.96,11.68-14.59,16.95-22.34,1.39-.22,1.12.32.71,1.38-1.66,4.22-5.49,13.06-6.35,16.98-.29,1.34-.24,1.92,1.3,1.64.87-3.4,3.97-6.27,5.89-9.11,7.27-10.77,11.57-22.32,14.76-34.89,1.76-.17,1.07-.03,1.31.99.57,2.46,1.45,5.81,1.85,8.16.17.99-.29,8.47,1.49,7.19,8.14-11.14,10.82-22.72,7.32-36.34,1.72-.4,1.16.51,1.71,1.26,1.86,2.53,2.69,4.67,4.12,7.21.42.73-.07,1.15,1.48.86,1.38-10.15.77-20.55-.66-30.67,1.92-.37,1.06.56,1.5,1.46.81,1.67,3.94,8.41,4.84,9.18.84.72,1.14.87,2.3.69-.4-13.97-3.65-25.83-10.38-37.93-.23-.42-4.07-4.93-1.27-4.06,2.04.63,4.36,2.46,7,1.99ZM77.86,168c-2.91-8.57-4.43-21.21-7.78-29.21-.8-1.92-5.16-6.54-7.06-6.06-1.7.44-8.14,11.24-8.78,13.28-1.13,3.61,1.78.71,2.77.1,1.41-.87,3.29-2.15,4.88-2.44-1.28,2.56-2.61,5.17-4,7.66-.08.15-.68.3-.92.75-5.85,10.66-8.71,21.05-9.72,33.25,1.46,1.47,3.73-4.87,3.99-5.33.39-.67,1.18-2.49,1.33-2.67.17-.21,1.92-1.43,1.99-1.33-.37,2.21-.45,4.45-.66,6.67-.01.14-.64.74-.69,1.61-.19,3.02.1,24.12,1.37,25.05,2.78-2.32,4.57-6.34,6.65-9.33.35-.5.47-1.05.67-1.33,2.01-.37,1.29,1.02,1.33,2.3.24,7.24-.75,14.77.86,21.83,1.2,5.26,3.96,9.86,6.47,14.53,1.73.21,1.05-.02,1.34-.96,1.3-4.22.03-9.31,1.81-13.53.4-.95.14-1.01,1.49-.84,1.35,11.47,6.77,22.81,13.7,31.94.68.9,6.59,8.45,7.59,7.39-1.06-6.74-3.29-14.13-3.35-20.98,0-.58-.26-2.34,1.01-1.68.9.47,6.47,15.83,8.07,18.59,2.06,3.58,4.68,5.5,6.9,8.42,1.65,2.18,7.26,10.9,9.01,11.64,2.6,1.1-1.96-6.47.65-5.32,1.42.62,5.36,5.02,7.05,6.27,2.93,2.17,9.3,6.95,12.24,8.42.79.39,1.52.84,1.68-.38.19-1.41-12.07-21.37-13.64-24.99-.98-2.26-2.14-6.07-2.81-8.52-1.23-4.45-1.86-8.99-2.85-13.48,1.05-18.86.09-26.66,9.32-44,.37-.7.95-1.31,1.33-2,1.09-1.97,3.88-4.45,1.55-6.7-10.93.33-20.67,2.5-31.5-.3-2.63-.68-9.1-3.02-11.31-4.34-1.23-.73-1.44-1.57-2-2-4.61-3.54-7.3-6.76-9.98-12ZM163.04,168c-1.06.3-16.3,11.23-17.97,12.67-12.29,10.59-18.41,44.13-15.88,59.58,1.67,10.18,6.58,18.57,18.15,17.03,4.18-.55,27.75-10.58,30.66-13.28,4.57-4.24,5.45-10.4-.33-14-3.71-2.31-8.6-2.26-12.57-4.41-12.82-6.94-17.04-31.63-2.99-38.84,9.8-5.04,34.22-5.43,43.86-.1,13.16,7.27,9.87,30.3-1.46,37.91-3.88,2.61-9.3,3.22-13.53,5.44-1.22.64-1.96.38-2.95,2.05-2.78,4.74-1.12,8.46,2.62,11.95,2.71,2.52,26.32,13.01,29.95,13.33,21.12,1.83,18.55-30.03,16.1-43.46-2.05-11.28-5.98-25.16-15.11-32.53-3.82-3.08-8.31-4.78-11.92-7.72-2.07-1.68-3.41-4.28-5.38-4.94l-4.98-10.01-5.39-20.6c-2.96-5.04-15.74-5.52-19.89-1.36-2.34,10.33-5.36,19.56-10.64,28.71-.52.91-1.24,1.53-.36,2.6ZM220.94,172.67c-1.17,1.23,4.12,4.3,4.97,4.68,11.18,5.17,39.81,4.42,49.61-3.67,6.18-5.09,9.17-15.82,10.44-23.54.12-.73,1.56-13.59-.47-10.81.04,7.4-2.01,16.34-5.45,22.88-8.77,16.69-35.76,17.96-51.8,13.46-2.54-.71-4.79-2.22-7.3-3.01ZM151.06,168c-.43-.42-8.45,5.18-9.82,5.82-10.72,4.98-28.84,6-40.07,2.5-2.94-.92-6.1-3.16-8.68-3.98-1.19-.38-1.14-.35-1.96.66,1.18,1.5,2.5,2.31,4.19,3.13,11.18,5.42,35.13,5.3,46.53.36,1.17-.51,11.41-6.97,9.83-8.48ZM157.71,200c-.13,1.34-.2,3.44.33,4.66,2.61-4.39,2.81-7.33,8.65-8,9.06-1.03,15.3-.46,12.98,10-2.61,11.72-12.71,16.29-20.62,6-.42,5.92,4.39,7.91,9.57,7.93,5.56.02,9.86-2.5,12.68-7.3,1.24-2.1,1.04-3.74,1.7-5.3.13-.31,1.89-1.19,1.34-2.67.73-.11,1.26.01,1.66.66.7,1.13.94,6.53,2.2,9.12.73,1.51,3.49,4.93,5.11,4.87,2.88-.11-1.99-5.32-2.23-5.75-4.76-8.65-6.41-18.34,6.86-17.58,11.21.65,12.43,8.71,9.67,18.01-1.48.84-2.39,2.06-4.19,2.8-1.98.81-5.18.83-6.46,1.52-1.89,1.02,1.14,1.71,2.34,1.73,4.14.09,8.52-2.2,10.32-6.06,1.42-3.05,1.49-4.98,1.32-8.33-.19-3.82-.92-10.76-3.98-13.01-7.39-5.42-29.27-4.7-37.93-2.33-5.42,1.49-10.73,2.72-11.32,9ZM318.08,273.33c1.17-1.08,3.83-13.42,3.99-15.67.57-7.99-1.6-16.66-7.3-22.32-.53,3.05-2.62,6.62-2.69,9.69-.08,3.29,2.06,8.27,2.07,11.97,0,2.24-1.55,7.46-1.23,9.25.07.35,3.03,4.73,3.77,6.13.26.5.18,2.06,1.38.95ZM49.24,268.67c1.28,2.08,1.57,2.75,3.33,4.67,3.4,3.69,6.36,6.04,11.87,5.22,4.65-6.96-3.29-7.89-7.21-11.88-.87-.89-2.22-3.41-2.66-4.67-.51-1.45-1.18-3.5-1.34-5-.37-3.67.83-11.84-.1-14.56s-4.44-1.41-5.9.54c-5.35,7.2-2.14,18.96,2.01,25.68ZM57.23,252.67l3.24-5.11-3.24-4.22v9.33ZM307.44,255.34l.66-7.34-5.98,6.34,5.32,1ZM74.53,258.66c-2.02-4.44-4.74-6.47-9.31-7.99-.11,6.57,1.89,4.57,6.15,6.16,1.31.49,1.64,2.04,3.16,1.83ZM161.04,257.33c-1.33.38-2.66.96-3.99,1.33-2.92.83-6.32,1.31-9.32,2,.31,13.08,14.58,17.06,24.16,22.79,3.93,2.35,7.57,5.25,11.44,7.68,4.55-2.85,8.83-6.26,13.44-9.01,8.75-5.24,22.99-8.94,22.14-21.44-2.27-.1-4.45-.8-6.63-1.36-1.08-.28-2.42-.38-3.33-.67-4.73-1.47-9.49-4.29-14.47-5.18-13.04-2.31-21.37.35-33.45,3.84ZM290.14,266.67c-.2,3.66,0,6.48.67,10,.29,1.55.57,4.32,1.62,5.38.98.99,7.16,3.36,8.06,1.98,2.48-3.81-3.43-22.4.3-28.02l-9.71,5.93c-1.38,1.28-.85,3.11-.93,4.73ZM75.2,264c-4.65-4.29-10.22-6.65-16.62-4.64-.05,3.65,3.61,5.82,5.97,7.97s6.18,4.43,7.99,6.67c1.45,1.8,3.42,5.6,3.35,7.97l8.62.69c-.45-5.39-2.99-10.31-5.99-14.66-1.32-1.93-1.51-2.32-3.33-4ZM311.44,292.67c2.74-8.23,3.62-13.11.7-21.7-1.97-5.77-4.05-6.13-10.01-5.63,2.05,7.95,5.19,14.77,2.7,23.03-.86,2.86-4.11,6.54-4.56,8.1-.66,2.29.17,5.73-.14,8.19,2.48.08,3.78-1.59,5.32-2.66,4.98-3.46,4.15-3.83,5.99-9.33ZM279.49,282.67c-1.93,3.08-3.19,5.06-3.99,8.67-.85,3.8-.87,7.54-.56,11.56l6.89,4.42c1.53-.11,2.53-10.13,2.99-11.98.68-2.77,1.7-5.34,2.66-8,.3-.82,1.35-1.66,1.7-3.29.88-4.13-.17-6.19-2.69-9.36-3.13,1.67-5.14,5.02-6.99,7.98ZM65.22,302c2.77,1.9,3.23,2.37,6.65,3.33,3.22.91,10.35,2.23,12.04-1.6,2.41-5.46-4.74-5.46-8.71-7.06-1.74-.7-4.49-1.64-5.99-2.67-.41-.28-4.2-3.81-4.66-4.33-1.54-1.76-3.99-7.4-4.68-7.98-.3-.26-7.03-3.3-7.3-3.01,1.38,9.31,4.71,17.91,12.64,23.33ZM86.51,296c.54.25,3.3,2.16,3.99,2.67,1.64,1.21,5.39,5.9,5.79,6.01,1.49.4,5.75.16,7.23-.64,1.35-1.83-5.37-10.42-7.03-12.04-3.63-3.5-6.53-4.72-11.31-6s-9.6-2.17-12.48,3.01c3.24,4.61,9.43,4.93,13.81,6.99ZM278.17,330.67c7.4-4.82,13.84-10.85,16.93-19.36,2.52-6.92,6.15-21.74-5.63-20.64-.89,7.51.23,13.46-3.2,20.46-1.31,2.68-5.9,7.46-6.39,8.9-.99,2.92-1.5,7.5-1.71,10.64ZM257.53,305.33c-1.24,2.89-1.32,3.78-2,6.67-.16.67-1.08,1.51-1.28,3.05-.22,1.78-.36,6.95.08,8.48s5.32,5.06,6.59,3.4c1.87-2.46,2.56-9.61,3.92-12.92.24-.58,1.01-2.1,1.33-2.67,1.33-2.32,5.26-5.82,5.85-8.47.4-1.8.51-7.22-.54-8.51-5.21-6.42-12.33,7.19-13.96,10.99ZM96.49,316c5.12,1.74,10.42,1.37,15.31,2.67,2.38.63,7.91,4.32,9.1,4.53s5.9-3.02,8.2-1.87c-3.75-5.97-9.15-10.63-15.97-12.66-3.53-1.05-4.9-1.28-8.65-1.33-4.72-.07-11.82-.03-13.26,5.6,1.39,1.64,3.33,2.41,5.27,3.07ZM90.5,329.33c2.75.67,4.44.79,7.32.67,6.03-.26,11.07-.96,11.98-7.99-4.41-1.09-8.78-.48-13.31-1.34-1.16-.22-5.63-1.54-6.65-2-4.22-1.89-8.38-7.96-10.67-8.98-1.38-.62-4.66-.83-6.63-1.37-.78-.21-.95-.75-.68.69,1.55,8.22,10.41,18.32,18.64,20.33ZM238.24,318.67c-2.36,2.63-3.25,4.19-4.66,7.33-1.68,3.78-6.12,15.7-.2,17.26,3.44.91,8.21-10.82,9.51-13.26.75-1.41,1.01-2.44,2-4,1.95-3.09,7.29-7.39,7.34-10.33.09-4.9-4.61-3.02-7.79-1.79s-4.04,2.36-6.21,4.78ZM267.52,323.33c-.36,1.29-3.09,6.2-3.99,7.33-1.99,2.51-5.71,4.79-7.87,7.78-2.43,3.36-3.85,7.73-5.43,11.55,8.51-2.93,15.34-6.67,20.63-14,1.04-1.44,1.78-2.35,2.66-4,.12-.23.88-.39,1.32-1.65,2.33-6.65,2.99-16.12-5.97-17.02-.36.35-.95,8.61-1.33,10ZM129.1,324c-.81.08-2.5.44-3.33.67-3.1.83-10.1,4.39-7.27,8.28,1.38,1.9,9.73.93,12.59,1.06.88.04,1.78-.05,2.66,0,4.6.24,9.19.7,13.6,1.99l7.01-4.32c-6.31-7.06-16-10.09-25.27-7.67ZM216.94,328.67c-1.86,1.17-3.7,2.52-5.32,4-4.61,4.2-10.97,11.83-6.54,18.22.6.86,1.3,2.27,2.55,1.48,2.49-3.08,5.31-5.83,7.99-8.72.66-.71.93-1.9,1.33-2.32.93-.99,2.35-2.43,3.33-3.33s2.69-2.55,3.75-3.24c1.15-.74,3.41-.93,4.08-1.58.93-.92,1.71-5.96,2.81-7.49-.48-2.44-11.02.85-12.86,1.8-.74.38-.94,1.07-1.12,1.18ZM151.73,336c-2.72,1.58-8.74,5.34-6.34,9.34s8.8-1.26,10.99-2.01c1.86-.64,5.85-1.08,7.99-1.33,3.4-.4,6.9-1.03,10.24-.16l6.38-5.51c-2.73-3.08-6.45-5.05-10.63-5-6.66-.73-12.97,1.38-18.63,4.67ZM188.99,334.67c-2.82,1.55-4.21,2.72-6.65,4.67-5.32,4.25-9.67,5.96-5.95,13.97,5.06,0,8.35-4.92,11.94-7.3.98-.65,3.68-2.26,4.66-2.67,2.4-1,7.18-1.46,8.61-2.38.48-.31,4.74-6.15,4.67-6.55-3.28-3.83-9.85-3.14-14.25-1.71-1.63.53-2.03,1.42-3.03,1.97ZM245.56,336.67c-2.19,1.74-3.14,5.43-4.66,7.33-1.3,1.64-5.89,5.35-7.77,6.55-1.7,1.08-6.44,2.7-7.36,3.63s-2.22,5.12-3.5,6.48c12.28,1.19,21.64-5.62,27.28-15.99.63-1.15,2.5-4.39,2.66-5.33.72-4.04-1.79-7.94-5.99-8-.04,1.84-.6,3.46-.67,5.34ZM115.13,338.67c-2.14-.72-10.27-6.37-11.07-6.53-1.12-.22-6.05,2.28-8.22,1.21,4.19,8.45,13.01,14.09,22.37,15.24,1.42.17,3.84.6,4.91-.58.43,0,.91.05,1.33,0,6.97-.87,11.41-2.87,11.31-10.65l-2.21-.47-13.09,2.45c-1.44-.24-4.12-.26-5.32-.67ZM215.61,350c-2.21,2.74-3.32,4.74-6.65,6.67-4.39,2.55-7.75,2.31-12.13,3.52-3.42.95-6.46,3.56-9.17,5.81,10.13,3.23,19.6,2.72,27.95-3.99,2.81-2.26,3.3-3.35,5.32-6,4.28-5.59,6.52-6.71-.33-12.65-1.58,2.29-3.25,4.49-4.99,6.65ZM154.39,350.67c-1.73.51-6.19,1.24-7.99,1.33-6.04.33-8.8-2.13-13.06-2.45-2.98-.22-6.48,1.91-9.56.45-1.85,2.02,5.96,6.84,7.39,7.59,3.99,2.09,8.09,3.33,12.57,3.74,4.78.44,8.77-.75,13.31-2.67,4.9-2.07,11-5.64,6.56-11.57-.42-.56-.63-1.31-1.52-1.07-1.83,1.69-5.36,3.94-7.7,4.64ZM186.33,354c-1.61,1.21-7.25,3.53-9.32,4-4.52,1.02-8.92,0-12.83.81-2.87.59-5.92,3.39-9.13,3.52,8.58,5.46,16.46,6.32,25.95,3,2.78-.97,3.42-1.3,5.99-2.67,1.62-.86,2.82-.8,4.67-2.32,4.27-3.5,4.5-8.08.22-11.63-1.46-.24-4.46,4.45-5.56,5.28Z"/><path class="c" d="M310.77,114.67c-5.04-.96-10.21-.92-15.31-1.33-21.82-1.76-44.3-3.86-66.24-2.69-15.17.81-28.81,6.99-43.86,7.39-15.79.42-23.27-4.01-37.37-5.95-27.82-3.83-58.24.33-86.1,2.59-2.17.18-4.21-.54-5.99,1.33,1.14-3.02,2.21-4.18,4.65-6.33-1.38-1.64-3.34-3.02-4.63-4.68-12.73-16.32-13.23-41.97,5.34-53.96,16.72-10.79,30.94-7.45,47.67.85,2.19,1.09,5.97,4.8,7.84,4.83,16.86-6.59,34.1-12.6,52.59-11.37,4.39.29,8.93,1.87,13.29,2.02,4.8.17,9.27-1.66,14.01-2.02,18.75-1.43,37.02,4.12,54.51,9.99,1.95-.11,8.41-6.19,11.23-7.46,17.15-7.74,39.44-5.04,51.04,10.46,12.29,16.43,8.34,37.14-5.92,50.8-.31,1.18,2.35,3.9,3.26,5.53ZM256.87,62.67c-.47.69-1.02,1.01-1.33,2-1.07,1.25-.12,1.59-1.76.78-2.77-1.35-5.5-3.7-8.29-5.04-11.71-5.61-21.41-6.06-34.22-5.77-1.19.03-5.36,1.53-4.63-.61l.99-2.69c-.45-.46-5.07,1.15-5.99,1.33-4.59.89-13.58,3.36-17.64,3.39-2.59.02-4.98-1.48-7.64-2.06-4.6-.99-9.29-2.18-13.98-1.33l.67,2.66c-13.63-1.65-27.25-1.02-39.71,5.22-1.84.92-3.42,2.55-4.87,3.45-2.64,1.64-5.69,2.68-7.65,5.32-1.61-1.64-2.77-3.63-4.33-5.32-9.42-10.22-22.25-14.32-35.94-10.67-4.18,1.12-7.72,2.69-10.65,6-7.49,8.48-7.33,21.94-3.81,32.15,1.66,4.82,5.37,10.12,10.43,11.15,4.02-6.25.85-6.05-.98-10.63-2.83-7.1-1.48-15.57,3-21.68,2.71-3.7,9.29-5.34,13.67-5.03,3.73.26,8.29,3.54,11.62,5.37,2,1.1,4.29,2.28,6.2,3.45.9.55,4.63,2.68,4.44,3.54-.36,1.6-10.14,1.76-11.99,2.67-1.45.78,1.23,1.9,1.38,3.38.28,2.79-4.48,4.12-6.36,5.64-1.11.9-2.74,2.56-3.65,3.68-2.4,2.94-5.48,11.17-7.37,12.62-2.1,1.6-9.94,1.26-13.27,2.71-1.08.47-2.25.84-1.99,2.33,1.97-.63,4.26-1.1,6.32-1.33,33.35-3.59,60.36-3.52,93.34,1.81,20.84,3.37,33.18.36,53.14-2.41s42.85-2.78,63.47-1.41c.1,0,.75.63,1.61.69,7.89.57,15.79.95,23.68,1.97-1.83-2.8-8.47-2.47-10.64-3.66-.6-.33-6.38-9.09-7.99-11-1.15-1.36-2.49-3.56-3.66-4.66-3.09-2.9-13.79-6.75-6.07-9.3l.09-1.38-10.31-2.68c-.66-2.65.73-2.43,1.98-3.97,5.19.71,10.61-7.15,15-7.97,6.82-1.27,16.09.55,19.07,7.5,2.02,4.71,3.45,13.26,1.82,18.09-1.25,3.68-6.28,8.79.24,10.3.86-.23,5.1-4.85,5.79-5.93,4.79-7.45,5.15-17.61,3.33-26-1.1-5.04-3.58-9.24-7.32-12.67-4.79-4.39-7.11-4.57-13.31-5.33-11.45-1.41-26.73.87-33.94,11.33Z"/><path class="c" d="M310.77,114.67c.13.23.56.43.67.67l-1.58,1.97-14.39-1.97v-2c5.09.41,10.27.37,15.31,1.33Z"/><path class="c" d="M295.47,113.33v2c-27.84-.88-57.73-4.88-85.3.21-20.33,3.76-26.06,6.66-47.65,1.98-28.98-6.29-52.55-3.68-81.63-2.16-6.87.36-13.84-.22-20.65,1.32l1.65-2.01c27.86-2.26,58.28-6.42,86.1-2.59,14.1,1.94,21.59,6.38,37.37,5.95,15.05-.4,28.69-6.58,43.86-7.39,21.94-1.17,44.43.94,66.24,2.69Z"/><path class="b" d="M87.84,180l-6.62-.7c.84-4.51-3.95-6.58-3.36-11.3,2.68,5.24,5.37,8.46,9.98,12Z"/></svg>