<?xml version="1.0" encoding="UTF-8"?><svg id="a" xmlns="http://www.w3.org/2000/svg" viewBox="0 0 368.67 382.67"><defs><style>.b{fill:#3b3b3b;}.c{fill:#bdbdbd;}.d{fill:#6f6f6f;}.e{fill:#c3c3c3;}.f{fill:#454545;}.g{fill:#484848;}.h{fill:#333;}.i{fill:#575757;}.j{fill:#a2a2a2;}.k{fill:#9c9c9c;}.l{fill:#414141;}.m{fill:#747474;}.n{fill:#606060;}.o{fill:#9d9d9d;}.p{fill:#bcbcbc;}.q{fill:#bababa;}.r{fill:silver;}.s{fill:#424242;}.t{fill:#494949;}.u{fill:#9e9e9e;}.v{fill:#1a1a1a;}.w{fill:#565656;}.x{fill:#4e4e4e;}.y{fill:#929292;}.z{fill:#a5a5a5;}.aa{fill:#9b9b9b;}.ab{fill:#7e7e7e;}.ac{fill:#959595;}.ad{fill:#bebebe;}.ae{fill:#999;}.af{fill:#525252;}.ag{fill:#7d7d7d;}.ah{fill:#3e3e3e;}.ai{fill:#9a9a9a;}.aj{fill:#595959;}.ak{fill:#3f3f3f;}.al{fill:#5a5a5a;}.am{fill:#5f5f5f;}.an{fill:#bbb;}.ao{fill:#9f9f9f;}.ap{fill:#c1c1c1;}.aq{fill:#bfbfbf;}</style></defs><path class="v" d="M295.47,115.33l14.39,1.97,1.58-1.97c2.58,6.03,1.31,8.18-2.44,13,3.47,4.93,6.99,9.92,9.88,15.22,1.49,2.75,6.69,11.94,5.55,14.43-.54,1.18-2.88,1.93-2.96,3.64,4.06,14.73,6.57,29.92,5.97,45.27-.28,1.2-3.43.61-4.09,1.52-.45.62-3.98,13.44-3.98,14.59,0,4.52,5.05,11.44,6.83,15.88,4.11,10.28,4.16,20.3.57,30.81-1.1,3.24-3.56,6.34-4.5,9.5-2.14,7.18-1.56,14.5-6.49,20.83-4.1,5.26-13.64,10.7-16.14,15.83-5.32,10.9-4.85,13.64-15.95,20.69-7.21,4.59-11.62,8.14-18.36,12.94-7.09,5.06-11.11,4.6-17.59,7.71-1.76.85-2.71,2.77-4.22,3.77-5.69,3.75-12.37,5.42-19.11,6.25-1.61.2-2.86-.71-4.31-.44-2.19.4-6.92,5-9.99,6.05-10.97,3.75-19.59-2.01-28.73-.78-7.09.96-9.91,2.58-17.92,1.21s-9.93-6.16-13.55-7.09c-5.76-1.47-12.91-.09-19.73-2.9-3.92-1.61-6.64-6.35-9.23-7.44-2.01-.85-2.91.13-4.52-.11-2.58-.37-17.23-10.22-19.61-12.37s-4.08-6.84-6.07-8.59-6.45-2.4-9.34-3.98c-5-2.74-11.37-9.55-14.1-14.54-1.04-1.9-.93-4.29-2.45-6.21-1.24-1.57-3.48-2.29-4.97-3.69-8.87-8.33-11.54-17.79-15.26-28.71-1.15-3.38-3.58-6.54-4.72-9.94-3.21-9.6-2.76-18.28,2.33-27.05,2.2-3.78,7.85-8.32,8.33-12.37.2-1.72-4.5-20.26-5.37-20.89l-3.52.58c-1.65-.46-1.22-10.13-1.11-12.32.27-5.44,1.25-12.38,2.22-17.78.55-3.06,4.59-16.13,3.65-17.73-.43-.73-3.47-1-3.09-3.63.31-2.14,4.47-9.92,5.78-12.28,1.51-2.74,9.77-13.75,10.02-14.69.57-2.13-3.88-3.98-4.46-6.68-.5-2.35.4-4.69,1.21-6.85,1.78-1.88,3.82-1.16,5.99-1.33l-1.65,2.01c6.8-1.54,13.77-.96,20.65-1.32,29.08-1.52,52.65-4.13,81.63,2.16,21.59,4.68,27.31,1.78,47.65-1.98,27.58-5.09,57.46-1.09,85.3-.21ZM77.19,144c.3,4.09,1.19,8.09,2.32,12.01.79,2.71,3.15,12.85,6.36,8.83,3.21-5.97,7.61-11.19,11.28-16.84,3.78-3.66,6.84-8.05,10.39-11.92,3.18-3.47,10.04-8.92,12.26-12.38.53-.82.82-1.32.63-2.36l-22.29-1.33c-10.45,1.46-25.83-.75-22.9,14.92l1.93,9.07ZM232.77,120.86c-6.27.27-18.04,2.22-23.63,4.99-1,.49-1.52.95-2.04,1.96-2.2,4.26-.18,32.42,4.92,33.49,1,.13,1.34-.77,1.88-1.35,3.56-3.84,7.44-11.63,11.05-16.26,3.39-4.35,14.12-14.39,15.6-18.38,2.16-5.82-4.21-4.59-7.77-4.44ZM317.42,148.66c.82-.75-9.2-17.06-12.22-17.28l-8.73,8.63c-2.21,20.82-10.02,44.09-33.37,47.9-9.75,1.59-19.72.49-29.52.09,2.24,5.54,6.17,10.4,8.31,16.01,11.87,31.19,2.05,52.13-13.91,78.05-.52.84-3.02,4.58-2.38,5.27,9.49-4.42,16.06-12.42,23.63-19.32,2.22-.23.1,2.06-.17,3.17-.52,2.14-1.83,5.14.16,6.81,3.45-5.01,8.32-8.49,12.34-12.97,6.24-6.96,11.68-14.59,16.95-22.34,1.39-.22,1.12.32.71,1.38-1.66,4.22-5.49,13.06-6.35,16.98-.29,1.34-.24,1.92,1.3,1.64.87-3.4,3.97-6.27,5.89-9.11,7.27-10.77,11.57-22.32,14.76-34.89,1.76-.17,1.07-.03,1.31.99.57,2.46,1.45,5.81,1.85,8.16.17.99-.29,8.47,1.49,7.19,8.14-11.14,10.82-22.72,7.32-36.34,1.72-.4,1.16.51,1.71,1.26,1.86,2.53,2.69,4.67,4.12,7.21.42.73-.07,1.15,1.48.86,1.38-10.15.77-20.55-.66-30.67,1.92-.37,1.06.56,1.5,1.46.81,1.67,3.94,8.41,4.84,9.18.84.72,1.14.87,2.3.69-.4-13.97-3.65-25.83-10.38-37.93-.23-.42-4.07-4.93-1.27-4.06,2.04.63,4.36,2.46,7,1.99ZM77.86,168c-2.91-8.57-4.43-21.21-7.78-29.21-.8-1.92-5.16-6.54-7.06-6.06-1.7.44-8.14,11.24-8.78,13.28-1.13,3.61,1.78.71,2.77.1,1.41-.87,3.29-2.15,4.88-2.44-1.28,2.56-2.61,5.17-4,7.66-.08.15-.68.3-.92.75-5.85,10.66-8.71,21.05-9.72,33.25,1.46,1.47,3.73-4.87,3.99-5.33.39-.67,1.18-2.49,1.33-2.67.17-.21,1.92-1.43,1.99-1.33-.37,2.21-.45,4.45-.66,6.67-.01.14-.64.74-.69,1.61-.19,3.02.1,24.12,1.37,25.05,2.78-2.32,4.57-6.34,6.65-9.33.35-.5.47-1.05.67-1.33,2.01-.37,1.29,1.02,1.33,2.3.24,7.24-.75,14.77.86,21.83,1.2,5.26,3.96,9.86,6.47,14.53,1.73.21,1.05-.02,1.34-.96,1.3-4.22.03-9.31,1.81-13.53.4-.95.14-1.01,1.49-.84,1.35,11.47,6.77,22.81,13.7,31.94.68.9,6.59,8.45,7.59,7.39-1.06-6.74-3.29-14.13-3.35-20.98,0-.58-.26-2.34,1.01-1.68.9.47,6.47,15.83,8.07,18.59,2.06,3.58,4.68,5.5,6.9,8.42,1.65,2.18,7.26,10.9,9.01,11.64,2.6,1.1-1.96-6.47.65-5.32,1.42.62,5.36,5.02,7.05,6.27,2.93,2.17,9.3,6.95,12.24,8.42.79.39,1.52.84,1.68-.38.19-1.41-12.07-21.37-13.64-24.99-.98-2.26-2.14-6.07-2.81-8.52-1.23-4.45-1.86-8.99-2.85-13.48,1.05-18.86.09-26.66,9.32-44,.37-.7.95-1.31,1.33-2,1.09-1.97,3.88-4.45,1.55-6.7-10.93.33-20.67,2.5-31.5-.3-2.63-.68-9.1-3.02-11.31-4.34-1.23-.73-1.44-1.57-2-2-4.61-3.54-7.3-6.76-9.98-12ZM163.04,168c-1.06.3-16.3,11.23-17.97,12.67-12.29,10.59-18.41,44.13-15.88,59.58,1.67,10.18,6.58,18.57,18.15,17.03,4.18-.55,27.75-10.58,30.66-13.28,4.57-4.24,5.45-10.4-.33-14-3.71-2.31-8.6-2.26-12.57-4.41-12.82-6.94-17.04-31.63-2.99-38.84,9.8-5.04,34.22-5.43,43.86-.1,13.16,7.27,9.87,30.3-1.46,37.91-3.88,2.61-9.3,3.22-13.53,5.44-1.22.64-1.96.38-2.95,2.05-2.78,4.74-1.12,8.46,2.62,11.95,2.71,2.52,26.32,13.01,29.95,13.33,21.12,1.83,18.55-30.03,16.1-43.46-2.05-11.28-5.98-25.16-15.11-32.53-3.82-3.08-8.31-4.78-11.92-7.72-2.07-1.68-3.41-4.28-5.38-4.94l-4.98-10.01-5.39-20.6c-2.96-5.04-15.74-5.52-19.89-1.36-2.34,10.33-5.36,19.56-10.64,28.71-.52.91-1.24,1.53-.36,2.6ZM220.94,172.67c-1.17,1.23,4.12,4.3,4.97,4.68,11.18,5.17,39.81,4.42,49.61-3.67,6.18-5.09,9.17-15.82,10.44-23.54.12-.73,1.56-13.59-.47-10.81.04,7.4-2.01,16.34-5.45,22.88-8.77,16.69-35.76,17.96-51.8,13.46-2.54-.71-4.79-2.22-7.3-3.01ZM151.06,168c-.43-.42-8.45,5.18-9.82,5.82-10.72,4.98-28.84,6-40.07,2.5-2.94-.92-6.1-3.16-8.68-3.98-1.19-.38-1.14-.35-1.96.66,1.18,1.5,2.5,2.31,4.19,3.13,11.18,5.42,35.13,5.3,46.53.36,1.17-.51,11.41-6.97,9.83-8.48ZM157.71,200c-.13,1.34-.2,3.44.33,4.66,2.61-4.39,2.81-7.33,8.65-8,9.06-1.03,15.3-.46,12.98,10-2.61,11.72-12.71,16.29-20.62,6-.42,5.92,4.39,7.91,9.57,7.93,5.56.02,9.86-2.5,12.68-7.3,1.24-2.1,1.04-3.74,1.7-5.3.13-.31,1.89-1.19,1.34-2.67.73-.11,1.26.01,1.66.66.7,1.13.94,6.53,2.2,9.12.73,1.51,3.49,4.93,5.11,4.87,2.88-.11-1.99-5.32-2.23-5.75-4.76-8.65-6.41-18.34,6.86-17.58,11.21.65,12.43,8.71,9.67,18.01-1.48.84-2.39,2.06-4.19,2.8-1.98.81-5.18.83-6.46,1.52-1.89,1.02,1.14,1.71,2.34,1.73,4.14.09,8.52-2.2,10.32-6.06,1.42-3.05,1.49-4.98,1.32-8.33-.19-3.82-.92-10.76-3.98-13.01-7.39-5.42-29.27-4.7-37.93-2.33-5.42,1.49-10.73,2.72-11.32,9ZM318.08,273.33c1.17-1.08,3.83-13.42,3.99-15.67.57-7.99-1.6-16.66-7.3-22.32-.53,3.05-2.62,6.62-2.69,9.69-.08,3.29,2.06,8.27,2.07,11.97,0,2.24-1.55,7.46-1.23,9.25.07.35,3.03,4.73,3.77,6.13.26.5.18,2.06,1.38.95ZM49.24,268.67c1.28,2.08,1.57,2.75,3.33,4.67,3.4,3.69,6.36,6.04,11.87,5.22,4.65-6.96-3.29-7.89-7.21-11.88-.87-.89-2.22-3.41-2.66-4.67-.51-1.45-1.18-3.5-1.34-5-.37-3.67.83-11.84-.1-14.56s-4.44-1.41-5.9.54c-5.35,7.2-2.14,18.96,2.01,25.68ZM57.23,252.67l3.24-5.11-3.24-4.22v9.33ZM307.44,255.34l.66-7.34-5.98,6.34,5.32,1ZM74.53,258.66c-2.02-4.44-4.74-6.47-9.31-7.99-.11,6.57,1.89,4.57,6.15,6.16,1.31.49,1.64,2.04,3.16,1.83ZM161.04,257.33c-1.33.38-2.66.96-3.99,1.33-2.92.83-6.32,1.31-9.32,2,.31,13.08,14.58,17.06,24.16,22.79,3.93,2.35,7.57,5.25,11.44,7.68,4.55-2.85,8.83-6.26,13.44-9.01,8.75-5.24,22.99-8.94,22.14-21.44-2.27-.1-4.45-.8-6.63-1.36-1.08-.28-2.42-.38-3.33-.67-4.73-1.47-9.49-4.29-14.47-5.18-13.04-2.31-21.37.35-33.45,3.84ZM290.14,266.67c-.2,3.66,0,6.48.67,10,.29,1.55.57,4.32,1.62,5.38.98.99,7.16,3.36,8.06,1.98,2.48-3.81-3.43-22.4.3-28.02l-9.71,5.93c-1.38,1.28-.85,3.11-.93,4.73ZM75.2,264c-4.65-4.29-10.22-6.65-16.62-4.64-.05,3.65,3.61,5.82,5.97,7.97s6.18,4.43,7.99,6.67c1.45,1.8,3.42,5.6,3.35,7.97l8.62.69c-.45-5.39-2.99-10.31-5.99-14.66-1.32-1.93-1.51-2.32-3.33-4ZM311.44,292.67c2.74-8.23,3.62-13.11.7-21.7-1.97-5.77-4.05-6.13-10.01-5.63,2.05,7.95,5.19,14.77,2.7,23.03-.86,2.86-4.11,6.54-4.56,8.1-.66,2.29.17,5.73-.14,8.19,2.48.08,3.78-1.59,5.32-2.66,4.98-3.46,4.15-3.83,5.99-9.33ZM279.49,282.67c-1.93,3.08-3.19,5.06-3.99,8.67-.85,3.8-.87,7.54-.56,11.56l6.89,4.42c1.53-.11,2.53-10.13,2.99-11.98.68-2.77,1.7-5.34,2.66-8,.3-.82,1.35-1.66,1.7-3.29.88-4.13-.17-6.19-2.69-9.36-3.13,1.67-5.14,5.02-6.99,7.98ZM65.22,302c2.77,1.9,3.23,2.37,6.65,3.33,3.22.91,10.35,2.23,12.04-1.6,2.41-5.46-4.74-5.46-8.71-7.06-1.74-.7-4.49-1.64-5.99-2.67-.41-.28-4.2-3.81-4.66-4.33-1.54-1.76-3.99-7.4-4.68-7.98-.3-.26-7.03-3.3-7.3-3.01,1.38,9.31,4.71,17.91,12.64,23.33ZM86.51,296c.54.25,3.3,2.16,3.99,2.67,1.64,1.21,5.39,5.9,5.79,6.01,1.49.4,5.75.16,7.23-.64,1.35-1.83-5.37-10.42-7.03-12.04-3.63-3.5-6.53-4.72-11.31-6s-9.6-2.17-12.48,3.01c3.24,4.61,9.43,4.93,13.81,6.99ZM278.17,330.67c7.4-4.82,13.84-10.85,16.93-19.36,2.52-6.92,6.15-21.74-5.63-20.64-.89,7.51.23,13.46-3.2,20.46-1.31,2.68-5.9,7.46-6.39,8.9-.99,2.92-1.5,7.5-1.71,10.64ZM257.53,305.33c-1.24,2.89-1.32,3.78-2,6.67-.16.67-1.08,1.51-1.28,3.05-.22,1.78-.36,6.95.08,8.48s5.32,5.06,6.59,3.4c1.87-2.46,2.56-9.61,3.92-12.92.24-.58,1.01-2.1,1.33-2.67,1.33-2.32,5.26-5.82,5.85-8.47.4-1.8.51-7.22-.54-8.51-5.21-6.42-12.33,7.19-13.96,10.99ZM96.49,316c5.12,1.74,10.42,1.37,15.31,2.67,2.38.63,7.91,4.32,9.1,4.53s5.9-3.02,8.2-1.87c-3.75-5.97-9.15-10.63-15.97-12.66-3.53-1.05-4.9-1.28-8.65-1.33-4.72-.07-11.82-.03-13.26,5.6,1.39,1.64,3.33,2.41,5.27,3.07ZM90.5,329.33c2.75.67,4.44.79,7.32.67,6.03-.26,11.07-.96,11.98-7.99-4.41-1.09-8.78-.48-13.31-1.34-1.16-.22-5.63-1.54-6.65-2-4.22-1.89-8.38-7.96-10.67-8.98-1.38-.62-4.66-.83-6.63-1.37-.78-.21-.95-.75-.68.69,1.55,8.22,10.41,18.32,18.64,20.33ZM238.24,318.67c-2.36,2.63-3.25,4.19-4.66,7.33-1.68,3.78-6.12,15.7-.2,17.26,3.44.91,8.21-10.82,9.51-13.26.75-1.41,1.01-2.44,2-4,1.95-3.09,7.29-7.39,7.34-10.33.09-4.9-4.61-3.02-7.79-1.79s-4.04,2.36-6.21,4.78ZM267.52,323.33c-.36,1.29-3.09,6.2-3.99,7.33-1.99,2.51-5.71,4.79-7.87,7.78-2.43,3.36-3.85,7.73-5.43,11.55,8.51-2.93,15.34-6.67,20.63-14,1.04-1.44,1.78-2.35,2.66-4,.12-.23.88-.39,1.32-1.65,2.33-6.65,2.99-16.12-5.97-17.02-.36.35-.95,8.61-1.33,10ZM129.1,324c-.81.08-2.5.44-3.33.67-3.1.83-10.1,4.39-7.27,8.28,1.38,1.9,9.73.93,12.59,1.06.88.04,1.78-.05,2.66,0,4.6.24,9.19.7,13.6,1.99l7.01-4.32c-6.31-7.06-16-10.09-25.27-7.67ZM216.94,328.67c-1.86,1.17-3.7,2.52-5.32,4-4.61,4.2-10.97,11.83-6.54,18.22.6.86,1.3,2.27,2.55,1.48,2.49-3.08,5.31-5.83,7.99-8.72.66-.71.93-1.9,1.33-2.32.93-.99,2.35-2.43,3.33-3.33s2.69-2.55,3.75-3.24c1.15-.74,3.41-.93,4.08-1.58.93-.92,1.71-5.96,2.81-7.49-.48-2.44-11.02.85-12.86,1.8-.74.38-.94,1.07-1.12,1.18ZM151.73,336c-2.72,1.58-8.74,5.34-6.34,9.34s8.8-1.26,10.99-2.01c1.86-.64,5.85-1.08,7.99-1.33,3.4-.4,6.9-1.03,10.24-.16l6.38-5.51c-2.73-3.08-6.45-5.05-10.63-5-6.66-.73-12.97,1.38-18.63,4.67ZM188.99,334.67c-2.82,1.55-4.21,2.72-6.65,4.67-5.32,4.25-9.67,5.96-5.95,13.97,5.06,0,8.35-4.92,11.94-7.3.98-.65,3.68-2.26,4.66-2.67,2.4-1,7.18-1.46,8.61-2.38.48-.31,4.74-6.15,4.67-6.55-3.28-3.83-9.85-3.14-14.25-1.71-1.63.53-2.03,1.42-3.03,1.97ZM245.56,336.67c-2.19,1.74-3.14,5.43-4.66,7.33-1.3,1.64-5.89,5.35-7.77,6.55-1.7,1.08-6.44,2.7-7.36,3.63s-2.22,5.12-3.5,6.48c12.28,1.19,21.64-5.62,27.28-15.99.63-1.15,2.5-4.39,2.66-5.33.72-4.04-1.79-7.94-5.99-8-.04,1.84-.6,3.46-.67,5.34ZM115.13,338.67c-2.14-.72-10.27-6.37-11.07-6.53-1.12-.22-6.05,2.28-8.22,1.21,4.19,8.45,13.01,14.09,22.37,15.24,1.42.17,3.84.6,4.91-.58.43,0,.91.05,1.33,0,6.97-.87,11.41-2.87,11.31-10.65l-2.21-.47-13.09,2.45c-1.44-.24-4.12-.26-5.32-.67ZM215.61,350c-2.21,2.74-3.32,4.74-6.65,6.67-4.39,2.55-7.75,2.31-12.13,3.52-3.42.95-6.46,3.56-9.17,5.81,10.13,3.23,19.6,2.72,27.95-3.99,2.81-2.26,3.3-3.35,5.32-6,4.28-5.59,6.52-6.71-.33-12.65-1.58,2.29-3.25,4.49-4.99,6.65ZM154.39,350.67c-1.73.51-6.19,1.24-7.99,1.33-6.04.33-8.8-2.13-13.06-2.45-2.98-.22-6.48,1.91-9.56.45-1.85,2.02,5.96,6.84,7.39,7.59,3.99,2.09,8.09,3.33,12.57,3.74,4.78.44,8.77-.75,13.31-2.67,4.9-2.07,11-5.64,6.56-11.57-.42-.56-.63-1.31-1.52-1.07-1.83,1.69-5.36,3.94-7.7,4.64ZM186.33,354c-1.61,1.21-7.25,3.53-9.32,4-4.52,1.02-8.92,0-12.83.81-2.87.59-5.92,3.39-9.13,3.52,8.58,5.46,16.46,6.32,25.95,3,2.78-.97,3.42-1.3,5.99-2.67,1.62-.86,2.82-.8,4.67-2.32,4.27-3.5,4.5-8.08.22-11.63-1.46-.24-4.46,4.45-5.56,5.28Z"/><path class="v" d="M310.77,114.67c-5.04-.96-10.21-.92-15.31-1.33-21.82-1.76-44.3-3.86-66.24-2.69-15.17.81-28.81,6.99-43.86,7.39-15.79.42-23.27-4.01-37.37-5.95-27.82-3.83-58.24.33-86.1,2.59-2.17.18-4.21-.54-5.99,1.33,1.14-3.02,2.21-4.18,4.65-6.33-1.38-1.64-3.34-3.02-4.63-4.68-12.73-16.32-13.23-41.97,5.34-53.96,16.72-10.79,30.94-7.45,47.67.85,2.19,1.09,5.97,4.8,7.84,4.83,16.86-6.59,34.1-12.6,52.59-11.37,4.39.29,8.93,1.87,13.29,2.02,4.8.17,9.27-1.66,14.01-2.02,18.75-1.43,37.02,4.12,54.51,9.99,1.95-.11,8.41-6.19,11.23-7.46,17.15-7.74,39.44-5.04,51.04,10.46,12.29,16.43,8.34,37.14-5.92,50.8-.31,1.18,2.35,3.9,3.26,5.53ZM256.87,62.67c-.47.69-1.02,1.01-1.33,2-1.07,1.25-.12,1.59-1.76.78-2.77-1.35-5.5-3.7-8.29-5.04-11.71-5.61-21.41-6.06-34.22-5.77-1.19.03-5.36,1.53-4.63-.61l.99-2.69c-.45-.46-5.07,1.15-5.99,1.33-4.59.89-13.58,3.36-17.64,3.39-2.59.02-4.98-1.48-7.64-2.06-4.6-.99-9.29-2.18-13.98-1.33l.67,2.66c-13.63-1.65-27.25-1.02-39.71,5.22-1.84.92-3.42,2.55-4.87,3.45-2.64,1.64-5.69,2.68-7.65,5.32-1.61-1.64-2.77-3.63-4.33-5.32-9.42-10.22-22.25-14.32-35.94-10.67-4.18,1.12-7.72,2.69-10.65,6-7.49,8.48-7.33,21.94-3.81,32.15,1.66,4.82,5.37,10.12,10.43,11.15,4.02-6.25.85-6.05-.98-10.63-2.83-7.1-1.48-15.57,3-21.68,2.71-3.7,9.29-5.34,13.67-5.03,3.73.26,8.29,3.54,11.62,5.37,2,1.1,4.29,2.28,6.2,3.45.9.55,4.63,2.68,4.44,3.54-.36,1.6-10.14,1.76-11.99,2.67-1.45.78,1.23,1.9,1.38,3.38.28,2.79-4.48,4.12-6.36,5.64-1.11.9-2.74,2.56-3.65,3.68-2.4,2.94-5.48,11.17-7.37,12.62-2.1,1.6-9.94,1.26-13.27,2.71-1.08.47-2.25.84-1.99,2.33,1.97-.63,4.26-1.1,6.32-1.33,33.35-3.59,60.36-3.52,93.34,1.81,20.84,3.37,33.18.36,53.14-2.41s42.85-2.78,63.47-1.41c.1,0,.75.63,1.61.69,7.89.57,15.79.95,23.68,1.97-1.83-2.8-8.47-2.47-10.64-3.66-.6-.33-6.38-9.09-7.99-11-1.15-1.36-2.49-3.56-3.66-4.66-3.09-2.9-13.79-6.75-6.07-9.3l.09-1.38-10.31-2.68c-.66-2.65.73-2.43,1.98-3.97,5.19.71,10.61-7.15,15-7.97,6.82-1.27,16.09.55,19.07,7.5,2.02,4.71,3.45,13.26,1.82,18.09-1.25,3.68-6.28,8.79.24,10.3.86-.23,5.1-4.85,5.79-5.93,4.79-7.45,5.15-17.61,3.33-26-1.1-5.04-3.58-9.24-7.32-12.67-4.79-4.39-7.11-4.57-13.31-5.33-11.45-1.41-26.73.87-33.94,11.33Z"/><path class="f" d="M310.77,114.67c.13.23.56.43.67.67l-1.58,1.97-14.39-1.97v-2c5.09.41,10.27.37,15.31,1.33Z"/><path class="u" d="M196.31,166.67c2.38.52,5.75,1.24,7.99,2,1.97.67,3.31,3.26,5.38,4.94,3.61,2.94,8.1,4.64,11.92,7.72-1.41,1.11-1.45.13-.79,1.77,1.93,4.79,4.41,10.67,5.79,15.56,3.06,10.87,5.68,38.97-.32,48.36-5.26,8.23-17.62.52-24.82-1.18-7.64-4.31-11.01-5.64-8.47-15.51l-2-.34c4.23-2.23,9.65-2.84,13.53-5.44,11.33-7.61,14.62-30.64,1.46-37.91-9.64-5.33-34.06-4.93-43.86.1-14.04,7.22-9.83,31.9,2.99,38.84,3.97,2.15,8.86,2.11,12.57,4.41-.65.93-2.1.04-1.87,1.5,1.03,6.59.85,7.67-4.56,11.72-6.43,4.81-17.85,8.37-25.84,7.45-6.64-.77-8.73-5.75-9.58-11.74-1.66-11.72.4-27.92,3.96-39.22.92-2.92,8.53-18.82,7.94-19.71l-2.66.67c1.67-1.44,16.91-12.36,17.97-12.67,3.34-.96,9.59-1.43,13.31-2,8.69-1.32,11.27-1.24,19.96.67Z"/><path class="b" d="M317.42,148.66c-2.64.48-4.96-1.35-7-1.99-2.8-.87,1.04,3.64,1.27,4.06,6.73,12.09,9.98,23.96,10.38,37.93-1.16.18-1.47.03-2.3-.69-.9-.77-4.03-7.51-4.84-9.18-.44-.9.42-1.84-1.5-1.46,1.42,10.12,2.04,20.51.66,30.67-1.55.29-1.06-.13-1.48-.86-1.44-2.54-2.26-4.69-4.12-7.21-.55-.75,0-1.66-1.71-1.26,3.5,13.62.82,25.2-7.32,36.34-1.78,1.29-1.32-6.19-1.49-7.19-.4-2.35-1.27-5.7-1.85-8.16-.24-1.02.45-1.17-1.31-.99-3.19,12.56-7.49,24.11-14.76,34.89-1.92,2.84-5.01,5.71-5.89,9.11-1.53.29-1.59-.3-1.3-1.64.86-3.92,4.69-12.76,6.35-16.98.41-1.05.69-1.59-.71-1.38-5.27,7.75-10.71,15.38-16.95,22.34-4.02,4.48-8.89,7.96-12.34,12.97-1.99-1.68-.68-4.67-.16-6.81.27-1.11,2.39-3.39.17-3.17-7.57,6.91-14.14,14.91-23.63,19.32-.64-.69,1.86-4.43,2.38-5.27,15.96-25.91,25.78-46.86,13.91-78.05-2.13-5.61-6.06-10.47-8.31-16.01,9.8.4,19.77,1.5,29.52-.09,23.35-3.81,31.16-27.08,33.37-47.9l8.73-8.63c3.02.22,13.04,16.53,12.22,17.28ZM302.78,143.34c-1.76-.17-1.08-.03-1.31,1-5.99,26.54-15.77,50.51-46.96,51.03-1.71.03-10.72-2.01-10.92.3,3.4,8.94,6.67,18.54,7.89,28.08.64,5.01.18,10.57.7,15.3.11,1.01.06,1.66,1.03,2.29,1.75-.02,9.66-16.64,10.63-19.34,1.04-2.88.44-6.58,3.34-8.64,4.07,4.36,2.45,9.37,2.29,14.31-.06,1.92.17,4.96,2.51,2.8,3.51-3.24,7.55-9.71,9.51-14.13,1.29-2.91,4.05-14.46,6.43-14.89,1.19-.22,3.33,2.46,4.57.57,1.86-3.15-.23-14.15,2.31-15.7,6.24-1.08,8.45,5.6,12.1,9.24.59.58.58,1.45,1.87,1.12,2.89-18.03-.71-36.12-5.99-53.33Z"/><path class="i" d="M52.57,177.33c-1.26-2.25.18-8.24.98-10.68,2.19-6.67,7.71-12.44,8.93-19.72.27-1.64-.46-5.11.7-5.97l2.02-.29c5.65,12.65,5.65,31.79,16.34,41.31,3.35,2.98,12.8,9.14,16.95,10.35,9.54,2.8,18.92.09,28.29,1,1.18.11,3.39.17,2.99,2-9.22,17.34-8.27,25.14-9.32,44-.04.77.03,1.55,0,2.33-.27,1.93-3.83-3.39-4.12-3.86-1.7-2.75-8.01-18.48-11.45-17.77-2.8.58-4.98,17.88-4.39,20.97,0,.59-1.35.44-1.65.32-1.22-.52-5.76-11.93-7.14-14.18-2.82-4.61-6.85-8.13-9.11-13.54-1.96-4.67-1.81-10.04-4.04-14.62-2.06-1.58-4.77,5.36-7.34,4.07-2.82-1.41-.04-8.64-2.36-11.06-2.35-.41-5.74,4.92-6.96,6.68-.19.28-.32.83-.67,1.33-2.06.64-3,1.32-4.15-.85-2.27-4.3-1.78-11.64-3.17-16.49.21-2.22.29-4.46.66-6.67-.07-.1-1.82,1.12-1.99,1.33Z"/><path class="b" d="M61.89,198.67c1.22-1.76,4.61-7.09,6.96-6.68,2.32,2.42-.46,9.65,2.36,11.06,2.57,1.28,5.27-5.66,7.34-4.07,2.23,4.59,2.09,9.95,4.04,14.62,2.26,5.4,6.29,8.93,9.11,13.54,1.38,2.25,5.93,13.66,7.14,14.18.29.12,1.65.27,1.65-.32-.59-3.09,1.59-20.39,4.39-20.97,3.43-.71,9.75,15.02,11.45,17.77.29.48,3.86,5.8,4.12,3.86.03-.77-.05-1.56,0-2.33.99,4.49,1.63,9.02,2.85,13.48.67,2.45,1.83,6.26,2.81,8.52,1.56,3.62,13.83,23.58,13.64,24.99-.16,1.21-.9.77-1.68.38-2.93-1.47-9.31-6.25-12.24-8.42-1.69-1.25-5.64-5.65-7.05-6.27-2.61-1.14,1.95,6.43-.65,5.32-1.75-.74-7.36-9.46-9.01-11.64-2.21-2.92-4.84-4.85-6.9-8.42-1.59-2.76-7.17-18.12-8.07-18.59-1.27-.66-1.02,1.09-1.01,1.68.06,6.85,2.28,14.24,3.35,20.98-1,1.07-6.91-6.49-7.59-7.39-6.93-9.13-12.35-20.48-13.7-31.94-1.35-.18-1.09-.11-1.49.84-1.79,4.22-.52,9.31-1.81,13.53-.29.94.39,1.17-1.34.96-2.51-4.66-5.27-9.27-6.47-14.53-1.61-7.06-.62-14.59-.86-21.83-.04-1.28.68-2.68-1.33-2.3Z"/><path class="t" d="M77.19,144c-.13-1.76.37-3.49.29-5-.2-3.9-2.43-9.66.35-12.7,4.79-5.23,18.33-4.91,24.8-3.45,12.92,2.91,3.64,9.38-.41,15.89-1.64,2.64-3.45,6.77-5.06,9.26-3.67,5.64-8.07,10.87-11.28,16.84-3.21,4.02-5.57-6.12-6.36-8.83-1.14-3.92-2.02-7.92-2.32-12.01Z"/><path class="ab" d="M190.99,230l2,.34c-2.54,9.86.83,11.19,8.47,15.51,7.19,1.7,19.56,9.41,24.82,1.18,6-9.39,3.38-37.49.32-48.36-1.38-4.89-3.86-10.77-5.79-15.56-.66-1.63-.62-.66.79-1.77,9.13,7.37,13.06,21.25,15.11,32.53,2.45,13.43,5.02,45.29-16.1,43.46-3.62-.31-27.24-10.8-29.95-13.33-3.74-3.48-5.4-7.21-2.62-11.95.98-1.67,1.73-1.41,2.95-2.05Z"/><path class="g" d="M232.77,120.86c3.56-.15,9.93-1.38,7.77,4.44-1.48,3.99-12.21,14.03-15.6,18.38-3.61,4.63-7.48,12.42-11.05,16.26-.54.58-.88,1.49-1.88,1.35-5.1-1.07-7.12-29.23-4.92-33.49.52-1,1.04-1.46,2.04-1.96,5.59-2.77,17.36-4.72,23.63-4.99Z"/><path class="ab" d="M157.05,258.67c1.41,5.78,1.71,7.6,6.71,10.95,14.31,9.56,33.04,8.15,45.2-3.94l3.32-6.34c2.17.56,4.35,1.26,6.63,1.36.85,12.49-13.39,16.2-22.14,21.44-4.61,2.76-8.88,6.17-13.44,9.01-3.88-2.43-7.52-5.33-11.44-7.68-9.59-5.73-23.85-9.71-24.16-22.79,3-.69,6.4-1.17,9.32-2Z"/><path class="ag" d="M145.07,180.67l2.66-.67c.59.89-7.02,16.79-7.94,19.71-3.56,11.3-5.62,27.5-3.96,39.22.85,5.99,2.94,10.97,9.58,11.74,7.99.93,19.42-2.64,25.84-7.45,5.41-4.05,5.59-5.13,4.56-11.72-.23-1.46,1.22-.57,1.87-1.5,5.78,3.6,4.9,9.76.33,14-2.91,2.7-26.49,12.73-30.66,13.28-11.57,1.53-16.49-6.86-18.15-17.03-2.53-15.45,3.59-48.98,15.88-59.58Z"/><path class="n" d="M295.47,113.33v2c-27.84-.88-57.73-4.88-85.3.21-20.33,3.76-26.06,6.66-47.65,1.98-28.98-6.29-52.55-3.68-81.63-2.16-6.87.36-13.84-.22-20.65,1.32l1.65-2.01c27.86-2.26,58.28-6.42,86.1-2.59,14.1,1.94,21.59,6.38,37.37,5.95,15.05-.4,28.69-6.58,43.86-7.39,21.94-1.17,44.43.94,66.24,2.69Z"/><path class="s" d="M77.86,168c-.59,4.73,4.2,6.8,3.36,11.3l6.62.7c.56.43.77,1.27,2,2,.42,2.08,1.59,4.42,3.35,5.64,1.6,1.11,8.38,3.14,10.45,3.53,7.85,1.49,17.6-1.19,25.11.18,1.24.23,1.85.89,2.34,1.99-.38.69-.96,1.3-1.33,2,.4-1.83-1.81-1.89-2.99-2-9.37-.91-18.75,1.8-28.29-1-4.15-1.22-13.6-7.37-16.95-10.35-10.69-9.52-10.69-28.66-16.34-41.31l-2.02.29c-1.16.85-.43,4.33-.7,5.97-1.21,7.28-6.74,13.06-8.93,19.72-.8,2.44-2.24,8.43-.98,10.68-.15.18-.95,2-1.33,2.67-1.71-.08-1.91-.49-1.86-2.13.21-6.67,2.91-12.77,6.2-18.52l2.31-8.01c1.39-2.49,2.72-5.1,4-7.66-1.59.29-3.47,1.57-4.88,2.44-1,.62-3.9,3.51-2.77-.1.64-2.04,7.08-12.85,8.78-13.28,1.9-.49,6.25,4.14,7.06,6.06,3.35,8,4.87,20.63,7.78,29.21Z"/><path class="e" d="M208.96,258.67c-2.09,1.2-3.85,4.18-5.65,5.34-3.92,2.52-20.27,3.05-25.32,2.69-6.67-.48-11.1-.84-14.88-6.5-.88-1.32.79-2.11-2.06-2.86,12.08-3.49,20.41-6.15,33.45-3.84,4.98.88,9.74,3.7,14.47,5.18Z"/><path class="o" d="M161.04,257.33c2.85.75,1.18,1.54,2.06,2.86,3.78,5.66,8.21,6.02,14.88,6.5,5.05.36,21.4-.17,25.32-2.69,1.8-1.16,3.56-4.14,5.65-5.34.9.28,2.24.39,3.33.67l-3.32,6.34c-12.17,12.09-30.9,13.51-45.2,3.94-5-3.34-5.3-5.17-6.71-10.95,1.33-.38,2.67-.95,3.99-1.33Z"/><path class="s" d="M163.04,168c-.88-1.07-.16-1.69.36-2.6,5.29-9.14,8.3-18.38,10.64-28.71,4.15-4.16,16.93-3.68,19.89,1.36l5.39,20.6,4.98,10.01c-2.23-.76-5.6-1.48-7.99-2,.46-.88,2.17-.04,1.9-1.55-.3-1.69-1.7-3.89-2.24-5.78-1.09-3.79-1.81-9.46-3.16-12.84-.34-.84-5.65-6.28-6.14-6.32-3.18,1.77-8.43,1.08-10.15,4.99-.97,2.22-1.15,6-2,8.67-.94,2.95-3.8,8.89-4.18,11.16-.31,1.86,4.06.1,5.28-.06,1.81-.24,1.69-.66.72,1.06-3.72.57-9.96,1.04-13.31,2Z"/><path class="aa" d="M278.17,330.67c.21-3.14.72-7.72,1.71-10.64.49-1.45,5.08-6.23,6.39-8.9,3.43-7,2.31-12.95,3.2-20.46,11.78-1.09,8.15,13.72,5.63,20.64-3.1,8.51-9.54,14.54-16.93,19.36Z"/><path class="ak" d="M209.62,214.67c-.78-.6-1.21-.44-2,0,2.76-9.3,1.54-17.36-9.67-18.01-13.28-.77-11.62,8.93-6.86,17.58.24.43,5.11,5.64,2.23,5.75-1.62.06-4.38-3.36-5.11-4.87-1.26-2.6-1.51-8-2.2-9.12-.4-.65-.94-.78-1.66-.66.55,1.48-1.21,2.36-1.34,2.67-.72-1.14-2.07-1.36-3.33-1.33,2.33-10.46-3.92-11.03-12.98-10-5.84.67-6.04,3.61-8.65,8-.53-1.23-.46-3.32-.33-4.66,3.06.46,1.96-2.73,4.85-4.14,9.47-4.64,31.28-.66,42.1-.49l2.3-2.04c3.06,2.24,3.79,9.19,3.98,13.01.17,3.35.1,5.28-1.32,8.33Z"/><path class="k" d="M311.44,292.67c-1.34,1.28-2.8,2.94-3.88,4.45-.66.92-2.95,3.74-2.11,4.89-1.54,1.07-2.84,2.74-5.32,2.66.31-2.46-.53-5.91.14-8.19.45-1.56,3.69-5.24,4.56-8.1,2.49-8.26-.64-15.09-2.7-23.03,5.97-.5,8.05-.14,10.01,5.63,2.93,8.59,2.05,13.47-.7,21.7Z"/><path class="ai" d="M318.08,273.33c-1.2,1.11-1.11-.45-1.38-.95-.74-1.4-3.71-5.78-3.77-6.13-.33-1.79,1.23-7.01,1.23-9.25-.01-3.71-2.15-8.68-2.07-11.97.07-3.07,2.16-6.64,2.69-9.69,5.71,5.66,7.88,14.33,7.3,22.32-.16,2.25-2.83,14.6-3.99,15.67Z"/><path class="t" d="M220.94,172.67c2.51.79,4.76,2.3,7.3,3.01,16.04,4.5,43.03,3.23,51.8-13.46,3.44-6.55,5.48-15.49,5.45-22.88,2.03-2.77.59,10.08.47,10.81-1.28,7.71-4.27,18.44-10.44,23.54-9.8,8.08-38.43,8.83-49.61,3.67-.84-.39-6.13-3.45-4.97-4.68Z"/><path class="h" d="M77.19,144l-1.93-9.07c-2.94-15.68,12.44-13.46,22.9-14.92l22.29,1.33c.19,1.04-.11,1.54-.63,2.36-2.23,3.46-9.09,8.91-12.26,12.38-3.55,3.87-6.61,8.26-10.39,11.92,1.62-2.48,3.43-6.62,5.06-9.26,4.05-6.51,13.33-12.98.41-15.89-6.47-1.46-20.01-1.78-24.8,3.45-2.78,3.04-.55,8.8-.35,12.7.08,1.51-.42,3.24-.29,5Z"/><path class="k" d="M54.57,262c-1.3.61.42,2.37-.08,3.23-.2.34-3.82,1.68-3.26,4.1l-1.99-.67c-4.15-6.72-7.36-18.48-2.01-25.68,1.45-1.96,4.94-3.32,5.9-.54s-.27,10.89.1,14.56c.15,1.5.83,3.54,1.34,5Z"/><path class="al" d="M206.96,193.33l-2.3,2.04c-10.82-.18-32.63-4.15-42.1.49-2.88,1.41-1.79,4.6-4.85,4.14.59-6.28,5.89-7.51,11.32-9,8.66-2.37,30.54-3.09,37.93,2.33Z"/><path class="aa" d="M249.55,344.67c-5.64,10.38-15,17.18-27.28,15.99,1.29-1.36,2.54-5.51,3.5-6.48s5.66-2.55,7.36-3.63c1.88-1.2,6.47-4.91,7.77-6.55l3.74,3.29c2.01.38,3.29-6.21,4.91-2.62Z"/><path class="k" d="M115.13,338.67l1,6.66,4.99,1.35-.67,1.32c.88,0,1.78.01,2.67,0-1.07,1.18-3.5.76-4.91.58-9.36-1.15-18.18-6.79-22.37-15.24,2.17,1.07,7.1-1.43,8.22-1.21.8.16,8.93,5.81,11.07,6.53Z"/><path class="ae" d="M290.14,266.67c.09-1.62-.45-3.46.93-4.73l9.71-5.93c-3.73,5.63,2.18,24.21-.3,28.02-.9,1.38-7.08-.99-8.06-1.98-1.05-1.06-1.33-3.83-1.62-5.38,1.27-.52.03-2.13.16-2.92.44-2.65,4.61-1.05,6.44-1.8,1.72-5.92-2.89-9.8-7.27-5.28Z"/><path class="k" d="M146.4,352c1.1,2.95.02,6.04,2,8.66l-4.66.67c-4.47-.41-8.58-1.65-12.57-3.74-1.43-.75-9.24-5.57-7.39-7.59,3.08,1.46,6.58-.67,9.56-.45,4.26.31,7.02,2.78,13.06,2.45Z"/><path class="s" d="M89.84,182c2.21,1.31,8.68,3.66,11.31,4.34,10.83,2.8,20.57.63,31.5.3,2.33,2.24-.46,4.72-1.55,6.7-.49-1.1-1.1-1.76-2.34-1.99-7.51-1.37-17.25,1.31-25.11-.18-2.07-.39-8.85-2.42-10.45-3.53-1.76-1.22-2.94-3.56-3.35-5.64Z"/><path class="k" d="M263.52,330.67c3.31.32,5.71,2.54,7.32,5.33-5.29,7.33-12.12,11.07-20.63,14,1.58-3.82,3.01-8.19,5.43-11.55,2.16-2.99,5.88-5.27,7.87-7.78Z"/><path class="aa" d="M208.96,356.67c2.74,2.01,2.54,5.3,6.65,5.33-8.35,6.71-17.82,7.22-27.95,3.99,2.71-2.25,5.75-4.86,9.17-5.81,4.37-1.21,7.73-.97,12.13-3.52Z"/><path class="aa" d="M89.84,318.67l-2.38,3.31c-1.33,4.45,2.99,3.73,3.05,7.36-8.23-2.01-17.09-12.11-18.64-20.33-.27-1.43-.1-.9.68-.69,1.98.54,5.25.75,6.63,1.37,2.28,1.02,6.44,7.09,10.67,8.98Z"/><path class="k" d="M69.21,294c-3.36.77-2.99,5.31-3.99,8-7.93-5.42-11.26-14.02-12.64-23.33.27-.28,7,2.76,7.3,3.01.69.58,3.13,6.22,4.68,7.98.46.52,4.24,4.05,4.66,4.33Z"/><path class="k" d="M266.19,311.33c-.95-4.02-5.6-4.41-8.65-6,1.63-3.8,8.76-17.41,13.96-10.99,1.05,1.29.94,6.72.54,8.51-.59,2.65-4.52,6.16-5.85,8.47Z"/><path class="u" d="M177.01,358c2.05,1.08,1.76,3.58,2.04,5.51l1.95,1.82c-9.49,3.32-17.37,2.45-25.95-3,3.21-.12,6.26-2.92,9.13-3.52,3.91-.81,8.31.2,12.83-.81Z"/><path class="aa" d="M133.76,334c-.69-3.42,2.06-.95,3.2-3.13.93-1.77.77-4.88-.47-6.46-.56-.71-6.08-.54-7.39-.41,9.28-2.42,18.97.61,25.27,7.67l-7.01,4.32c-4.41-1.29-9-1.75-13.6-1.99Z"/><path class="aa" d="M216.94,341.33c-.4.42-.67,1.61-1.33,2.32-2.69,2.89-5.5,5.64-7.99,8.72-1.24.79-1.95-.62-2.55-1.48-4.43-6.39,1.93-14.02,6.54-18.22,1.09,3.42,5.23,4.81,5.32,8.67Z"/><path class="aa" d="M164.37,342c-.86-3.02,1.02-6.13-1.31-9.01l1.07-.9c1.52-.33,3.1.09,4.62-.06.86-.08,1.52-.7,1.61-.7,4.19-.05,7.9,1.92,10.63,5l-6.38,5.51c-3.34-.87-6.84-.24-10.24.16Z"/><path class="k" d="M192.98,343.33c-2.89-1.89-1.15-6.47-3.99-8.67,1-.55,1.4-1.44,3.03-1.97,4.4-1.43,10.97-2.12,14.25,1.71.07.4-4.19,6.24-4.67,6.55-1.43.92-6.21,1.37-8.61,2.38Z"/><path class="aa" d="M113.13,308.67c6.83,2.03,12.22,6.69,15.97,12.66-2.3-1.15-6.98,2.08-8.2,1.87s-6.72-3.9-9.1-4.53l.36-.66h-1.03s0-1,0-1c2.58-1.72,2.38-5.49,1.99-8.34Z"/><path class="k" d="M264.85,314c-1.37,3.31-2.05,10.47-3.92,12.92-1.27,1.67-6.14-1.88-6.59-3.4s-.31-6.7-.08-8.48c.19-1.53,1.12-2.38,1.28-3.05.15,1.12-.57,2.25.84.47,2.42-3.06,6.67-1.5,8.47,1.53Z"/><path class="k" d="M242.89,330c-1.3,2.44-6.08,14.17-9.51,13.26-5.93-1.57-1.49-13.48.2-17.26,2.21,2.67,6.44,2.46,9.32,4Z"/><path class="x" d="M151.06,168c1.58,1.51-8.66,7.97-9.83,8.48-11.4,4.94-35.35,5.06-46.53-.36-1.69-.82-3.01-1.62-4.19-3.13.82-1.01.77-1.04,1.96-.66,2.59.82,5.74,3.06,8.68,3.98,11.22,3.5,29.35,2.48,40.07-2.5,1.37-.64,9.39-6.23,9.82-5.82Z"/><path class="ad" d="M113.13,308.67c.38,2.86.59,6.62-1.99,8.34v.99s1.02,0,1.02,0l-.36.66c-4.89-1.29-10.19-.92-15.31-2.67h5.32c.29-.29-.33-4.3.11-5.56s2.81-1.23,2.56-3.1c3.75.05,5.12.29,8.65,1.33Z"/><path class="aa" d="M182.34,339.33l5.99,6.67c-3.59,2.39-6.87,7.31-11.94,7.3-3.72-8.01.63-9.73,5.95-13.97Z"/><path class="k" d="M85.18,286l-1.65.66c4.94.79,4.34,5.59,2.98,9.34-4.38-2.06-10.57-2.37-13.81-6.99,2.88-5.18,7.72-4.29,12.48-3.01Z"/><path class="k" d="M216.94,328.67c.18-.11.37-.8,1.12-1.18,1.84-.94,12.38-4.24,12.86-1.8-1.1,1.53-1.88,6.57-2.81,7.49-.66.66-2.93.84-4.08,1.58-1.07.69-2.73,2.29-3.75,3.24l-3.33-9.33Z"/><path class="k" d="M78.52,268c2.99,4.35,5.54,9.28,5.99,14.66l-8.62-.69c.07-2.38-1.9-6.17-3.35-7.97.44-3.23,4.4-3.57,5.99-6Z"/><path class="ac" d="M275.5,291.33c-.1,2.95-.6,1.43,1.15,1.56,1.43.11,1.57,1.21,2.69,1.62,1.78.64,3.77,0,5.48.82-.46,1.86-1.46,11.88-2.99,11.98l-6.89-4.42c-.31-4.02-.29-7.76.56-11.56Z"/><path class="p" d="M170.36,331.33c-.09,0-.75.61-1.61.7-1.52.15-3.1-.27-4.62.06l-1.07.9c2.34,2.88.45,5.99,1.31,9.01-2.14.25-6.13.7-7.99,1.33l-4.66-7.33c5.67-3.29,11.97-5.4,18.63-4.67Z"/><path class="k" d="M273.51,332c.03-6.11-3.76-4.81-5.99-8.67.39-1.39.97-9.65,1.33-10,8.96.9,8.3,10.37,5.97,17.02-.44,1.26-1.2,1.42-1.32,1.65Z"/><path class="k" d="M57.23,266.67c3.93,4,11.86,4.92,7.21,11.88-5.51.82-8.47-1.52-11.87-5.22l4.66-6.67Z"/><path class="k" d="M120.45,339.33l13.09-2.45,2.21.47c.1,7.78-4.34,9.79-11.31,10.65l-.61-1.61c1.41-2.29-.04-4.39-.65-6.66-.6-.87-1.92-.26-2.73-.4Z"/><path class="k" d="M238.24,318.67c2.17-2.42,2.95-3.52,6.21-4.78s7.88-3.12,7.79,1.79c-.06,2.93-5.4,7.24-7.34,10.33-.41-3.44-3.26-6.66-6.65-7.33Z"/><path class="r" d="M287.48,287.33c-.96,2.66-1.98,5.23-2.66,8-1.72-.83-3.71-.18-5.48-.82-1.12-.4-1.25-1.51-2.69-1.62-1.75-.13-1.25,1.39-1.15-1.56.8-3.61,2.07-5.59,3.99-8.67,2.09,2.29,5.11,3.93,7.99,4.67Z"/><path class="k" d="M96.49,292c1.67,1.61,8.38,10.2,7.03,12.04-1.48.8-5.74,1.04-7.23.64-.4-.11-4.15-4.8-5.79-6.01l5.99-6.67Z"/><path class="o" d="M96.49,320.67c4.53.86,8.9.25,13.31,1.34-.91,7.03-5.95,7.73-11.98,7.99-1.5-1.86.26-3.79.03-5.63-.21-1.69-2.64-2.04-1.36-3.7Z"/><path class="ad" d="M75.2,264c1.82,1.68,2,2.07,3.33,4-1.59,2.43-5.55,2.77-5.99,6-1.81-2.24-5.73-4.61-7.99-6.67,1.44-7.68,5.49-3.44,10.65-3.33Z"/><path class="aq" d="M89.84,318.67c1.02.46,5.49,1.78,6.65,2-1.28,1.66,1.15,2.01,1.36,3.7.23,1.84-1.53,3.77-.03,5.63-2.88.12-4.57,0-7.32-.67-.06-3.63-4.38-2.91-3.05-7.36l2.38-3.31Z"/><path class="af" d="M183,208c-.66,1.56-.46,3.2-1.7,5.3-2.82,4.79-7.12,7.32-12.68,7.3-5.19-.02-9.99-2.01-9.57-7.93,7.92,10.29,18.02,5.72,20.62-6,1.25-.03,2.61.19,3.33,1.33Z"/><path class="ad" d="M129.1,324c1.31-.13,6.83-.3,7.39.41,1.24,1.58,1.4,4.69.47,6.46-1.14,2.18-3.89-.29-3.2,3.13-.88-.05-1.78.04-2.66,0,.54-2.26-2.63-1.46-3.21-2.12-.52-.6-.63-5.95-2.12-7.21.83-.22,2.51-.59,3.33-.67Z"/><path class="k" d="M187,362.67c-.94-2.51-1.05-5.95-.67-8.67,1.1-.83,4.1-5.52,5.56-5.28,4.28,3.55,4.05,8.13-.22,11.63-1.85,1.52-3.05,1.46-4.67,2.32Z"/><path class="aa" d="M157.05,358.67l-1.43-2.89-1.23-5.11c2.34-.69,5.87-2.94,7.7-4.64.89-.25,1.1.51,1.52,1.07,4.44,5.93-1.66,9.5-6.56,11.57Z"/><path class="c" d="M154.39,350.67l1.23,5.11,1.43,2.89c-4.54,1.91-8.53,3.11-13.31,2.67l4.66-.67c-1.97-2.62-.9-5.71-2-8.66,1.8-.1,6.25-.82,7.99-1.33Z"/><path class="r" d="M75.2,296.67l-.66,1.99,1.32.34c-2.53,1.21-1.14,6.23-3.99,6.34-3.43-.97-3.88-1.44-6.65-3.33,1.01-2.69.64-7.23,3.99-8,1.5,1.03,4.25,1.96,5.99,2.67Z"/><path class="r" d="M244.89,326c-.98,1.56-1.24,2.59-2,4-2.88-1.54-7.11-1.33-9.32-4,1.4-3.15,2.3-4.71,4.66-7.33,3.4.67,6.25,3.89,6.65,7.33Z"/><path class="aq" d="M220.93,356c-2.03,2.65-2.51,3.74-5.32,6-4.11-.03-3.92-3.32-6.65-5.33,3.33-1.93,4.45-3.93,6.65-6.67,3.15.81,3.34,3.86,5.32,6Z"/><path class="k" d="M287.48,287.33c-2.88-.73-5.9-2.38-7.99-4.67,1.85-2.96,3.86-6.31,6.99-7.98,2.52,3.17,3.57,5.23,2.69,9.36-.35,1.64-1.4,2.47-1.7,3.29Z"/><path class="o" d="M71.87,305.33c2.85-.11,1.46-5.13,3.99-6.34l-1.32-.34.66-1.99c3.97,1.6,11.12,1.61,8.71,7.06-1.69,3.83-8.81,2.51-12.04,1.6Z"/><path class="k" d="M151.73,336l4.66,7.33c-2.19.75-8.57,6.04-10.99,2.01s3.61-7.76,6.34-9.34Z"/><path class="an" d="M85.18,286c4.78,1.28,7.69,2.5,11.31,6l-5.99,6.67c-.69-.51-3.46-2.41-3.99-2.67,1.36-3.75,1.96-8.55-2.98-9.34l1.65-.66Z"/><path class="o" d="M104.48,307.33c.25,1.87-2.13,1.86-2.56,3.1s.18,5.28-.11,5.56h-5.32c-1.94-.66-3.88-1.43-5.27-3.07,1.44-5.63,8.54-5.66,13.26-5.6Z"/><path class="ah" d="M61.22,200c-2.07,2.99-3.86,7.01-6.65,9.33-1.26-.93-1.56-22.03-1.37-25.05.06-.87.68-1.48.69-1.61,1.39,4.85.9,12.19,3.17,16.49,1.15,2.17,2.09,1.48,4.15.85Z"/><path class="ai" d="M125.77,324.67c1.49,1.26,1.59,6.61,2.12,7.21.58.67,3.75-.13,3.21,2.12-2.86-.12-11.21.84-12.59-1.06-2.83-3.89,4.17-7.44,7.27-8.28Z"/><path class="r" d="M186.33,354c-.39,2.72-.27,6.15.67,8.67-2.57,1.37-3.21,1.7-5.99,2.67l-1.95-1.82c-.28-1.93.01-4.43-2.04-5.51,2.07-.47,7.7-2.79,9.32-4Z"/><path class="ao" d="M75.2,264c-5.16-.1-9.21-4.35-10.65,3.33-2.36-2.16-6.02-4.32-5.97-7.97,6.4-2.01,11.97.35,16.62,4.64Z"/><path class="aq" d="M120.45,339.33c.82.14,2.13-.47,2.73.4.61,2.26,2.05,4.37.65,6.66l.61,1.61c-.42.05-.9,0-1.33,0-.89,0-1.78,0-2.67,0l.67-1.32-4.99-1.35-1-6.66c1.2.4,3.89.43,5.32.67Z"/><path class="aq" d="M188.99,334.67c2.85,2.19,1.1,6.78,3.99,8.67-.98.41-3.68,2.01-4.66,2.67l-5.99-6.67c2.44-1.95,3.84-3.12,6.65-4.67Z"/><path class="k" d="M220.93,356c-1.99-2.14-2.17-5.19-5.32-6,1.74-2.16,3.41-4.36,4.99-6.65,6.85,5.95,4.61,7.06.33,12.65Z"/><path class="q" d="M267.52,323.33c2.23,3.86,6.02,2.56,5.99,8.67-.88,1.65-1.62,2.56-2.66,4-1.61-2.79-4.01-5.01-7.32-5.33.9-1.14,3.63-6.04,3.99-7.33Z"/><path class="ap" d="M245.56,336.67c0,.22.8,1.12.03,1.96,3.33.5,3.03,3.15,6.62.71-.17.94-2.04,4.18-2.66,5.33-1.61-3.59-2.89,3-4.91,2.62l-3.74-3.29c1.52-1.9,2.47-5.59,4.66-7.33Z"/><path class="r" d="M220.27,338c-.98.91-2.39,2.35-3.33,3.33-.09-3.86-4.23-5.25-5.32-8.67,1.62-1.48,3.46-2.83,5.32-4l3.33,9.33Z"/><path class="aq" d="M290.14,266.67c4.38-4.52,8.99-.64,7.27,5.28-1.83.75-6-.85-6.44,1.8-.13.79,1.11,2.4-.16,2.92-.66-3.52-.87-6.34-.67-10Z"/><path class="c" d="M266.19,311.33c-.32.57-1.09,2.08-1.33,2.67-1.81-3.03-6.05-4.59-8.47-1.53-1.41,1.78-.69.65-.84-.47.67-2.89.76-3.78,2-6.67,3.05,1.59,7.7,1.98,8.65,6Z"/><path class="ao" d="M252.21,339.33c-3.59,2.44-3.29-.21-6.62-.71.77-.83-.04-1.74-.03-1.96.07-1.87.62-3.49.67-5.34,4.19.06,6.7,3.96,5.99,8Z"/><path class="p" d="M54.57,262c.44,1.26,1.79,3.78,2.66,4.67l-4.66,6.67c-1.76-1.91-2.04-2.59-3.33-4.67l1.99.67c-.56-2.42,3.06-3.76,3.26-4.1.5-.86-1.23-2.62.08-3.23Z"/><path class="am" d="M209.62,214.67c-1.8,3.85-6.17,6.15-10.32,6.06-1.2-.03-4.23-.71-2.34-1.73,1.29-.7,4.49-.72,6.46-1.52,1.8-.73,2.71-1.96,4.19-2.8.78-.44,1.22-.6,2,0Z"/><path class="ak" d="M51.24,180c-.26.46-2.53,6.8-3.99,5.33,1.01-12.2,3.87-22.59,9.72-33.25.24-.44.84-.6.92-.75l-2.31,8.01c-3.28,5.75-5.99,11.85-6.2,18.52-.05,1.64.15,2.05,1.86,2.13Z"/><path class="j" d="M74.53,258.66c-1.52.22-1.85-1.34-3.16-1.83-4.27-1.59-6.26.41-6.15-6.16,4.58,1.52,7.3,3.55,9.31,7.99Z"/><path class="s" d="M87.84,180l-6.62-.7c.84-4.51-3.95-6.58-3.36-11.3,2.68,5.24,5.37,8.46,9.98,12Z"/><polygon class="y" points="307.44 255.34 302.12 254.34 308.1 248 307.44 255.34"/><path class="d" d="M305.45,302c-.84-1.15,1.45-3.96,2.11-4.89,1.07-1.51,2.54-3.17,3.88-4.45-1.84,5.51-1.01,5.87-5.99,9.33Z"/><polygon class="z" points="57.23 252.67 57.23 243.33 60.47 247.55 57.23 252.67"/><path class="w" d="M304.12,56.67c-.15,1.59-1.55,2.7-2.66,3.67-6.51,5.7-6.8,1.31-12.96.96-7.61-.43-17.66,6.29-22.31,12.03-1.25,1.54-2.64,1.32-1.98,3.97l10.31,2.68-.09,1.38c-7.72,2.55,2.98,6.4,6.07,9.3,1.17,1.1,2.51,3.3,3.66,4.66.16,3.48,2,6.37,1.33,10-1.4-.01-2.81-.11-4.21.15-1.98.37-1.53,2.4-3.78,1.85-20.62-1.37-42.98-1.43-63.47,1.41s-32.3,5.77-53.14,2.41c-32.98-5.33-59.99-5.4-93.34-1.81-2.06.22-4.35.7-6.32,1.33-.26-1.49.91-1.86,1.99-2.33,3.33-1.45,11.17-1.1,13.27-2.71,1.89-1.45,4.97-9.67,7.37-12.62.91-1.12,2.54-2.78,3.65-3.68,1.87-1.51,6.64-2.84,6.36-5.64-.15-1.47-2.82-2.6-1.38-3.38,1.85-.91,11.62-1.06,11.99-2.67.19-.86-3.54-2.99-4.44-3.54-1.91-1.17-4.21-2.35-6.2-3.45.21-1.55-.35-2.02-1.36-2.97-3.06-2.87-11.25-6.35-15.43-6.19-6.29.24-12.08,6.21-17.14-2.18,2.93-3.31,6.46-4.88,10.65-6,.27,3.24-3.06,4.58-3.99,7.33,5.29-1.46,9.85-4.77,15.6-4.68,8.13.12,18.86,6.53,23.33,13.35.06-2.22-.23-3.28,1-5.33,1.56,1.69,2.71,3.68,4.33,5.32,1.96-2.64,5.02-3.69,7.65-5.32,4.21.1,8-2.8,11.84-3.8,11.36-2.96,20.47-1.2,31.72-.84,1.83.06,10.05.49,10.35-1.04l-1.33-3.65,5.32-.67c2.67.57,5.05,2.07,7.64,2.06,4.06-.03,13.05-2.5,17.64-3.39,3.88-1.55,4.42,5.55,5.73,5.96,3.97-1.25,7.74-1.62,11.93-1.32,8.48.61,16.84,2.49,24.5,6.12,1.94.92,8.4,5.14,9.45,5.25,3.28.33,1.84-2.6,2.29-4.01.31-.99.86-1.31,1.33-2,2.07,9.18,1.98,4.85,5.32,1,5.91-6.81,14.65-9.6,23.58-8.29,1.94.28,10.59,4.36,11.02,3.96-.51-3.72-3.81-5.47-5.99-8,6.2.76,8.52.95,13.31,5.33ZM209.62,108c.28-1.71-1.94-2.86-1.97-4.33-.03-1.33,2.27-3.44.98-5l-11.65,11.32c4.28.82,8.19-2.17,12.64-2Z"/><path class="ah" d="M93.83,70.67c-3.33-1.83-7.89-5.11-11.62-5.37-4.39-.31-10.96,1.33-13.67,5.03-4.48,6.11-5.82,14.58-3,21.68,1.82,4.58,5,4.38.98,10.63-5.06-1.03-8.77-6.33-10.43-11.15-3.52-10.21-3.68-23.67,3.81-32.15,5.06,8.39,10.86,2.42,17.14,2.18,4.18-.16,12.37,3.32,15.43,6.19,1.01.95,1.57,1.42,1.36,2.97Z"/><path class="ah" d="M311.44,69.33c-1.35-1.04-3.33,6.58-3.33,7v11.33c0,1.45-2.34,5.32-1.33,7.67h1.33c-.69,1.07-4.92,5.69-5.79,5.92-6.52-1.52-1.49-6.62-.24-10.3,1.63-4.83.2-13.38-1.82-18.09-2.97-6.95-12.25-8.77-19.07-7.5-4.4.82-9.81,8.67-15,7.97,4.65-5.74,14.7-12.46,22.31-12.03,6.17.35,6.45,4.74,12.96-.96,1.11-.97,2.51-2.08,2.66-3.67,3.74,3.43,6.22,7.63,7.32,12.67Z"/><path class="ah" d="M176.35,54l-5.32.67,1.33,3.65c-.29,1.53-8.52,1.1-10.35,1.04-11.25-.36-20.36-2.13-31.72.84-3.84,1-7.63,3.9-11.84,3.8,1.46-.9,3.04-2.53,4.87-3.45,12.46-6.24,26.08-6.87,39.71-5.22l-.67-2.66c4.69-.85,9.38.34,13.98,1.33Z"/><path class="m" d="M290.81,51.33c2.17,2.53,5.47,4.27,5.99,8-.43.4-9.07-3.67-11.02-3.96-8.93-1.31-17.68,1.48-23.58,8.29-3.34,3.85-3.25,8.18-5.32-1,7.21-10.46,22.49-12.74,33.94-11.33Z"/><path class="m" d="M106.47,64c-1.22,2.05-.94,3.11-1,5.33-4.47-6.83-15.2-13.23-23.33-13.35-5.76-.09-10.32,3.23-15.6,4.68.94-2.75,4.26-4.09,3.99-7.33,13.68-3.66,26.51.45,35.94,10.67Z"/><path class="ak" d="M201.64,52.67c.91-.18,5.53-1.79,5.99-1.33l-.99,2.69c-.74,2.14,3.44.64,4.63.61,12.81-.28,22.51.17,34.22,5.77,2.79,1.34,5.53,3.7,8.29,5.04,1.65.8.69.47,1.76-.78-.45,1.41.99,4.35-2.29,4.01-1.05-.11-7.51-4.33-9.45-5.25-7.66-3.63-16.02-5.51-24.5-6.12-4.19-.3-7.96.08-11.93,1.32-1.31-.42-1.85-7.52-5.73-5.96Z"/><path class="l" d="M284.15,95.33c1.61,1.91,7.39,10.67,7.99,11,2.17,1.19,8.81.87,10.64,3.66-7.88-1.01-15.79-1.39-23.68-1.97-.86-.06-1.51-.69-1.61-.69,2.25.55,1.8-1.48,3.78-1.85,1.4-.26,2.81-.16,4.21-.15.66-3.63-1.17-6.52-1.33-10Z"/><path class="aj" d="M311.44,69.33c1.83,8.39,1.47,18.55-3.33,26h-1.33c-1.01-2.35,1.33-6.21,1.33-7.67v-11.33c0-.42,1.97-8.04,3.33-7Z"/><path class="i" d="M176.35,166c.97-1.73,1.08-1.3-.72-1.06-1.22.16-5.59,1.92-5.28.06.38-2.27,3.24-8.21,4.18-11.16.85-2.67,1.02-6.45,2-8.67,1.72-3.91,6.97-3.22,10.15-4.99.49.04,5.81,5.48,6.14,6.32,1.35,3.37,2.06,9.05,3.16,12.84.55,1.89,1.95,4.09,2.24,5.78.27,1.51-1.44.67-1.9,1.55-8.7-1.91-11.27-1.99-19.96-.67Z"/><path class="i" d="M302.78,143.34c5.28,17.21,8.88,35.29,5.99,53.33-1.29.34-1.28-.53-1.87-1.12-3.66-3.64-5.86-10.32-12.1-9.24-2.53,1.55-.45,12.55-2.31,15.7-1.24,1.88-3.38-.79-4.57-.57-2.38.43-5.14,11.99-6.43,14.89-1.96,4.42-6,10.89-9.51,14.13-2.34,2.16-2.57-.88-2.51-2.8.16-4.94,1.78-9.95-2.29-14.31-2.9,2.06-2.31,5.76-3.34,8.64-.97,2.7-8.88,19.32-10.63,19.34-.97-.63-.92-1.28-1.03-2.29-.52-4.73-.06-10.29-.7-15.3-1.22-9.53-4.49-19.14-7.89-28.08.2-2.31,9.21-.27,10.92-.3,31.19-.51,40.97-24.49,46.96-51.03.23-1.03-.46-1.17,1.31-1Z"/><path class="ah" d="M209.62,108c-4.45-.17-8.36,2.82-12.64,2l11.65-11.32c1.29,1.56-1.01,3.67-.98,5,.03,1.46,2.26,2.62,1.97,4.33Z"/></svg>